<svg xmlns="http://www.w3.org/2000/svg" viewBox="0 0 500 500"><defs><style>.cls-1,.cls-2{fill:#231f20;}.cls-2{fill-rule:evenodd;}.cls-3{opacity:0.5;}</style></defs><g id="Layer_4" data-name="Layer 4"><path class="cls-1" d="M258.82,96.51a2.29,2.29,0,0,0-.24-1.66c-3.09-4.09-3.63-9-4.16-13.8-.29-2.61-.41-14.36-.59-17.14l-1.51,0V194.67a3,3,0,0,1,1.39-.41l2.49-.12a4.21,4.21,0,0,1,2.3.57,271.15,271.15,0,0,1-4.34-58.59A238.82,238.82,0,0,1,258.82,96.51Z"/><path class="cls-1" d="M246.85,64h1.62V317.71c-2.07-.48-3.95-1.89-5.87-4.32-2.28-2.86-4-6.13-6.14-9.13-4.9-6.92-9.8-13.85-14.86-20.65-2.4-3.22-3.21-6.37-1.65-10.23a392.94,392.94,0,0,0,20.42-69c4.61-22.52,7.14-45.23,6.18-68.23a238.68,238.68,0,0,0-4.65-39.61,2.31,2.31,0,0,1,.23-1.67c3.1-4.09,3.64-8.95,4.17-13.8C246.58,78.44,246.67,66.45,246.85,64Z"/><path class="cls-1" d="M242,122.76a248.78,248.78,0,0,0-11.81-55.28,240.45,240.45,0,0,0-13-31c-.57-1.14-1.24-2.48-2.81-1.79s-1,2.11-.56,3.3c.84,2.19,1.77,4.35,2.64,6.54.53,1.32,1,2.66,1.52,4a2.13,2.13,0,0,1-1.05-.42c-3.14-1.78-6.25-3.6-9.44-5.28a2.27,2.27,0,0,0-2.08.16c-.41.37-.38,1.36-.34,2.06a5.56,5.56,0,0,0,.55,1.72c8.4,20.83,12.37,42.61,14,64.9a246.65,246.65,0,0,1,.25,35.65c-.76,11-2,21.93-3.08,32.88-.39,3.83-1.08,7.63-1.63,11.45l.42.11a156.85,156.85,0,0,0,17.86-56.64c0,.54,0,1.08,0,1.61a123.32,123.32,0,0,1-5.43,33.95c-3.71,12.39-9.27,24-15.6,35.21a213,213,0,0,1-33.09,44.62,190.34,190.34,0,0,1-69,45.23,17.86,17.86,0,0,0-2.09.95,5.76,5.76,0,0,0-1.79,9.16,23.3,23.3,0,0,0,2.67,2.68c10,8.7,20.27,16.94,31.76,23.54a110.06,110.06,0,0,0,13.49,6.72c5.43,2.19,9.19,1,13.05-3.44a338.78,338.78,0,0,0,25.72-33.46,300.08,300.08,0,0,0,34.7-69.61A279.27,279.27,0,0,0,240.52,180,242.31,242.31,0,0,0,242,122.76Zm-35,112.05a166.73,166.73,0,0,1-43.26,55.95c-4.67,4-9.53,7.71-14.29,11.57-.95.78-1.8,1-2.67-.09s-.77-1.86.35-2.73c4.08-3.13,8.22-6.21,12.14-9.53,20.31-17.23,37.63-36.93,49.86-60.81.16-.33.35-.65.53-1l.25.11C208.88,230.47,208,232.66,206.94,234.81Z"/><path class="cls-1" d="M263.41,88.82c.15,0,.27-.07.35-.09a.47.47,0,0,0,.17-.06c6.25-5.08,12.51-10.14,18.73-15.26a4.2,4.2,0,0,0,1.15-1.9c1.34-4.34,2.58-8.71,3.95-13a4.23,4.23,0,0,1,1.37-1.57c.63-.56,1.39-1,2-1.56a4.45,4.45,0,0,0,.89-1,5.5,5.5,0,0,0,.87-4,6.05,6.05,0,0,0-2.67-4.13,6.16,6.16,0,0,0-2.48-.93,5.94,5.94,0,0,0-5.41,2.15l-.27.35A5.77,5.77,0,0,0,283.42,56a1.73,1.73,0,0,1,.73,2.42,60.25,60.25,0,0,0-2.21,7.39,12.46,12.46,0,0,1-5.64,8.39c-2,1.35-3.82,3-5.82,4.65-.15-3.87-.12-3.94,2.53-6.21.58-.5,1.14-1,1.76-1.48a3.57,3.57,0,0,0,1.61-3.2c0-1.69.23-3.39.3-5.08A2.79,2.79,0,0,1,278,60.35a3.86,3.86,0,0,0,.6-5.67,4,4,0,0,0-5.6-.48c-1.65,1.35-2.1,4.24-.41,5.53h0c1.71,1.31,1.56,2.73,1.38,4.4a21,21,0,0,0-.17,2.62,3.46,3.46,0,0,1-1.54,3c-4.28,3.44-4.32,3.48-4.51,9-.05,1.88-.57,3.36-2.22,4.21-.14.07-.27.15-.4.23C263,84.6,263.46,86.71,263.41,88.82Z"/><path class="cls-1" d="M275.23,87c.35.3.63.57.93.8a3.86,3.86,0,0,0,5.63-.84,4.12,4.12,0,0,0-1.2-5.75,3.72,3.72,0,0,0-5.47,1.43,8.93,8.93,0,0,1-3.06,3.48C269.71,88,267.45,90,265,91.7c-1.83,1.22-1.73,2.72-1.56,4.72C267.44,93.21,271.29,90.16,275.23,87Z"/><path class="cls-1" d="M275.43,220c-.56-.15-1.33-.51-1.51-1-.71-1.81-1.16-3.65.94-5,1.56-1,1.57-2.22.6-3.83-1.9-3.13-1.8-3.19-5.35-2.36a3.11,3.11,0,0,1-3.67-3.62c.9-3.68.9-3.68-2.47-5.56a3,3,0,0,1-.43-.24,1.74,1.74,0,0,0-2.77.41,13.65,13.65,0,0,1-1.15,1.31c-.16-.81-.31-1.62-.46-2.43a2.73,2.73,0,0,0-2.78-2.07l-2.48.11a1.53,1.53,0,0,0-1.46,1.53v8.26a17.06,17.06,0,0,1,9,3.5,18.63,18.63,0,0,1,7.5,13.9,18.93,18.93,0,0,1-1.8,9.49A18.64,18.64,0,0,1,252.44,243v10c1.71-.43,1.87-1,2.6-3.74a2.32,2.32,0,0,1,.17-.63,1.46,1.46,0,0,1,.54-.56c2.09-1.08,3.08-.85,4.78.91,2.08,2.15,1.25,2.11,4.14.57l0,0c3.73-2.48,3.27-1.33,2.19-5.37a3,3,0,0,1-.13-1.84,3.06,3.06,0,0,1,2.6-2,5.4,5.4,0,0,1,1.78.23c3,.82,2.43,1.12,4-1.64,1.75-3.1,1.71-3.09-.76-5.6a2.71,2.71,0,0,1-.91-1.73c.14-2.57.53-2.95,3-3.68s2.54-.75,2.56-3.27C279.05,220.9,279,220.93,275.43,220Z"/><path class="cls-1" d="M264.21,223.84a12.37,12.37,0,0,0-4-9.32,17.17,17.17,0,0,0-7.74-3.75v27.09a13.72,13.72,0,0,0,11.13-9.4A14.46,14.46,0,0,0,264.21,223.84Z"/><path class="cls-1" d="M252.32,260.61V288C258.4,280.39,258.68,268.44,252.32,260.61Z"/><path class="cls-1" d="M279.29,273.69c-.2,2.28-.28,4.58-.32,6.89,0,1.11-.52,1.49-1.56,1.66-1.88.31-3.74.82-5.63,1.14-.88.15-1.35.46-1.51,1.38a9.73,9.73,0,0,1-.83,2.83c-.86,1.66-.33,2.81.95,3.93a23.28,23.28,0,0,1,1.66,1.77,9.39,9.39,0,0,0,.84.83,2.23,2.23,0,0,1,.42,3.5c-1.38,1.9-2.65,3.89-3.91,5.88a1.27,1.27,0,0,1-1.77.57c-.86-.32-1.73-.63-2.59-.92-1.06-.35-2.12-.68-3.19-.95a3,3,0,0,0-2,.48c-.56.31-.89,1-1.44,1.33-2.27,1.25-2.45,3-1.5,5.19,0,.05,0,.1,0,.16,1.16,4.74,1.16,4.75-3.25,7.08-.47.25-.94.49-1.42.71V297l.48-.45c11.43-11,12.87-27.53,3.42-40.29-1.32-1.78-.45-3.38.21-4.72.42-.82,2.11-1.3,3.26-1.35.66,0,1.49,1,2.05,1.71.94,1.21,1.81,1.19,3,.39,2.09-1.38,4.3-2.6,6.78-4.07l.35.67c1.55,3,3,5.8,4.53,8.69l-1.24,1.08c-1.41,1.23-2.74,2.41-4.13,3.51a1.73,1.73,0,0,0-.66,2.24,6.08,6.08,0,0,1,.47,1.91c.08,2.35,1.12,3.69,3.58,3.89.91.07,1.77.62,2.69.73C278.83,271.16,279.44,272,279.29,273.69Z"/><path class="cls-1" d="M290.46,233.58c-1.75,2-1.51,4.71.62,6.93.41.44.85.82,1.26,1.2l.5.45c2.6,2.4,2.86,4,1.14,7-2.23,4-3.55,4.5-7.81,3.18l-.43-.13c-.37-.12-.72-.22-1.05-.35a6.53,6.53,0,0,0-2.15-.43,5.11,5.11,0,0,0-2,.35c-.69-1.44-1.38-2.88-2.12-4.29a2.82,2.82,0,0,1-.07-2.77c.81-1.73,1.48-3.54,2.34-5.24a1.89,1.89,0,0,0-.37-2.48c-.08-.08-.12-.19-.21-.25-2.62-1.84-1.48-4.21-.88-6.48.07-.29.49-.51.79-.7a3.37,3.37,0,0,1,.78-.24c4.26-1.28,4.27-1.28,4.13-5.8v0a3.26,3.26,0,0,0-2.49-3.06,18.35,18.35,0,0,1-2-.56c-.59-.22-1-.91-1.51-1.4-.07-.07,0-.22-.09-.32-1.13-2.17-.53-3.75,1.29-5.38,2.3-2.06,2.19-1.41.59-4.14-2.73-4.67-1.35-3.92-6.28-2.72-2.08.5-4.81-2.13-4.34-4.25,0-.1.07-.21.09-.31.25-1.38,1.17-3.41.6-4-1.37-1.44-3.44-2.23-5.27-3.22-.2-.11-.68.13-.95.33a16.36,16.36,0,0,0-1.5,1.31c-2.41-11.08-4.05-18.9-4.88-25.84v-.08c-.18-1.71-.33-3.42-.47-5.13a1.09,1.09,0,0,1,0-.18c-.07-.8-.13-1.59-.18-2.39,0,0,0-.07,0-.1-.05-.79-.11-1.57-.15-2.36s-.09-1.53-.13-2.29c0-.13,0-.25,0-.38l-.09-1.93c0-.14,0-.28,0-.42,0-.71-.06-1.41-.08-2.11v-.23c0-.64,0-1.29-.05-1.93,0-.19,0-.38,0-.57l0-2.27c0-.8,0-1.6,0-2.41q0-11.2,1.05-22.43c.12-1.19.24-2.37.37-3.56,0-.47.1-.94.16-1.42,0-.21.05-.41.07-.62l.18-1.46.15-1.15.12-.94.24-1.72c.06-.45.12-.89.19-1.33.11-.72.22-1.43.32-2.15s.28-1.72.43-2.58c.21-1.3.44-2.59.68-3.88l14.27-12.52s2.13,2.68,7.49,1c0,.17,0,.34-.08.51-.2,1.37-.4,2.74-.59,4.12,0,.21-.06.43-.08.64-.06.47-.13,1-.18,1.42-.09.69-.17,1.38-.26,2.07s-.16,1.38-.23,2.07-.15,1.38-.22,2.08c-.05.46-.1.93-.14,1.4s-.08.78-.12,1.18-.05.57-.08.86c-.06.66-.12,1.33-.17,2l0,.33c-.07.85-.14,1.71-.2,2.57a246.65,246.65,0,0,0-.25,35.65c.76,11,2,21.93,3.08,32.88.39,3.83,1.08,7.64,1.63,11.45l-.42.11q-.9-1.65-1.74-3.33-1.28-2.5-2.46-5a158,158,0,0,1-8-21c-.73-2.38-1.39-4.79-2-7.21-.24-1-.47-2-.7-2.92l-.33-1.46c-.21-1-.41-2-.61-2.95-.29-1.48-.57-3-.82-4.45-.17-1-.33-2-.48-3-.07-.5-.15-1-.22-1.5h0c-.09-.62-.17-1.24-.25-1.87s-.15-1.25-.22-1.88v0c0,.26,0,.52,0,.78s0,.53,0,.8a123.32,123.32,0,0,0,5.43,33.95c3.71,12.39,9.27,24,15.6,35.21.31.56.63,1.11.95,1.67l1,1.67.89,1.52.13.22c.32.52.63,1,.94,1.56.5.82,1,1.64,1.51,2.45s1,1.63,1.54,2.43l1,1.52a1.27,1.27,0,0,1,.13.19c.27.41.54.83.82,1.24l1.25,1.86c.71,1.06,1.43,2.1,2.16,3.14l.28.4A5.52,5.52,0,0,0,297,227a42.17,42.17,0,0,0-5.19,5l-.41.47-.11.12Z"/><path class="cls-1" d="M393.83,298.21a5.61,5.61,0,0,0-1.89-1.41l-.41-.18c-6.08-2.25-10.84-3.56-15.7-5.46l-.2.52a39.2,39.2,0,0,1-36.06,24.54c-17.07,0-31.95-11-37.52-27.76-.15-.45-.29-.91-.42-1.37-.2-.69-.37-1.38-.52-2.08s-.29-1.41-.4-2.11-.2-1.42-.26-2.13c0-.24-.05-.48-.07-.72,0-.47-.06-.95-.08-1.43s0-.95,0-1.43v-.66c0-.26,0-.52,0-.77l0-.55c0-.22,0-.44,0-.66a3,3,0,0,1,0-.42l0-.42c0-.16,0-.32.05-.48s0-.44.07-.66c.07-.62.17-1.25.27-1.87,0-.15.05-.3.08-.45.05-.32.12-.63.18-.94s.09-.44.14-.65l.15-.65c0-.19.09-.39.14-.58s.12-.47.19-.7c.11-.41.23-.82.35-1.23l0-.07c.12-.41.26-.82.4-1.23s.3-.83.46-1.24c.07-.19.14-.39.22-.58l0-.07.24-.58c.4-1,.84-1.89,1.31-2.8l0,0a.25.25,0,0,1,0-.07c.09-.18.28-.55.55-1,.06-.12.13-.25.21-.38l.24-.41c.19-.32.38-.65.59-1s.49-.77.75-1.15.39-.57.6-.85l.58-.78,0,0,.29-.37a34.4,34.4,0,0,1,3.13-3.47c.12-.12.24-.24.37-.35l.49-.46c.12-.12.26-.23.39-.35l.61-.52.44-.37c.38-.3.75-.59,1.14-.87l.93-.77a204.46,204.46,0,0,1-14.57-17.91,3.12,3.12,0,0,0-3.48.64,39.32,39.32,0,0,0-5,4.85l-.5.57c-.26.29-.51.59-.77.89-1.27,1.49-.76,3.15.55,4.51.52.55,1.11,1.05,1.67,1.57,3.24,3,3.64,5.45,1.5,9.26-2.66,4.71-4.83,5.59-9.92,4-.54-.17-1.08-.31-1.6-.51a4.42,4.42,0,0,0-1.53-.32,3.06,3.06,0,0,0-2,.64,3.17,3.17,0,0,0-1,1.44,50.32,50.32,0,0,0-2.37,9c-.31,1.75.86,3,2.68,3.43.83.2,1.65.43,2.46.66.53.14,1.05.3,1.57.45a4.64,4.64,0,0,1,3.63,3.65,23.87,23.87,0,0,1,.2,6.37c-.31,2.6-2.05,4.17-4.65,4.72-1.22.26-2.46.49-3.66.82l-.53.17a4.33,4.33,0,0,0-.95.53l0,0a3.36,3.36,0,0,0-.47.45h0a3.16,3.16,0,0,0-.64,2.54,34.68,34.68,0,0,0,1.38,6.91c.67,1.91,1.32,3,2.24,3.53s2.42.37,4.59-.32a19.84,19.84,0,0,1,2.62-.7,4.69,4.69,0,0,1,4.75,1.49,25.56,25.56,0,0,1,3.28,5.5A5.28,5.28,0,0,1,294,310.8c-.82.75-1.7,1.45-2.5,2.21-.2.19-.38.38-.54.56-1.22,1.4-1.32,2.7-.19,4.46a24,24,0,0,0,3.42,4.18c2,2,3.43,3,4.8,2.92s2.64-1.14,4.52-3.21c1.35-1.49,2.9-2.65,5.05-2.51,6.35.41,9.77,5.35,7.89,11.4a9.19,9.19,0,0,0-.57,3.53h0c.18,1.67,1.43,2.54,4.16,3.45.6.19,1.21.34,1.81.51,3.59,1.05,5.47,1.39,6.72.47,1-.75,1.61-2.36,2.36-5.12l0-.12c1.14-4.08,3.09-5.34,8.08-5.27,4.2.06,6.21,1.59,7.21,5.54.22.88.33,1.78.54,2.66a7.21,7.21,0,0,0,.43,1.29l.12.23c.65,1.2,1.69,1.69,3.42,1.56a25.83,25.83,0,0,0,5.32-.89c2.72-.79,4.24-1.52,4.86-2.72s.4-2.58-.27-4.87c-.07-.22-.14-.44-.21-.68a3.9,3.9,0,0,1-.35-1.2c0-1.23-.16-2.61.31-3.66a8.44,8.44,0,0,1,13-3,8.2,8.2,0,0,1,.89.88c.36.42.71.86,1.09,1.26,1.07,1.14,2,1.74,3.07,1.67a3.87,3.87,0,0,0,2.05-.93,48.69,48.69,0,0,0,6.21-6.06,3.16,3.16,0,0,0,.83-1.73,3.71,3.71,0,0,0-1.18-3c-.42-.45-.87-.88-1.32-1.3s-1-1-1.51-1.46a5.25,5.25,0,0,1-1.38-5.76,18.63,18.63,0,0,1,2.3-4.4c1.89-2.63,4-3.22,7.12-2.34l2.61.77.56.14.21.05A5.86,5.86,0,0,0,393.83,298.21Z"/><path class="cls-1" d="M367.41,287a29.68,29.68,0,1,1-44.94-34.49C339.72,270.21,355.66,280.8,367.41,287Z"/><path class="cls-2" d="M251.4,50.65V49.27c.06-.38.41-.38.71-.37.77,0,.74-.33.66-.91-.61-4.29-1.15-8.59-1.74-12.88-.07-.61-.19-1.21-.29-1.8h-.65c-.09.59-.21,1.19-.29,1.8-.59,4.29-1.13,8.59-1.74,12.88-.08.58-.11.91.66.91.3,0,.65,0,.71.37v1.38a7.38,7.38,0,1,0,2,0Zm-1,11.84A4.54,4.54,0,1,1,255,58,4.54,4.54,0,0,1,250.42,62.49Z"/><path class="cls-1" d="M86.54,397.8h-6L79.32,389H72.87L71.6,397.8H65.76l6.67-38.6h7.44ZM76,367.48l-2.37,16.26h4.91l-2.37-16.26Z"/><path class="cls-1" d="M94.26,392.29H104v5.51H88.42V359.2h5.84Z"/><path class="cls-1" d="M120.62,361.08a9.25,9.25,0,0,1,2.43,6.84v2.64l-5.62.28v-2.32c0-3-1.15-4.46-3.42-4.46a3.22,3.22,0,0,0-2.57,1,4.37,4.37,0,0,0-.85,2.92V389q0,3.91,3.36,3.91a3,3,0,0,0,2.54-1.07,5.6,5.6,0,0,0,.82-3.39v-6.62H114v-5.41h9v12.63a8.44,8.44,0,0,1-9.21,9.27,9,9,0,0,1-6.73-2.43,9.39,9.39,0,0,1-2.37-6.84V367.92a9.39,9.39,0,0,1,2.37-6.84,9,9,0,0,1,6.73-2.43A9.16,9.16,0,0,1,120.62,361.08Z"/><path class="cls-1" d="M142.68,364.61H132.09v10.92h8.55v5.4h-8.55V392.4h10.59v5.4H126.25V359.2h16.43Z"/><path class="cls-1" d="M158.51,397.8l-4.64-16.32h-2.7V397.8h-5.84V359.2h8.43c3.17,0,5.57.84,7.23,2.51s2.48,4.09,2.48,7.26v2.75q0,6.12-4.14,8.49l5.35,17.59Zm-7.34-33.19v11.47h2.37a3.85,3.85,0,0,0,3.09-1.16,5.43,5.43,0,0,0,1-3.58v-2a5.41,5.41,0,0,0-1-3.58,3.82,3.82,0,0,0-3.09-1.16Z"/><path class="cls-1" d="M172.46,397.8h-5.85V359.2h5.85Z"/><path class="cls-1" d="M195.12,397.8h-6L187.9,389h-6.45l-1.27,8.76h-5.85L181,359.2h7.45Zm-10.53-30.32-2.37,16.26h4.91l-2.38-16.26Z"/><path class="cls-1" d="M216,397.8h-5.73l-7.67-25.58h-.11V397.8H197V359.2h6.5l6.9,23h.11v-23H216Z"/><path class="cls-1" d="M244.58,364.61H234v10.92h8.54v5.4H234V392.4h10.58v5.4H228.15V359.2h16.43Z"/><path class="cls-1" d="M266.26,397.8h-5.74l-7.66-25.58h-.11V397.8h-5.52V359.2h6.51l6.89,23h.11v-23h5.52Z"/><path class="cls-1" d="M285.5,361.08a9.25,9.25,0,0,1,2.43,6.84v2.64l-5.63.28v-2.32q0-4.45-3.42-4.46a3.19,3.19,0,0,0-2.56,1,4.37,4.37,0,0,0-.86,2.92V389c0,2.61,1.13,3.91,3.37,3.91a3,3,0,0,0,2.53-1.07,5.53,5.53,0,0,0,.83-3.39v-6.62h-3.31v-5.41h9.05v12.63a8.44,8.44,0,0,1-9.21,9.27,9,9,0,0,1-6.73-2.43,9.39,9.39,0,0,1-2.37-6.84V367.92a9.39,9.39,0,0,1,2.37-6.84,9,9,0,0,1,6.73-2.43A9.16,9.16,0,0,1,285.5,361.08Z"/><path class="cls-1" d="M297,397.8h-5.85V359.2H297Z"/><path class="cls-1" d="M320,397.8h-5.73l-7.67-25.58h-.11V397.8h-5.51V359.2h6.51l6.89,23h.11v-23H320Z"/><path class="cls-1" d="M340.37,364.61H329.78v10.92h8.55v5.4h-8.55V392.4h10.59v5.4H323.93V359.2h16.44Z"/><path class="cls-1" d="M359.45,364.61H348.86v10.92h8.55v5.4h-8.55V392.4h10.59v5.4H343V359.2h16.44Z"/><path class="cls-1" d="M375.27,397.8l-4.63-16.32h-2.7V397.8h-5.85V359.2h8.44q4.74,0,7.22,2.51c1.66,1.68,2.49,4.09,2.49,7.26v2.75q0,6.12-4.14,8.49l5.35,17.59Zm-7.33-33.19v11.47h2.37a3.85,3.85,0,0,0,3.09-1.16,5.43,5.43,0,0,0,1-3.58v-2a5.41,5.41,0,0,0-1-3.58,3.82,3.82,0,0,0-3.09-1.16Z"/><path class="cls-1" d="M389.22,397.8h-5.84V359.2h5.84Z"/><path class="cls-1" d="M412.22,397.8h-5.74l-7.66-25.58h-.11V397.8h-5.52V359.2h6.51l6.89,23h.11v-23h5.52Z"/><path class="cls-1" d="M431.46,361.08a9.25,9.25,0,0,1,2.43,6.84v2.64l-5.62.28v-2.32q0-4.45-3.42-4.46a3.22,3.22,0,0,0-2.57,1,4.37,4.37,0,0,0-.85,2.92V389q0,3.91,3.36,3.91a3,3,0,0,0,2.54-1.07,5.6,5.6,0,0,0,.82-3.39v-6.62h-3.3v-5.41h9v12.63a9.25,9.25,0,0,1-2.43,6.84,9.15,9.15,0,0,1-6.78,2.43,9,9,0,0,1-6.73-2.43,9.39,9.39,0,0,1-2.37-6.84V367.92a9.39,9.39,0,0,1,2.37-6.84,9,9,0,0,1,6.73-2.43A9.15,9.15,0,0,1,431.46,361.08Z"/><g class="cls-3"><path class="cls-1" d="M99.81,436.94c0,1.35.07,3.45,0,4.72C95.53,448.18,88.34,451,81.29,451,71,451,65.7,444.58,65.7,434.17c0-9.37,3.9-19.72,11.17-26.24a22.61,22.61,0,0,1,15.44-5.77c4.72,0,8.47,1.8,10.12,4l2.62-3.82,2,.6a119.48,119.48,0,0,0-4.88,16H100c.52-3.6.37-7.87-.83-10.27A6.22,6.22,0,0,0,93.06,405c-3.15,0-6.52,1.5-9.44,5.1-5.48,6.89-8.17,16.56-8.17,25.48,0,3.67,1,7.12,2.09,8.69a7.9,7.9,0,0,0,6.53,3.38c6.82,0,10.86-3.75,14.09-10.72Z"/><path class="cls-1" d="M126,416.7c7.34,0,11.24,4.12,11.24,11.47,0,7.2-3.75,15.81-9.82,19.86A18,18,0,0,1,117.19,451c-5.09,0-11.39-1.8-11.39-11.32,0-7.12,3.82-15.14,9.52-19.42a17.75,17.75,0,0,1,10.57-3.52Zm-.3,2.63c-1.88,0-3.83,1.05-5.85,3.89-3.15,4.65-6.07,13.94-6.07,19.49,0,4.27,1.87,5.62,3.9,5.62,1.72,0,3.37-1,4.94-3,3.45-4.42,6.75-15.21,6.67-20.76,0-2.77-1-5.24-3.52-5.24Z"/><path class="cls-1" d="M196.42,441.59c-3.15,6.37-8.25,9.37-13,9.37-5.17,0-5.09-4.28-3.14-9.6s4.42-11.62,6.07-16c.82-2.25.37-4-1.2-4-5.55,0-11.92,11.69-14.47,18.89-.9,2.55-2.17,5.47-3.45,9.74-3.14.08-6.44.45-8.47.68,2.78-7.57,7.28-21.89,8.32-25.79.45-1.87.3-3.52-1.42-3.52-3.75,0-10.12,7.72-13.94,18.21a108.46,108.46,0,0,0-3.67,10.5c-3,.07-6.22.37-8.4.6,3.75-10.35,7.57-23.24,8.47-28,.23-1.2-.15-1.5-1-1.5h-4.19l.89-2.54c3.53-.38,9.67-.9,13.5-1.88-.68,2.63-2,8.1-3.15,11.54,3.75-5.39,9.14-11.54,16.19-11.54,4.79,0,5.47,3.75,4.19,8-.3,1.13-.52,1.95-1,3.22,3.9-5.47,9.44-11.24,16.49-11.24a5.31,5.31,0,0,1,4,1.5c1.88,2,.83,6.15,0,8.4-2.1,5.92-5.54,15-6.52,18.06-.3,1-.22,1.8.45,1.8,1.8,0,5-3.15,6.9-6.67Z"/><path class="cls-1" d="M208.41,420.15c.75-2.32,1.57-5.4,1.87-6.6a50.2,50.2,0,0,0,7.87-1.94l.3.37c-1.27,4-3,9.82-4.42,14.32,3.3-4.43,8.09-9.6,14.24-9.6,4.79,0,7.12,4.12,7.12,8.7,0,9.14-5.4,20-13.72,23.91a16.67,16.67,0,0,1-7,1.65c-2.4,0-5.1-.75-6.45-2.25-1.72,6.14-2.7,10-3.15,12.36-.37,1.5-.07,2,1.35,2.18l4.57.45-.67,2.47h-8.92c-3.6,0-7.87.15-11.84.52l.82-2.54,3.08-.45a3.18,3.18,0,0,0,2.92-2.33c3.37-9.59,7.64-24.81,10.57-35.22a26.64,26.64,0,0,1-5.85,2.92c-.3-.75-.6-1.57-.9-2.17A22.3,22.3,0,0,0,208.41,420.15Zm15.81,1c-3.15,0-7.42,5-10.19,10.8-1.8,3.15-4.05,8.92-4.05,11.76,0,3,1.8,4.35,4,4.35,1.8,0,4.05-1,6-3.6a34.77,34.77,0,0,0,6.82-19.18c0-2.25-.83-4.13-2.47-4.13Z"/><path class="cls-1" d="M265.74,442.26A19.55,19.55,0,0,1,249.4,451c-6.29,0-9.67-4-9.67-10.5,0-7.19,3.53-15.59,9.9-20.38a16.8,16.8,0,0,1,10-3.38c6.07,0,8.62,3.45,8.62,7.87,0,3.53-2.55,5.62-4.87,6.67C260,433,252.55,434.62,249,435.07a23.86,23.86,0,0,0-.6,5.17c0,3.89,1.28,6.82,4.88,6.82,4,0,8.17-2.7,10.86-8.85h1.28Zm-7.19-22.93c-1.88,0-6.07,2.24-9.15,13a37.2,37.2,0,0,0,8-2.25,7.47,7.47,0,0,0,4-7c0-2.33-.9-3.67-2.62-3.67Z"/><path class="cls-1" d="M290.48,442.56a15.13,15.13,0,0,1-13.05,8.4c-6.37,0-6.67-3.68-5.09-9l6.14-20.76-5-.45,1.28-2.77h4.72c1.12-3.68,2-6.67,2.55-8.92a56.94,56.94,0,0,0,9.29-1.65c-.67,1.5-2.32,6.44-3.6,10.57h7.57L294,420.75l-7.2.45c-1.35,3.9-5.69,18.81-6.82,23.53-.37,1.73-.15,2.55,1.2,2.55,2.78,0,6.67-4.34,8.1-7.79Z"/><path class="cls-1" d="M297.9,418.5c4.42-.37,10.56-.9,14.16-1.8l.23.3c-2.1,4.95-7.2,21.29-8.85,27.73-.22,1-.22,1.8.53,1.8,1.72,0,5.09-3.29,6.89-6.74l1.65,1.8c-3.37,6.44-8.17,9.37-13,9.37S294.3,447.51,296,442c1.73-5.7,4.65-14.39,6.07-19.57.3-1.05.08-1.35-.67-1.35-.9,0-3.15-.07-4.5,0Zm12.29-16.26c2.55,0,3.9,1.8,3.75,4.49a5.29,5.29,0,0,1-5.33,5.33,3.79,3.79,0,0,1-3.82-4.35,5.36,5.36,0,0,1,5.32-5.47Z"/><path class="cls-1" d="M335.22,442.56a15.1,15.1,0,0,1-13,8.4c-6.37,0-6.67-3.68-5.1-9,1.95-6.59,4.72-16,6.15-20.76l-5-.45,1.27-2.77h4.72c1.13-3.68,1.95-6.67,2.55-8.92a56.88,56.88,0,0,0,9.3-1.65c-.68,1.5-2.33,6.44-3.6,10.57H340l-1.28,2.77-7.19.45c-1.35,3.9-5.7,18.81-6.82,23.53-.38,1.73-.15,2.55,1.2,2.55,2.77,0,6.67-4.34,8.09-7.79Z"/><path class="cls-1" d="M342.64,418.5c4.42-.37,10.57-.9,14.17-1.8l.22.3c-2.1,4.95-7.19,21.29-8.84,27.73-.23,1-.23,1.8.52,1.8,1.73,0,5.1-3.29,6.9-6.74l1.65,1.8c-3.38,6.44-8.17,9.37-13,9.37s-5.25-3.45-3.52-8.92c1.72-5.7,4.64-14.39,6.07-19.57.3-1.05.07-1.35-.68-1.35-.9,0-3.14-.07-4.49,0Zm12.29-16.26c2.55,0,3.9,1.8,3.75,4.49a5.29,5.29,0,0,1-5.32,5.33c-2.18,0-4-1.58-3.82-4.35a5.36,5.36,0,0,1,5.32-5.47Z"/><path class="cls-1" d="M381.17,416.7c7.34,0,11.24,4.12,11.24,11.47,0,7.2-3.75,15.81-9.82,19.86A18,18,0,0,1,372.32,451c-5.1,0-11.39-1.8-11.39-11.32,0-7.12,3.82-15.14,9.52-19.42A17.73,17.73,0,0,1,381,416.7Zm-.3,2.63c-1.88,0-3.83,1.05-5.85,3.89-3.15,4.65-6.07,13.94-6.07,19.49,0,4.27,1.87,5.62,3.9,5.62,1.72,0,3.37-1,4.94-3,3.45-4.42,6.75-15.21,6.67-20.76,0-2.77-1-5.24-3.52-5.24Z"/><path class="cls-1" d="M432.43,441.59c-3.22,6.37-8.32,9.37-13,9.37-5,0-5.1-4-3.15-9.6,1.87-5.25,4.57-12.44,6-16.56.75-1.95.3-3.45-1.35-3.45-5.32,0-11.47,10.64-14.17,18.14A105.1,105.1,0,0,0,403.13,450c-3.23.08-6.15.45-8.4.68,3.3-9.15,7.57-23.54,8.32-28.19.15-1,.08-1.35-.6-1.35l-4.42.08.9-2.62A77.71,77.71,0,0,0,412,416.7c-.75,3.3-1.87,7.72-3,11.69,3.89-5.92,9.36-11.69,16.41-11.69a5.51,5.51,0,0,1,3.67,1.2c2.1,1.65,1.65,5.85.45,9.3-1.8,5.17-4.49,11.84-6.14,17.53-.3.9-.08,1.73.52,1.73,1.8,0,4.87-3.08,6.82-6.75Z"/></g><path class="cls-1" d="M101.67,434.83c0,1.35.08,3.45,0,4.73-4.27,6.52-11.47,9.36-18.51,9.36-10.34,0-15.59-6.44-15.59-16.86,0-9.37,3.9-19.71,11.17-26.23a22.54,22.54,0,0,1,15.44-5.77c4.72,0,8.47,1.8,10.12,4l2.62-3.82,2,.6a122,122,0,0,0-4.87,16h-2.25c.53-3.6.38-7.87-.82-10.27a6.24,6.24,0,0,0-6.07-3.75c-3.15,0-6.52,1.5-9.45,5.1-5.47,6.9-8.17,16.57-8.17,25.48,0,3.68,1,7.13,2.1,8.7a7.9,7.9,0,0,0,6.52,3.37c6.82,0,10.87-3.75,14.09-10.72Z"/><path class="cls-1" d="M127.9,414.6c7.35,0,11.25,4.12,11.25,11.46s-3.75,15.82-9.82,19.87a18,18,0,0,1-10.27,2.92c-5.1,0-11.39-1.8-11.39-11.32,0-7.12,3.82-15.14,9.52-19.41a17.72,17.72,0,0,1,10.56-3.52Zm-.3,2.62c-1.87,0-3.82,1-5.84,3.9-3.15,4.64-6.07,13.94-6.07,19.49,0,4.27,1.87,5.62,3.89,5.62,1.73,0,3.38-1,5-3,3.45-4.42,6.75-15.22,6.67-20.76,0-2.78-1-5.25-3.52-5.25Z"/><path class="cls-1" d="M198.28,439.48c-3.15,6.37-8.24,9.37-13,9.37-5.17,0-5.1-4.27-3.15-9.59s4.43-11.62,6.07-16c.83-2.25.38-4-1.2-4-5.54,0-11.91,11.7-14.46,18.89-.9,2.55-2.17,5.47-3.45,9.75-3.15.07-6.44.45-8.47.67,2.78-7.57,7.27-21.89,8.32-25.78.45-1.88.3-3.53-1.42-3.53-3.75,0-10.12,7.72-13.94,18.22A106.89,106.89,0,0,0,149.86,448c-3,.08-6.22.38-8.39.6,3.75-10.34,7.57-23.24,8.47-28,.22-1.2-.15-1.5-1.05-1.5h-4.2l.9-2.55c3.52-.37,9.67-.9,13.49-1.87-.67,2.62-2,8.09-3.14,11.54,3.74-5.4,9.14-11.54,16.18-11.54,4.8,0,5.48,3.74,4.2,8-.3,1.12-.52,1.95-1,3.22,3.89-5.47,9.44-11.24,16.49-11.24a5.31,5.31,0,0,1,4,1.5c1.87,2,.82,6.14,0,8.39-2.1,5.92-5.55,15-6.52,18.06-.3,1-.23,1.8.45,1.8,1.8,0,5-3.15,6.89-6.67Z"/><path class="cls-1" d="M210.27,418c.75-2.32,1.58-5.39,1.88-6.59A50.52,50.52,0,0,0,220,409.5l.3.38c-1.28,4-3,9.81-4.43,14.31,3.3-4.42,8.1-9.59,14.24-9.59,4.8,0,7.13,4.12,7.13,8.69,0,9.15-5.4,20-13.72,23.91a16.53,16.53,0,0,1-7,1.65c-2.39,0-5.09-.75-6.44-2.25-1.73,6.15-2.7,10-3.15,12.37-.37,1.5-.07,2,1.35,2.17l4.57.45-.67,2.47h-8.92c-3.6,0-7.87.15-11.84.53l.82-2.55,3.07-.45c1.5-.3,2.33-.67,2.93-2.32,3.37-9.6,7.64-24.81,10.56-35.23a26,26,0,0,1-5.84,2.92c-.3-.75-.6-1.57-.9-2.17A22.07,22.07,0,0,0,210.27,418Zm15.82,1c-3.15,0-7.42,5-10.2,10.79-1.79,3.15-4,8.92-4,11.77,0,3,1.8,4.35,4,4.35,1.8,0,4.05-1.05,6-3.6,3.67-4.5,6.82-12.89,6.82-19.19,0-2.25-.83-4.12-2.48-4.12Z"/><path class="cls-1" d="M267.61,440.16a19.56,19.56,0,0,1-16.34,8.69c-6.3,0-9.67-4-9.67-10.49,0-7.2,3.52-15.59,9.9-20.39a16.86,16.86,0,0,1,10-3.37c6.07,0,8.62,3.44,8.62,7.87,0,3.52-2.55,5.62-4.87,6.67-3.45,1.72-10.87,3.37-14.47,3.82a23.86,23.86,0,0,0-.6,5.17c0,3.9,1.28,6.82,4.87,6.82,4,0,8.17-2.7,10.87-8.84h1.28Zm-7.2-22.94c-1.87,0-6.07,2.25-9.14,13a37.79,37.79,0,0,0,8-2.25,7.48,7.48,0,0,0,4-7.05c0-2.32-.9-3.67-2.63-3.67Z"/><path class="cls-1" d="M292.34,440.46a15.09,15.09,0,0,1-13,8.39c-6.37,0-6.67-3.67-5.1-9,1.95-6.6,4.73-16,6.15-20.77l-5-.45,1.27-2.77h4.73c1.12-3.67,1.94-6.67,2.54-8.92a55.83,55.83,0,0,0,9.3-1.65c-.68,1.5-2.33,6.45-3.6,10.57h7.57l-1.27,2.77-7.2.45c-1.35,3.9-5.7,18.82-6.82,23.54-.37,1.72-.15,2.55,1.2,2.55,2.77,0,6.67-4.35,8.09-7.8Z"/><path class="cls-1" d="M299.76,416.4c4.43-.38,10.57-.9,14.17-1.8l.22.3c-2.1,4.94-7.19,21.28-8.84,27.73-.23,1-.23,1.8.52,1.8,1.73,0,5.1-3.3,6.9-6.75l1.65,1.8c-3.37,6.45-8.17,9.37-13,9.37s-5.24-3.45-3.52-8.92c1.72-5.7,4.65-14.39,6.07-19.56.3-1.05.08-1.35-.67-1.35-.9,0-3.15-.08-4.5,0Zm12.29-16.27c2.55,0,3.9,1.8,3.75,4.5a5.28,5.28,0,0,1-5.32,5.32c-2.17,0-4-1.57-3.82-4.35a5.36,5.36,0,0,1,5.32-5.47Z"/><path class="cls-1" d="M337.09,440.46a15.11,15.11,0,0,1-13,8.39c-6.37,0-6.67-3.67-5.1-9,1.95-6.6,4.72-16,6.15-20.77l-5-.45,1.28-2.77h4.72c1.12-3.67,1.95-6.67,2.55-8.92a55.69,55.69,0,0,0,9.29-1.65c-.67,1.5-2.32,6.45-3.6,10.57h7.57l-1.27,2.77-7.19.45c-1.35,3.9-5.7,18.82-6.83,23.54-.37,1.72-.14,2.55,1.2,2.55,2.78,0,6.67-4.35,8.1-7.8Z"/><path class="cls-1" d="M344.51,416.4c4.42-.38,10.57-.9,14.16-1.8l.23.3c-2.1,4.94-7.2,21.28-8.85,27.73-.22,1-.22,1.8.53,1.8,1.72,0,5.1-3.3,6.89-6.75l1.65,1.8c-3.37,6.45-8.17,9.37-13,9.37s-5.25-3.45-3.53-8.92c1.73-5.7,4.65-14.39,6.07-19.56.3-1.05.08-1.35-.67-1.35s-3.15-.08-4.5,0Zm12.29-16.27c2.55,0,3.9,1.8,3.75,4.5a5.28,5.28,0,0,1-5.32,5.32c-2.18,0-4-1.57-3.83-4.35a5.37,5.37,0,0,1,5.32-5.47Z"/><path class="cls-1" d="M383,414.6c7.35,0,11.24,4.12,11.24,11.46s-3.74,15.82-9.81,19.87a18,18,0,0,1-10.27,2.92c-5.1,0-11.39-1.8-11.39-11.32,0-7.12,3.82-15.14,9.51-19.41a17.75,17.75,0,0,1,10.57-3.52Zm-.3,2.62c-1.87,0-3.82,1-5.84,3.9-3.15,4.64-6.08,13.94-6.08,19.49,0,4.27,1.88,5.62,3.9,5.62,1.73,0,3.38-1,5-3,3.45-4.42,6.74-15.22,6.67-20.76,0-2.78-1-5.25-3.52-5.25Z"/><path class="cls-1" d="M434.3,439.48c-3.23,6.37-8.32,9.37-13,9.37-5,0-5.1-4.05-3.15-9.59,1.87-5.25,4.57-12.45,6-16.57.75-1.95.3-3.45-1.34-3.45-5.33,0-11.47,10.65-14.17,18.14a108.63,108.63,0,0,0-3.6,10.5c-3.22.07-6.14.45-8.39.67,3.3-9.14,7.57-23.53,8.32-28.18.15-1,.07-1.35-.6-1.35l-4.42.07.89-2.62a77.81,77.81,0,0,0,13.12-1.87c-.75,3.29-1.87,7.72-3,11.69,3.9-5.92,9.37-11.69,16.42-11.69a5.46,5.46,0,0,1,3.67,1.2c2.1,1.65,1.65,5.84.45,9.29-1.8,5.17-4.5,11.84-6.15,17.54-.3.9-.07,1.72.53,1.72,1.8,0,4.87-3.07,6.82-6.74Z"/></g></svg>