<?xml version="1.0" encoding="UTF-8"?>
<svg id="Layer_2" data-name="Layer 2" xmlns="http://www.w3.org/2000/svg" xmlns:xlink="http://www.w3.org/1999/xlink" viewBox="0 0 984.27 481.58">
  <defs>
    <style>
      .cls-1 {
        fill: #77c6e5;
      }

      .cls-1, .cls-2, .cls-3, .cls-4, .cls-5, .cls-6, .cls-7, .cls-8, .cls-9, .cls-10, .cls-11, .cls-12 {
        stroke: #fff;
        stroke-linecap: round;
        stroke-linejoin: round;
      }

      .cls-2 {
        fill: url(#linear-gradient-9);
        fill-rule: evenodd;
      }

      .cls-3 {
        fill: url(#linear-gradient-5);
      }

      .cls-4 {
        fill: url(#linear-gradient-6);
      }

      .cls-5 {
        fill: url(#linear-gradient-4);
      }

      .cls-6 {
        fill: url(#linear-gradient);
      }

      .cls-7 {
        fill: url(#linear-gradient-3);
      }

      .cls-8 {
        fill: url(#linear-gradient-8);
      }

      .cls-9 {
        fill: url(#linear-gradient-7);
      }

      .cls-10 {
        fill: #346d9b;
      }

      .cls-11 {
        fill: #aeddf0;
      }

      .cls-12 {
        fill: url(#linear-gradient-2);
      }
    </style>
    <linearGradient id="linear-gradient" x1="277.77" y1="34.99" x2="264.81" y2="84.08" gradientUnits="userSpaceOnUse">
      <stop offset="0" stop-color="#77c6e5"/>
      <stop offset="1" stop-color="#aeddf0"/>
    </linearGradient>
    <linearGradient id="linear-gradient-2" x1="278.01" y1="35.06" x2="265.04" y2="84.14" xlink:href="#linear-gradient"/>
    <linearGradient id="linear-gradient-3" x1="270.99" y1="337.28" x2="214.73" y2="267.82" xlink:href="#linear-gradient"/>
    <linearGradient id="linear-gradient-4" x1="267.83" y1="339.85" x2="211.56" y2="270.39" xlink:href="#linear-gradient"/>
    <linearGradient id="linear-gradient-5" x1="274.54" y1="444.24" x2="225.23" y2="368.53" xlink:href="#linear-gradient"/>
    <linearGradient id="linear-gradient-6" x1="279.04" y1="441.31" x2="229.72" y2="365.6" xlink:href="#linear-gradient"/>
    <linearGradient id="linear-gradient-7" x1="418.02" y1="471.83" x2="295.77" y2="365.56" xlink:href="#linear-gradient"/>
    <linearGradient id="linear-gradient-8" x1="431.14" y1="456.74" x2="308.89" y2="350.46" gradientUnits="userSpaceOnUse">
      <stop offset="0" stop-color="#77c6e5"/>
      <stop offset="1" stop-color="#aeddf0"/>
    </linearGradient>
    <linearGradient id="linear-gradient-9" x1="228.52" y1="7.07" x2="228.52" y2="50.6" xlink:href="#linear-gradient"/>
  </defs>
  <g id="Layer_1-2" data-name="Layer 1">
    <path class="cls-10" d="M241.69,99.6c.18-.82,.1-1.99-.37-2.61-4.86-6.42-5.7-14.04-6.53-21.65-.45-4.09-.63-22.51-.92-26.87l-2.36,.04V253.5c.64-.38,1.38-.61,2.18-.65l3.89-.18c1.31-.06,2.55,.27,3.61,.89-5.36-30.36-8.09-60.93-6.8-91.86,.87-20.87,2.96-41.62,7.3-62.1Z"/>
    <path class="cls-10" d="M222.93,48.57h2.54V446.41c-3.25-.76-6.19-2.97-9.21-6.77-3.57-4.48-6.3-9.62-9.62-14.31-7.68-10.86-15.37-21.71-23.31-32.38-3.76-5.05-5.03-9.99-2.58-16.05,14.16-35.03,24.45-71.21,32.01-108.2,7.23-35.32,11.18-70.92,9.69-106.99-.87-20.87-2.96-41.62-7.3-62.1-.18-.82-.1-1.99,.37-2.61,4.86-6.42,5.7-14.04,6.53-21.65,.45-4.09,.58-22.88,.87-26.79Z"/>
    <path class="cls-10" d="M215.26,140.75c-2.81-29.62-9.12-58.46-18.52-86.66-5.57-16.72-12.45-32.89-20.3-48.65-.89-1.79-1.93-3.9-4.4-2.81-2.48,1.1-1.59,3.31-.88,5.16,1.32,3.44,2.78,6.83,4.15,10.26,.83,2.07,1.59,4.17,2.38,6.26-.83-.07-1.21-.4-1.65-.65-4.92-2.8-9.8-5.65-14.8-8.28-.86-.45-2.6-.35-3.26,.25-.65,.58-.59,2.13-.53,3.23,.05,.91,.51,1.81,.86,2.68,13.18,32.66,19.4,66.82,22.03,101.76,1.4,18.62,1.68,37.28,.39,55.89-1.19,17.21-3.09,34.38-4.84,51.55-.61,6.01-1.69,11.97-2.56,17.96,.22,.06,.44,.12,.67,.18,14.91-27.8,24.37-57.33,28-88.81,0,.84,.01,1.68,0,2.52-.24,18.16-3.32,35.87-8.52,53.23-5.82,19.43-14.53,37.57-24.45,55.2-14.37,25.51-31.45,49.03-51.88,69.96-30.8,31.53-66.9,55.17-108.11,70.93-1.12,.43-2.23,.9-3.28,1.48-5.68,3.12-6.92,9.36-2.8,14.37,1.24,1.52,2.69,2.9,4.18,4.2,15.61,13.64,31.78,26.55,49.79,36.91,6.82,3.92,13.87,7.59,21.16,10.53,8.52,3.44,14.4,1.57,20.46-5.39,14.51-16.66,27.98-34.12,40.33-52.46,22.9-34.02,40.97-70.42,54.4-109.14,9.25-26.67,15.77-54,19.76-81.96,4.25-29.83,5.09-59.69,2.25-89.69Zm-54.9,175.68c-16.2,34.2-39.09,63.24-67.83,87.72-7.31,6.23-14.94,12.09-22.4,18.15-1.5,1.22-2.83,1.49-4.2-.14-1.39-1.66-1.21-2.92,.56-4.28,6.39-4.91,12.88-9.74,19.02-14.95,31.85-27.01,59-57.9,78.17-95.33,.26-.52,.56-1.03,.84-1.54,.13,.06,.26,.12,.39,.18-1.52,3.4-2.97,6.84-4.56,10.2Z"/>
    <g>
      <path class="cls-6" d="M248.89,87.53c.25-.07,.42-.1,.55-.13,.13-.03,.21-.05,.27-.1,9.8-7.95,19.62-15.9,29.37-23.92,.85-.7,1.47-1.89,1.8-2.98,2.11-6.8,4.05-13.65,6.19-20.44,.3-.96,1.34-1.74,2.16-2.47,.99-.88,2.18-1.59,3.19-2.44,.54-.44,1.02-.92,1.4-1.48,1.28-1.89,1.69-4.1,1.37-6.2-.39-2.55-1.87-4.95-4.19-6.47-1.22-.79-2.54-1.27-3.89-1.46-3.14-.43-6.36,.77-8.49,3.38-.14,.18-.28,.36-.42,.55-2.95,4.15-2.16,9.88,2.06,12.79,1.68,1.15,1.71,2.13,1.16,3.79-1.27,3.82-2.7,7.64-3.47,11.58-1.12,5.74-4.03,9.95-8.85,13.17-3.17,2.12-5.99,4.75-9.12,7.28-.23-6.06-.18-6.17,3.97-9.74,.91-.78,1.79-1.62,2.77-2.31,1.76-1.24,2.52-2.83,2.52-5.02,0-2.66,.36-5.31,.47-7.97,.08-1.68,.39-2.94,2.04-4.02,2.94-1.93,3.23-6.18,.95-8.89-1.35-1.62-3.43-2.36-5.43-2.15-1.2,.12-2.38,.58-3.36,1.39-2.58,2.12-3.28,6.64-.63,8.67,.01,0,.02,.02,.03,.02,2.67,2.05,2.44,4.28,2.17,6.9-.14,1.37-.29,2.75-.26,4.11,.05,2.06-.79,3.42-2.43,4.73-6.7,5.39-6.78,5.45-7.06,14.16-.09,2.95-.89,5.27-3.49,6.61-.22,.11-.43,.23-.62,.36-3.3,2.1-2.63,5.4-2.72,8.71Z"/>
      <path class="cls-12" d="M267.43,84.72c.55,.47,.98,.89,1.45,1.24,2.94,2.21,6.79,1.64,8.83-1.31,2.03-2.93,1.15-7.15-1.88-9.03-3.04-1.88-7.17-1.06-8.58,2.25-1.06,2.49-2.89,3.93-4.8,5.46-3.68,2.95-7.23,6.1-11.14,8.71-2.87,1.91-2.72,4.27-2.45,7.4,6.35-5.04,12.38-9.82,18.57-14.73Z"/>
    </g>
    <g>
      <path class="cls-7" d="M267.74,293.19c-.88-.23-2.09-.79-2.36-1.51-1.12-2.84-1.82-5.71,1.48-7.86,2.45-1.59,2.46-3.47,.93-6-2.97-4.91-2.81-5.01-8.39-3.7-3.29,.77-6.53-2.44-5.74-5.68q1.4-5.78-3.89-8.71c-.22-.13-.46-.23-.67-.38-1.65-1.15-3-1.16-4.34,.64-.53,.71-1.13,1.37-1.81,2.05-.24-1.27-.49-2.53-.72-3.8-.49-1.98-2.3-3.35-4.36-3.26l-3.9,.18c-1.28,.06-2.29,1.11-2.29,2.39v12.96c4.72,.3,9.74,2.21,14.11,5.48,6.27,4.69,11.16,12.2,11.76,21.8,.35,5.54-.75,10.56-2.82,14.88-4.58,9.58-13.95,15.76-23.04,16.56v15.66c2.68-.68,2.93-1.62,4.08-5.87,.09-.34,.1-.71,.27-.99,.21-.34,.5-.7,.85-.88,3.28-1.68,4.83-1.33,7.5,1.43,3.26,3.38,1.96,3.3,6.48,.89l.06-.04c5.86-3.89,5.14-2.07,3.44-8.42-.25-.93-.58-2.15-.21-2.89,1.03-2.03,2.32-3,4.09-3.12,.82-.05,1.74,.08,2.79,.37,4.67,1.29,3.8,1.76,6.26-2.58,2.74-4.85,2.68-4.84-1.2-8.77-.7-.71-1.48-1.83-1.43-2.71,.23-4.02,.83-4.62,4.7-5.76q3.98-1.18,4.01-5.14c.04-5.81,.03-5.76-5.63-7.24Z"/>
      <path class="cls-5" d="M250.14,299.24c-.12-6.06-2.29-10.99-6.32-14.61-3.02-2.72-7.09-4.71-12.13-5.88v42.47c5.62-.89,10.37-3.45,13.97-8.11,1.59-2.06,2.74-4.27,3.48-6.63,.73-2.29,1.05-4.72,1-7.24Z"/>
    </g>
    <g>
      <path class="cls-3" d="M231.51,356.89v42.87c9.54-11.87,9.96-30.61,0-42.87Z"/>
      <path class="cls-4" d="M273.79,377.39c-.32,3.59-.44,7.19-.51,10.8-.04,1.74-.82,2.34-2.44,2.61-2.96,.49-5.87,1.29-8.83,1.79-1.38,.23-2.12,.72-2.37,2.17-.26,1.51-.6,3.09-1.3,4.43-1.35,2.6-.52,4.41,1.48,6.17,.95,.84,1.75,1.84,2.61,2.78,.42,.46,.85,.9,1.32,1.31,2,1.71,2.23,3.32,.66,5.48-2.17,2.98-4.15,6.11-6.14,9.22-.74,1.17-1.5,1.35-2.78,.89-1.35-.49-2.7-.98-4.06-1.43-1.65-.56-3.31-1.07-4.99-1.5-.91-.24-2.17,.26-3.08,.76-.87,.47-1.38,1.6-2.25,2.08-3.56,1.96-3.85,4.76-2.35,8.13,.03,.08,.04,.17,.06,.25q1.82,7.44-5.08,11.1c-.74,.39-1.48,.77-2.23,1.12v-31.59c.26-.24,.51-.47,.75-.71,17.91-17.24,20.18-43.17,5.37-63.18-2.07-2.79-.72-5.29,.33-7.39,.65-1.29,3.3-2.04,5.1-2.12,1.04-.05,2.34,1.57,3.22,2.68,1.48,1.9,2.84,1.86,4.76,.6,3.29-2.16,6.75-4.07,10.63-6.38,.19,.36,.37,.71,.55,1.06,2.43,4.66,4.75,9.09,7.11,13.62-.67,.57-1.31,1.14-1.95,1.69-2.2,1.93-4.3,3.77-6.48,5.5-1.3,1.03-1.56,2.04-1.02,3.51,.35,.97,.7,1.99,.74,2.99,.12,3.7,1.75,5.79,5.61,6.1,1.42,.11,2.78,.98,4.21,1.16,2.64,.35,3.6,1.65,3.37,4.3Z"/>
    </g>
    <path class="cls-10" d="M291.3,314.5c-2.74,3.22-2.37,7.39,.97,10.87,.65,.68,1.33,1.29,1.98,1.88,.26,.23,.52,.46,.78,.71,4.09,3.76,4.49,6.23,1.79,11.03-3.5,6.21-5.56,7.05-12.24,4.98-.23-.07-.45-.13-.68-.2-.58-.18-1.13-.34-1.64-.54-1.12-.43-2.25-.66-3.37-.68-1.1-.02-2.14,.17-3.09,.55-1.08-2.26-2.16-4.52-3.33-6.72-.82-1.55-.8-2.83-.1-4.34,1.27-2.72,2.31-5.55,3.67-8.23,.81-1.58,.55-2.73-.59-3.89-.12-.12-.19-.3-.33-.4-4.1-2.88-2.31-6.6-1.38-10.15,.12-.45,.77-.81,1.24-1.1,.35-.22,.81-.25,1.22-.38q6.68-2.01,6.47-9.1v-.04c-.07-2.3-1.68-4.26-3.91-4.79-1.04-.25-2.06-.53-3.06-.89-.93-.34-1.6-1.43-2.37-2.2-.11-.11-.07-.34-.14-.49-1.77-3.41-.83-5.88,2.02-8.43,3.61-3.23,3.43-2.21,.93-6.49-4.28-7.33-2.13-6.16-9.85-4.27-3.26,.79-7.55-3.34-6.8-6.65,.04-.17,.11-.33,.13-.5,.39-2.16,1.85-5.35,.95-6.28-2.16-2.26-5.4-3.49-8.26-5.04-.33-.18-1.07,.2-1.5,.51-.74,.53-1.39,1.2-2.34,2.05-3.78-17.37-6.35-29.62-7.66-40.51,0-.04-.01-.08-.02-.12-.27-2.68-.52-5.36-.73-8.04-.01-.09-.02-.19-.02-.28-.1-1.25-.2-2.5-.28-3.75,0-.06-.01-.11-.01-.17-.09-1.23-.17-2.46-.24-3.69-.07-1.2-.14-2.4-.2-3.6-.01-.2-.02-.39-.03-.59-.05-1.01-.1-2.02-.14-3.03-.01-.22-.02-.44-.03-.66-.05-1.1-.09-2.21-.12-3.31,0-.11-.01-.23-.01-.35-.03-1.01-.06-2.02-.08-3.04-.01-.29-.02-.59-.02-.89-.03-1.18-.04-2.36-.05-3.55-.02-1.26-.02-2.52-.02-3.79,0-11.71,.55-23.42,1.66-35.16,.18-1.86,.37-3.72,.57-5.58,.08-.74,.17-1.49,.25-2.23,.04-.33,.07-.65,.11-.98,.09-.76,.18-1.53,.28-2.29,.08-.6,.15-1.2,.23-1.8,.07-.49,.13-.99,.2-1.48,.12-.9,.25-1.8,.37-2.7,.1-.69,.2-1.39,.3-2.08,.17-1.12,.34-2.24,.51-3.37,.21-1.35,.43-2.7,.66-4.06,.34-2.03,.7-4.05,1.07-6.07l22.37-19.64s3.34,4.21,11.75,1.51c-.04,.27-.08,.53-.12,.8-.33,2.15-.63,4.3-.92,6.46-.05,.34-.09,.68-.13,1.02-.1,.74-.2,1.48-.28,2.22-.14,1.08-.27,2.16-.4,3.25-.13,1.08-.25,2.16-.37,3.25-.12,1.08-.24,2.17-.35,3.26-.08,.73-.15,1.46-.22,2.19-.07,.61-.12,1.23-.18,1.85-.04,.45-.08,.9-.12,1.35-.1,1.04-.19,2.09-.27,3.13-.02,.17-.03,.34-.05,.51-.11,1.34-.22,2.68-.32,4.03-1.4,18.63-1.68,37.28-.39,55.9,1.19,17.21,3.09,34.38,4.84,51.54,.61,6.01,1.69,11.98,2.56,17.96-.22,.06-.44,.12-.67,.18-.93-1.73-1.84-3.48-2.73-5.23-1.33-2.62-2.61-5.25-3.85-7.9-5-10.74-9.21-21.72-12.6-32.97-1.13-3.74-2.17-7.51-3.12-11.31-.38-1.52-.74-3.05-1.1-4.57-.18-.76-.35-1.53-.52-2.3-.34-1.53-.66-3.07-.97-4.62-.46-2.31-.89-4.64-1.29-6.98-.26-1.56-.51-3.12-.75-4.69-.12-.78-.23-1.57-.34-2.35h0c-.14-.98-.27-1.96-.39-2.94-.12-.98-.24-1.96-.36-2.95v.05c0,.41,0,.81,0,1.22s0,.84,0,1.26c.24,18.16,3.32,35.87,8.52,53.23,5.82,19.42,14.53,37.57,24.45,55.19,.5,.88,.99,1.75,1.49,2.62,.5,.87,1.01,1.74,1.52,2.62,.46,.79,.93,1.59,1.4,2.38,.07,.11,.14,.23,.21,.35,.49,.82,.98,1.63,1.47,2.44,.78,1.29,1.57,2.57,2.36,3.85,.79,1.28,1.59,2.55,2.41,3.81,.51,.79,1.02,1.58,1.53,2.37,.07,.1,.13,.2,.19,.29,.43,.65,.85,1.3,1.29,1.95,.65,.98,1.3,1.96,1.96,2.93,1.11,1.65,2.25,3.29,3.4,4.92,.14,.21,.29,.41,.43,.62-1.46,.09-3.12,.65-4.89,2.05-2.6,2.06-5.19,4.58-8.13,7.91-.22,.24-.43,.49-.65,.73l-.17,.2c-.42,.47-.83,.95-1.24,1.43Z"/>
    <g>
      <path class="cls-9" d="M453.38,415.84c-.82-.93-1.82-1.69-2.97-2.22-.21-.1-.42-.19-.65-.27-9.53-3.54-16.99-5.59-24.61-8.57l-.31,.82c-7.88,20.53-29.61,38.42-56.54,38.47-26.77,.05-50.09-17.18-58.82-43.52-.24-.71-.45-1.43-.66-2.15-.31-1.08-.58-2.17-.82-3.27-.24-1.09-.45-2.2-.62-3.31-.18-1.11-.31-2.22-.42-3.34-.04-.37-.07-.75-.1-1.12-.06-.75-.1-1.49-.13-2.24-.03-.75-.04-1.5-.04-2.25,0-.35,0-.69,.01-1.04,0-.4,.02-.81,.03-1.2,.01-.29,.03-.58,.04-.87,.02-.34,.04-.69,.06-1.03,.01-.22,.03-.44,.05-.66,.01-.22,.03-.44,.05-.66,.02-.25,.05-.5,.07-.74,.04-.35,.07-.69,.11-1.03,.11-.98,.26-1.96,.42-2.94,.04-.23,.08-.47,.12-.7,.08-.5,.18-.99,.28-1.48,.07-.34,.14-.68,.22-1.02,.07-.34,.15-.68,.23-1.01,.07-.31,.15-.61,.23-.92,.09-.37,.19-.73,.29-1.09,.18-.65,.36-1.29,.56-1.93,.01-.04,.03-.07,.04-.11,.2-.65,.41-1.29,.63-1.93,.22-.66,.46-1.31,.71-1.95,.11-.3,.23-.6,.35-.9l.05-.11c.12-.3,.25-.61,.38-.91,.63-1.49,1.32-2.96,2.06-4.4,0-.01,.02-.03,.02-.04,.02-.04,.04-.08,.06-.11,.15-.29,.45-.86,.86-1.6,.11-.19,.22-.39,.34-.59,.12-.22,.25-.43,.38-.65,.3-.51,.6-1.01,.92-1.51,.38-.61,.78-1.2,1.19-1.8,.3-.45,.61-.89,.93-1.34,.3-.41,.6-.82,.91-1.22,.02-.02,.04-.05,.05-.07,.15-.2,.3-.39,.45-.58,1.52-1.92,3.15-3.75,4.91-5.44,.19-.19,.38-.37,.57-.55,.25-.24,.51-.48,.77-.71,.2-.19,.41-.37,.61-.55,.32-.28,.64-.55,.96-.82,.23-.2,.46-.39,.7-.57,.58-.47,1.17-.93,1.78-1.37l1.46-1.21c-8.16-8.93-15.76-18.31-22.83-28.07-1.73-.81-3.49-.56-5.47,1-2.83,2.25-5.39,4.88-7.8,7.6-.27,.29-.53,.59-.78,.89-.41,.46-.81,.93-1.21,1.4-1.99,2.33-1.19,4.93,.86,7.07,.83,.86,1.75,1.64,2.63,2.46,5.08,4.67,5.7,8.54,2.34,14.52-4.16,7.4-7.56,8.77-15.55,6.3-.84-.26-1.68-.49-2.5-.8-.84-.32-1.65-.48-2.41-.5-1.19-.02-2.26,.33-3.11,1-.7,.54-1.25,1.31-1.62,2.27-1.71,4.52-2.87,9.31-3.71,14.07-.49,2.75,1.35,4.68,4.2,5.38,1.3,.32,2.58,.67,3.86,1.03,.82,.23,1.64,.47,2.45,.71,2.95,.87,5.22,2.73,5.7,5.73,.52,3.27,.69,6.71,.3,9.99-.49,4.07-3.21,6.54-7.28,7.4-1.92,.4-3.85,.76-5.74,1.29-.29,.08-.56,.17-.83,.27-.56,.22-1.06,.5-1.5,.83-.02,.01-.03,.02-.05,.03-.27,.21-.52,.44-.73,.7,0,0,0,0,0,0-.85,1.01-1.22,2.35-1,3.98,.49,3.65,.93,7.4,2.15,10.83,1.06,2.99,2.07,4.74,3.52,5.52,1.62,.89,3.79,.58,7.19-.5,1.35-.43,2.71-.86,4.1-1.09,2.85-.48,5.68,.02,7.46,2.33,2.02,2.65,3.86,5.56,5.14,8.62,1.53,3.64,.47,7.07-2.49,9.79-1.29,1.18-2.66,2.27-3.92,3.47-.31,.29-.59,.59-.84,.87-1.91,2.2-2.07,4.23-.3,7,1.51,2.36,3.35,4.57,5.35,6.55,3.21,3.17,5.38,4.7,7.53,4.58,2.09-.11,4.14-1.79,7.09-5.03,2.12-2.33,4.55-4.15,7.92-3.93,9.97,.65,15.32,8.39,12.38,17.87-.72,2.34-1.06,4.12-.9,5.54,0,0,0,.01,0,.02,.29,2.61,2.25,3.98,6.53,5.4,.93,.31,1.89,.54,2.83,.81,5.64,1.64,8.58,2.17,10.53,.74,1.61-1.18,2.53-3.7,3.71-8.04,.02-.06,.04-.12,.05-.19,1.79-6.39,4.84-8.37,12.67-8.27,6.59,.09,9.73,2.5,11.29,8.69,.35,1.37,.53,2.79,.85,4.16,.19,.77,.41,1.45,.68,2.03,.06,.12,.12,.25,.18,.36,1.02,1.88,2.66,2.64,5.36,2.45,2.81-.2,5.65-.63,8.35-1.41,4.26-1.24,6.64-2.37,7.62-4.26,.89-1.71,.62-4.04-.43-7.62-.1-.35-.21-.7-.33-1.07-.2-.62-.56-1.26-.54-1.88,.06-1.93-.26-4.09,.49-5.74,3.62-8.05,14.08-10.08,20.44-4.66,.49,.41,.95,.88,1.39,1.38,.57,.66,1.11,1.35,1.71,1.98,1.67,1.79,3.18,2.73,4.82,2.61,1-.07,2.05-.54,3.22-1.45,3.55-2.79,6.72-6.12,9.73-9.51,.76-.86,1.19-1.78,1.31-2.7,.21-1.6-.49-3.23-1.85-4.68-.67-.71-1.37-1.38-2.07-2.05-.8-.75-1.61-1.5-2.37-2.29-2.49-2.57-3.41-5.67-2.16-9.02,.9-2.42,2.1-4.82,3.6-6.91,2.96-4.11,6.26-5.04,11.17-3.66,1.37,.38,2.73,.81,4.09,1.2,.3,.09,.59,.17,.88,.23,.11,.03,.22,.06,.33,.08-.37-1.26-1.01-2.42-1.86-3.39Z"/>
      <path class="cls-8" d="M411.96,398.26c-6.53,17.81-23.63,30.51-43.69,30.51-25.7,0-46.53-20.83-46.53-46.53,0-15.73,7.81-29.63,19.76-38.05,27.04,27.76,52.03,44.36,70.46,54.07Z"/>
    </g>
    <path class="cls-2" d="M230.06,27.69v-2.16c.09-.6,.64-.6,1.11-.59,1.2,.01,1.16-.51,1.04-1.43-.96-6.72-1.81-13.45-2.73-20.19-.11-.95-.3-1.89-.46-2.83h-1.01c-.15,.94-.34,1.88-.46,2.83-.91,6.73-1.76,13.47-2.72,20.19-.14,.91-.18,1.44,1.03,1.43,.48-.01,1.03-.01,1.11,.59v2.16c-5.65,.76-10.01,5.59-10.01,11.45,0,6.38,5.18,11.55,11.56,11.55s11.55-5.17,11.55-11.55c0-5.86-4.36-10.69-10.01-11.45Zm-1.54,18.56c-3.93,0-7.12-3.18-7.12-7.11s3.19-7.12,7.12-7.12,7.11,3.19,7.11,7.12-3.18,7.11-7.11,7.11Z"/>
    <g>
      <g>
        <path class="cls-10" d="M443.99,263h-9.24l-1.97-13.61h-10.01l-1.97,13.61h-9.07l10.36-59.91h11.55l10.36,59.91Zm-16.35-47.08l-3.68,25.25h7.62l-3.68-25.25h-.26Z"/>
        <path class="cls-10" d="M455.97,254.44h15.15v8.56h-24.22v-59.91h9.07v51.36Z"/>
        <path class="cls-10" d="M496.89,206c2.51,2.51,3.77,6.05,3.77,10.61v4.11l-8.73,.43v-3.59c0-4.62-1.77-6.93-5.31-6.93-1.77,0-3.1,.51-3.98,1.54-.89,1.03-1.33,2.54-1.33,4.54v32.7c0,4.05,1.74,6.08,5.22,6.08,1.77,0,3.08-.56,3.94-1.67,.86-1.11,1.28-2.87,1.28-5.26v-10.27h-5.14v-8.39h14.04v19.6c0,4.57-1.26,8.1-3.77,10.61-2.51,2.51-6.02,3.77-10.53,3.77s-7.99-1.25-10.44-3.77c-2.45-2.51-3.68-6.05-3.68-10.61v-32.87c0-4.56,1.23-8.1,3.68-10.61,2.45-2.51,5.93-3.77,10.44-3.77s8.02,1.26,10.53,3.77Z"/>
        <path class="cls-10" d="M531.12,211.47h-16.43v16.95h13.27v8.39h-13.27v17.8h16.43v8.39h-25.51v-59.91h25.51v8.39Z"/>
        <path class="cls-10" d="M555.69,263l-7.19-25.34h-4.19v25.34h-9.07v-59.91h13.1c4.91,0,8.65,1.3,11.21,3.89,2.57,2.6,3.85,6.35,3.85,11.26v4.28c0,6.33-2.14,10.73-6.42,13.18l8.3,27.3h-9.59Zm-11.38-51.53v17.8h3.68c2.17,0,3.77-.6,4.79-1.8,1.03-1.2,1.54-3.05,1.54-5.56v-3.08c0-2.51-.51-4.37-1.54-5.56-1.03-1.2-2.63-1.8-4.79-1.8h-3.68Z"/>
        <path class="cls-10" d="M577.34,263h-9.07v-59.91h9.07v59.91Z"/>
        <path class="cls-10" d="M612.52,263h-9.24l-1.97-13.61h-10.01l-1.97,13.61h-9.07l10.36-59.91h11.55l10.36,59.91Zm-16.35-47.08l-3.68,25.25h7.62l-3.68-25.25h-.26Z"/>
        <path class="cls-10" d="M644.96,263h-8.9l-11.9-39.71h-.17v39.71h-8.56v-59.91h10.1l10.7,35.69h.17v-35.69h8.56v59.91Z"/>
        <path class="cls-10" d="M689.3,211.47h-16.43v16.95h13.27v8.39h-13.27v17.8h16.43v8.39h-25.51v-59.91h25.51v8.39Z"/>
        <path class="cls-10" d="M722.93,263h-8.9l-11.9-39.71h-.17v39.71h-8.56v-59.91h10.1l10.7,35.69h.17v-35.69h8.56v59.91Z"/>
        <path class="cls-10" d="M752.81,206c2.51,2.51,3.77,6.05,3.77,10.61v4.11l-8.73,.43v-3.59c0-4.62-1.77-6.93-5.31-6.93-1.77,0-3.1,.51-3.98,1.54-.89,1.03-1.33,2.54-1.33,4.54v32.7c0,4.05,1.74,6.08,5.22,6.08,1.77,0,3.08-.56,3.94-1.67,.86-1.11,1.28-2.87,1.28-5.26v-10.27h-5.14v-8.39h14.04v19.6c0,4.57-1.26,8.1-3.77,10.61-2.51,2.51-6.02,3.77-10.53,3.77s-7.99-1.25-10.44-3.77c-2.45-2.51-3.68-6.05-3.68-10.61v-32.87c0-4.56,1.23-8.1,3.68-10.61,2.45-2.51,5.93-3.77,10.44-3.77s8.02,1.26,10.53,3.77Z"/>
        <path class="cls-10" d="M770.61,263h-9.07v-59.91h9.07v59.91Z"/>
        <path class="cls-10" d="M806.3,263h-8.9l-11.9-39.71h-.17v39.71h-8.56v-59.91h10.1l10.7,35.69h.17v-35.69h8.56v59.91Z"/>
        <path class="cls-10" d="M837.97,211.47h-16.43v16.95h13.27v8.39h-13.27v17.8h16.43v8.39h-25.51v-59.91h25.51v8.39Z"/>
        <path class="cls-10" d="M867.59,211.47h-16.43v16.95h13.27v8.39h-13.27v17.8h16.43v8.39h-25.51v-59.91h25.51v8.39Z"/>
        <path class="cls-10" d="M892.15,263l-7.19-25.34h-4.19v25.34h-9.07v-59.91h13.1c4.91,0,8.65,1.3,11.21,3.89,2.57,2.6,3.85,6.35,3.85,11.26v4.28c0,6.33-2.14,10.73-6.42,13.18l8.3,27.3h-9.59Zm-11.38-51.53v17.8h3.68c2.17,0,3.77-.6,4.79-1.8,1.03-1.2,1.54-3.05,1.54-5.56v-3.08c0-2.51-.51-4.37-1.54-5.56-1.03-1.2-2.63-1.8-4.79-1.8h-3.68Z"/>
        <path class="cls-10" d="M913.81,263h-9.07v-59.91h9.07v59.91Z"/>
        <path class="cls-10" d="M949.5,263h-8.9l-11.9-39.71h-.17v39.71h-8.56v-59.91h10.1l10.7,35.69h.17v-35.69h8.56v59.91Z"/>
        <path class="cls-10" d="M979.37,206c2.51,2.51,3.77,6.05,3.77,10.61v4.11l-8.73,.43v-3.59c0-4.62-1.77-6.93-5.31-6.93-1.77,0-3.1,.51-3.98,1.54-.89,1.03-1.33,2.54-1.33,4.54v32.7c0,4.05,1.74,6.08,5.22,6.08,1.77,0,3.08-.56,3.94-1.67,.86-1.11,1.28-2.87,1.28-5.26v-10.27h-5.14v-8.39h14.04v19.6c0,4.57-1.26,8.1-3.77,10.61-2.51,2.51-6.02,3.77-10.53,3.77s-7.99-1.25-10.44-3.77c-2.45-2.51-3.68-6.05-3.68-10.61v-32.87c0-4.56,1.23-8.1,3.68-10.61,2.45-2.51,5.93-3.77,10.44-3.77s8.02,1.26,10.53,3.77Z"/>
      </g>
      <g>
        <g>
          <path class="cls-11" d="M464.57,297.58c0,2.09,.12,5.35,0,7.33-6.63,10.12-17.8,14.54-28.74,14.54-16.05,0-24.2-10.01-24.2-26.18,0-14.54,6.05-30.6,17.33-40.72,5.35-4.77,13.15-8.96,23.97-8.96,7.33,0,13.15,2.79,15.71,6.28l4.07-5.93,3.14,.93c-2.44,6.28-5.7,16.4-7.56,24.9h-3.49c.81-5.58,.58-12.22-1.28-15.94-1.98-3.96-5-5.82-9.42-5.82-4.89,0-10.12,2.33-14.66,7.91-8.49,10.7-12.68,25.71-12.68,39.55,0,5.7,1.51,11.05,3.26,13.5,2.33,3.37,6.17,5.23,10.12,5.23,10.59,0,16.87-5.82,21.87-16.64h2.56Z"/>
          <path class="cls-11" d="M505.29,266.17c11.4,0,17.45,6.4,17.45,17.8s-5.82,24.55-15.24,30.83c-4.89,3.26-10.24,4.54-15.94,4.54-7.91,0-17.68-2.79-17.68-17.57,0-11.05,5.93-23.5,14.78-30.13,4.89-3.61,10.59-5.47,16.4-5.47h.23Zm-.47,4.07c-2.91,0-5.93,1.63-9.07,6.05-4.89,7.21-9.42,21.64-9.42,30.25,0,6.63,2.91,8.73,6.05,8.73,2.68,0,5.24-1.51,7.68-4.65,5.35-6.86,10.47-23.62,10.35-32.23,0-4.3-1.51-8.14-5.47-8.14h-.12Z"/>
          <path class="cls-11" d="M614.53,304.79c-4.89,9.89-12.8,14.54-20.24,14.54-8.03,0-7.91-6.63-4.89-14.89,3.02-8.38,6.86-18.03,9.42-24.9,1.28-3.49,.58-6.17-1.86-6.17-8.61,0-18.5,18.15-22.45,29.32-1.4,3.96-3.37,8.49-5.35,15.12-4.89,.12-10.01,.7-13.15,1.05,4.3-11.75,11.29-33.97,12.91-40.02,.7-2.91,.47-5.47-2.21-5.47-5.82,0-15.71,11.98-21.64,28.27-1.86,4.77-3.61,9.07-5.7,16.29-4.65,.12-9.66,.58-13.03,.93,5.82-16.05,11.75-36.07,13.15-43.51,.35-1.86-.23-2.33-1.63-2.33h-6.51l1.4-3.96c5.47-.58,15.01-1.4,20.94-2.91-1.05,4.07-3.14,12.56-4.89,17.92,5.82-8.38,14.19-17.92,25.13-17.92,7.45,0,8.49,5.82,6.51,12.45-.47,1.75-.81,3.02-1.51,5,6.05-8.49,14.66-17.45,25.59-17.45,3.14,0,5,1.16,6.17,2.33,2.91,3.14,1.28,9.54,0,13.03-3.26,9.19-8.61,23.27-10.12,28.04-.47,1.51-.35,2.79,.7,2.79,2.79,0,7.79-4.89,10.7-10.35l2.56,2.79Z"/>
          <path class="cls-11" d="M633.14,271.52c1.16-3.61,2.44-8.38,2.91-10.24,2.68-.47,9.54-1.86,12.22-3.02l.47,.58c-1.98,6.28-4.65,15.24-6.86,22.22,5.12-6.86,12.56-14.89,22.1-14.89,7.45,0,11.05,6.4,11.05,13.49,0,14.19-8.38,31.06-21.29,37.11-3.61,1.75-7.56,2.56-10.94,2.56-3.72,0-7.91-1.16-10-3.49-2.68,9.54-4.19,15.47-4.89,19.2-.58,2.33-.12,3.14,2.09,3.37l7.1,.7-1.05,3.84h-13.84c-5.58,0-12.22,.23-18.38,.81l1.28-3.96,4.77-.7c2.33-.47,3.61-1.05,4.54-3.61,5.24-14.89,11.87-38.51,16.4-54.68-2.56,1.86-7.21,3.96-9.07,4.54-.47-1.16-.93-2.44-1.4-3.37,4.42-2.21,9.77-5.93,12.8-10.47Zm24.55,1.51c-4.89,0-11.52,7.79-15.82,16.75-2.79,4.89-6.28,13.84-6.28,18.27,0,4.65,2.79,6.75,6.17,6.75,2.79,0,6.28-1.63,9.31-5.58,5.7-6.98,10.59-20.01,10.59-29.78,0-3.49-1.28-6.4-3.84-6.4h-.12Z"/>
          <path class="cls-11" d="M722.14,305.84c-5.23,7.68-14.08,13.5-25.36,13.5-9.77,0-15.01-6.17-15.01-16.29,0-11.17,5.47-24.2,15.36-31.64,5-3.61,10.24-5.23,15.59-5.23,9.42,0,13.38,5.35,13.38,12.22,0,5.47-3.96,8.73-7.56,10.35-5.35,2.68-16.87,5.23-22.45,5.93-.47,1.98-.93,5-.93,8.03,0,6.05,1.98,10.59,7.56,10.59,6.28,0,12.68-4.19,16.87-13.73h1.98l.58,6.28Zm-11.17-35.6c-2.91,0-9.42,3.49-14.19,20.13,3.96-.58,9.77-2.33,12.33-3.49,4.07-2.09,6.17-6.05,6.17-10.94,0-3.61-1.4-5.7-4.07-5.7h-.23Z"/>
          <path class="cls-11" d="M760.53,306.31c-4.3,8.49-12.8,13.03-20.24,13.03-9.89,0-10.35-5.7-7.91-13.96,3.02-10.24,7.33-24.78,9.54-32.23l-7.79-.7,1.98-4.3h7.33c1.75-5.7,3.02-10.35,3.96-13.84,5.12-.58,10.7-1.4,14.43-2.56-1.05,2.33-3.61,10.01-5.58,16.4h11.75l-1.98,4.3-11.17,.7c-2.09,6.05-8.84,29.2-10.59,36.53-.58,2.68-.23,3.96,1.86,3.96,4.3,0,10.35-6.75,12.56-12.1l1.86,4.77Z"/>
          <path class="cls-11" d="M772.05,268.96c6.86-.58,16.4-1.4,21.99-2.79l.35,.47c-3.26,7.68-11.17,33.04-13.73,43.05-.35,1.51-.35,2.79,.81,2.79,2.68,0,7.91-5.12,10.7-10.47l2.56,2.79c-5.24,10.01-12.68,14.54-20.13,14.54s-8.14-5.35-5.47-13.84c2.68-8.84,7.21-22.34,9.42-30.36,.47-1.63,.12-2.09-1.05-2.09-1.4,0-4.89-.12-6.98,0l1.51-4.07Zm19.08-25.25c3.96,0,6.05,2.79,5.82,6.98-.23,5.35-4.19,8.26-8.26,8.26-3.37,0-6.17-2.44-5.93-6.75,.23-5.58,4.3-8.49,8.26-8.49h.12Z"/>
          <path class="cls-11" d="M829.98,306.31c-4.3,8.49-12.8,13.03-20.24,13.03-9.89,0-10.35-5.7-7.91-13.96,3.02-10.24,7.33-24.78,9.54-32.23l-7.79-.7,1.98-4.3h7.33c1.75-5.7,3.02-10.35,3.96-13.84,5.12-.58,10.7-1.4,14.43-2.56-1.05,2.33-3.61,10.01-5.58,16.4h11.75l-1.98,4.3-11.17,.7c-2.09,6.05-8.84,29.2-10.59,36.53-.58,2.68-.23,3.96,1.86,3.96,4.3,0,10.35-6.75,12.56-12.1l1.86,4.77Z"/>
          <path class="cls-11" d="M841.5,268.96c6.86-.58,16.4-1.4,21.99-2.79l.35,.47c-3.26,7.68-11.17,33.04-13.73,43.05-.35,1.51-.35,2.79,.81,2.79,2.68,0,7.91-5.12,10.7-10.47l2.56,2.79c-5.24,10.01-12.68,14.54-20.13,14.54s-8.14-5.35-5.47-13.84c2.68-8.84,7.21-22.34,9.42-30.36,.47-1.63,.12-2.09-1.05-2.09-1.4,0-4.89-.12-6.98,0l1.51-4.07Zm19.08-25.25c3.96,0,6.05,2.79,5.82,6.98-.23,5.35-4.19,8.26-8.26,8.26-3.37,0-6.17-2.44-5.93-6.75,.23-5.58,4.3-8.49,8.26-8.49h.12Z"/>
          <path class="cls-11" d="M901.3,266.17c11.4,0,17.45,6.4,17.45,17.8s-5.82,24.55-15.24,30.83c-4.89,3.26-10.24,4.54-15.94,4.54-7.91,0-17.68-2.79-17.68-17.57,0-11.05,5.93-23.5,14.78-30.13,4.89-3.61,10.59-5.47,16.4-5.47h.23Zm-.47,4.07c-2.91,0-5.93,1.63-9.07,6.05-4.89,7.21-9.42,21.64-9.42,30.25,0,6.63,2.91,8.73,6.05,8.73,2.68,0,5.24-1.51,7.68-4.65,5.35-6.86,10.47-23.62,10.35-32.23,0-4.3-1.51-8.14-5.47-8.14h-.12Z"/>
          <path class="cls-11" d="M980.87,304.79c-5,9.89-12.91,14.54-20.24,14.54-7.8,0-7.91-6.28-4.89-14.89,2.91-8.14,7.1-19.31,9.31-25.71,1.16-3.02,.47-5.35-2.09-5.35-8.26,0-17.8,16.52-21.99,28.15-1.63,4.3-3.49,8.84-5.58,16.29-5,.12-9.54,.7-13.03,1.05,5.12-14.19,11.75-36.53,12.91-43.74,.23-1.51,.12-2.09-.93-2.09l-6.86,.12,1.4-4.07c6.52-.47,13.96-1.28,20.36-2.91-1.16,5.12-2.91,11.98-4.65,18.15,6.05-9.19,14.54-18.15,25.48-18.15,2.68,0,4.42,.81,5.7,1.86,3.26,2.56,2.56,9.07,.7,14.43-2.79,8.03-6.98,18.38-9.54,27.22-.47,1.4-.12,2.68,.81,2.68,2.79,0,7.56-4.77,10.59-10.47l2.56,2.91Z"/>
        </g>
        <g>
          <path class="cls-1" d="M467.47,294.31c0,2.09,.12,5.35,0,7.33-6.63,10.12-17.8,14.54-28.74,14.54-16.05,0-24.2-10.01-24.2-26.18,0-14.54,6.05-30.6,17.33-40.72,5.35-4.77,13.15-8.96,23.97-8.96,7.33,0,13.15,2.79,15.71,6.28l4.07-5.93,3.14,.93c-2.44,6.28-5.7,16.4-7.56,24.9h-3.49c.81-5.58,.58-12.22-1.28-15.94-1.98-3.96-5-5.82-9.42-5.82-4.89,0-10.12,2.33-14.66,7.91-8.49,10.7-12.68,25.71-12.68,39.55,0,5.7,1.51,11.05,3.26,13.5,2.33,3.37,6.17,5.23,10.12,5.23,10.59,0,16.87-5.82,21.87-16.64h2.56Z"/>
          <path class="cls-1" d="M508.19,262.9c11.4,0,17.45,6.4,17.45,17.8s-5.82,24.55-15.24,30.83c-4.89,3.26-10.24,4.54-15.94,4.54-7.91,0-17.68-2.79-17.68-17.57,0-11.05,5.93-23.5,14.78-30.13,4.89-3.61,10.59-5.47,16.4-5.47h.23Zm-.47,4.07c-2.91,0-5.93,1.63-9.07,6.05-4.89,7.21-9.42,21.64-9.42,30.25,0,6.63,2.91,8.73,6.05,8.73,2.68,0,5.24-1.51,7.68-4.65,5.35-6.86,10.47-23.62,10.35-32.23,0-4.3-1.51-8.14-5.47-8.14h-.12Z"/>
          <path class="cls-1" d="M617.43,301.52c-4.89,9.89-12.8,14.54-20.24,14.54-8.03,0-7.91-6.63-4.89-14.89,3.02-8.38,6.86-18.03,9.42-24.9,1.28-3.49,.58-6.17-1.86-6.17-8.61,0-18.5,18.15-22.45,29.32-1.4,3.96-3.37,8.49-5.35,15.12-4.89,.12-10.01,.7-13.15,1.05,4.3-11.75,11.29-33.97,12.91-40.02,.7-2.91,.47-5.47-2.21-5.47-5.82,0-15.71,11.98-21.64,28.27-1.86,4.77-3.61,9.07-5.7,16.29-4.65,.12-9.66,.58-13.03,.93,5.82-16.05,11.75-36.07,13.15-43.51,.35-1.86-.23-2.33-1.63-2.33h-6.51l1.4-3.96c5.47-.58,15.01-1.4,20.94-2.91-1.05,4.07-3.14,12.56-4.89,17.92,5.82-8.38,14.19-17.92,25.13-17.92,7.45,0,8.49,5.82,6.51,12.45-.47,1.75-.81,3.02-1.51,5,6.05-8.49,14.66-17.45,25.59-17.45,3.14,0,5,1.16,6.17,2.33,2.91,3.14,1.28,9.54,0,13.03-3.26,9.19-8.61,23.27-10.12,28.04-.47,1.51-.35,2.79,.7,2.79,2.79,0,7.79-4.89,10.7-10.35l2.56,2.79Z"/>
          <path class="cls-1" d="M636.04,268.25c1.16-3.61,2.44-8.38,2.91-10.24,2.68-.47,9.54-1.86,12.22-3.02l.47,.58c-1.98,6.28-4.65,15.24-6.86,22.22,5.12-6.86,12.56-14.89,22.1-14.89,7.45,0,11.05,6.4,11.05,13.49,0,14.19-8.38,31.06-21.29,37.11-3.61,1.75-7.56,2.56-10.94,2.56-3.72,0-7.91-1.16-10-3.49-2.68,9.54-4.19,15.47-4.89,19.2-.58,2.33-.12,3.14,2.09,3.37l7.1,.7-1.05,3.84h-13.84c-5.58,0-12.22,.23-18.38,.81l1.28-3.96,4.77-.7c2.33-.47,3.61-1.05,4.54-3.61,5.24-14.89,11.87-38.51,16.4-54.68-2.56,1.86-7.21,3.96-9.07,4.54-.47-1.16-.93-2.44-1.4-3.37,4.42-2.21,9.77-5.93,12.8-10.47Zm24.55,1.51c-4.89,0-11.52,7.79-15.82,16.75-2.79,4.89-6.28,13.84-6.28,18.27,0,4.65,2.79,6.75,6.17,6.75,2.79,0,6.28-1.63,9.31-5.58,5.7-6.98,10.59-20.01,10.59-29.78,0-3.49-1.28-6.4-3.84-6.4h-.12Z"/>
          <path class="cls-1" d="M725.04,302.57c-5.23,7.68-14.08,13.5-25.36,13.5-9.77,0-15.01-6.17-15.01-16.29,0-11.17,5.47-24.2,15.36-31.64,5-3.61,10.24-5.23,15.59-5.23,9.42,0,13.38,5.35,13.38,12.22,0,5.47-3.96,8.73-7.56,10.35-5.35,2.68-16.87,5.23-22.45,5.93-.47,1.98-.93,5-.93,8.03,0,6.05,1.98,10.59,7.56,10.59,6.28,0,12.68-4.19,16.87-13.73h1.98l.58,6.28Zm-11.17-35.6c-2.91,0-9.42,3.49-14.19,20.13,3.96-.58,9.77-2.33,12.33-3.49,4.07-2.09,6.17-6.05,6.17-10.94,0-3.61-1.4-5.7-4.07-5.7h-.23Z"/>
          <path class="cls-1" d="M763.43,303.04c-4.3,8.49-12.8,13.03-20.24,13.03-9.89,0-10.35-5.7-7.91-13.96,3.02-10.24,7.33-24.78,9.54-32.23l-7.79-.7,1.98-4.3h7.33c1.75-5.7,3.02-10.35,3.96-13.84,5.12-.58,10.7-1.4,14.43-2.56-1.05,2.33-3.61,10.01-5.58,16.4h11.75l-1.98,4.3-11.17,.7c-2.09,6.05-8.84,29.2-10.59,36.53-.58,2.68-.23,3.96,1.86,3.96,4.3,0,10.35-6.75,12.56-12.1l1.86,4.77Z"/>
          <path class="cls-1" d="M774.94,265.69c6.86-.58,16.4-1.4,21.99-2.79l.35,.47c-3.26,7.68-11.17,33.04-13.73,43.05-.35,1.51-.35,2.79,.81,2.79,2.68,0,7.91-5.12,10.7-10.47l2.56,2.79c-5.24,10.01-12.68,14.54-20.13,14.54s-8.14-5.35-5.47-13.84c2.68-8.84,7.21-22.34,9.42-30.36,.47-1.63,.12-2.09-1.05-2.09-1.4,0-4.89-.12-6.98,0l1.51-4.07Zm19.08-25.25c3.96,0,6.05,2.79,5.82,6.98-.23,5.35-4.19,8.26-8.26,8.26-3.37,0-6.17-2.44-5.93-6.75,.23-5.58,4.3-8.49,8.26-8.49h.12Z"/>
          <path class="cls-1" d="M832.88,303.04c-4.3,8.49-12.8,13.03-20.24,13.03-9.89,0-10.35-5.7-7.91-13.96,3.02-10.24,7.33-24.78,9.54-32.23l-7.79-.7,1.98-4.3h7.33c1.75-5.7,3.02-10.35,3.96-13.84,5.12-.58,10.7-1.4,14.43-2.56-1.05,2.33-3.61,10.01-5.58,16.4h11.75l-1.98,4.3-11.17,.7c-2.09,6.05-8.84,29.2-10.59,36.53-.58,2.68-.23,3.96,1.86,3.96,4.3,0,10.35-6.75,12.56-12.1l1.86,4.77Z"/>
          <path class="cls-1" d="M844.4,265.69c6.86-.58,16.4-1.4,21.99-2.79l.35,.47c-3.26,7.68-11.17,33.04-13.73,43.05-.35,1.51-.35,2.79,.81,2.79,2.68,0,7.91-5.12,10.7-10.47l2.56,2.79c-5.24,10.01-12.68,14.54-20.13,14.54s-8.14-5.35-5.47-13.84c2.68-8.84,7.21-22.34,9.42-30.36,.47-1.63,.12-2.09-1.05-2.09-1.4,0-4.89-.12-6.98,0l1.51-4.07Zm19.08-25.25c3.96,0,6.05,2.79,5.82,6.98-.23,5.35-4.19,8.26-8.26,8.26-3.37,0-6.17-2.44-5.93-6.75,.23-5.58,4.3-8.49,8.26-8.49h.12Z"/>
          <path class="cls-1" d="M904.19,262.9c11.4,0,17.45,6.4,17.45,17.8s-5.82,24.55-15.24,30.83c-4.89,3.26-10.24,4.54-15.94,4.54-7.91,0-17.68-2.79-17.68-17.57,0-11.05,5.93-23.5,14.78-30.13,4.89-3.61,10.59-5.47,16.4-5.47h.23Zm-.47,4.07c-2.91,0-5.93,1.63-9.07,6.05-4.89,7.21-9.42,21.64-9.42,30.25,0,6.63,2.91,8.73,6.05,8.73,2.68,0,5.24-1.51,7.68-4.65,5.35-6.86,10.47-23.62,10.35-32.23,0-4.3-1.51-8.14-5.47-8.14h-.12Z"/>
          <path class="cls-1" d="M983.77,301.52c-5,9.89-12.91,14.54-20.24,14.54-7.8,0-7.91-6.28-4.89-14.89,2.91-8.14,7.1-19.31,9.31-25.71,1.16-3.02,.47-5.35-2.09-5.35-8.26,0-17.8,16.52-21.99,28.15-1.63,4.3-3.49,8.84-5.58,16.29-5,.12-9.54,.7-13.03,1.05,5.12-14.19,11.75-36.53,12.91-43.74,.23-1.51,.12-2.09-.93-2.09l-6.86,.12,1.4-4.07c6.52-.47,13.96-1.28,20.36-2.91-1.16,5.12-2.91,11.98-4.65,18.15,6.05-9.19,14.54-18.15,25.48-18.15,2.68,0,4.42,.81,5.7,1.86,3.26,2.56,2.56,9.07,.7,14.43-2.79,8.03-6.98,18.38-9.54,27.22-.47,1.4-.12,2.68,.81,2.68,2.79,0,7.56-4.77,10.59-10.47l2.56,2.91Z"/>
        </g>
      </g>
    </g>
  </g>
</svg>