<svg xmlns="http://www.w3.org/2000/svg" xmlns:xlink="http://www.w3.org/1999/xlink" viewBox="0 0 500 500"><defs><style>.cls-1{fill:#092333;}.cls-2{fill:#231f20;}.cls-3{fill:url(#linear-gradient);}.cls-4{fill:url(#linear-gradient-2);}.cls-5{fill:url(#linear-gradient-3);}.cls-6{fill:url(#linear-gradient-4);}.cls-7{fill:url(#linear-gradient-5);}.cls-8{fill:url(#linear-gradient-6);}.cls-9{fill:url(#linear-gradient-7);}.cls-10{fill:url(#linear-gradient-8);}.cls-11{fill:url(#linear-gradient-9);}.cls-12{fill:url(#linear-gradient-10);}.cls-13{fill:url(#linear-gradient-11);}.cls-14{fill:url(#linear-gradient-12);}.cls-15{fill:url(#linear-gradient-13);}.cls-16{fill:url(#linear-gradient-14);}.cls-17{fill:url(#linear-gradient-15);}.cls-18{fill:url(#linear-gradient-16);}.cls-19{fill:url(#linear-gradient-17);}.cls-20{fill:url(#linear-gradient-18);}.cls-21{fill:url(#linear-gradient-19);}.cls-22{fill-rule:evenodd;fill:url(#linear-gradient-20);}</style><linearGradient id="linear-gradient" x1="67.57" y1="424.49" x2="108.94" y2="424.49" gradientUnits="userSpaceOnUse"><stop offset="0" stop-color="#005eff"/><stop offset="1" stop-color="#0090e2"/></linearGradient><linearGradient id="linear-gradient-2" x1="107.67" y1="431.72" x2="139.15" y2="431.72" xlink:href="#linear-gradient"/><linearGradient id="linear-gradient-3" x1="141.47" y1="431.72" x2="198.28" y2="431.72" xlink:href="#linear-gradient"/><linearGradient id="linear-gradient-4" x1="191.39" y1="437.04" x2="237.26" y2="437.04" xlink:href="#linear-gradient"/><linearGradient id="linear-gradient-5" x1="241.6" y1="431.72" x2="270.16" y2="431.72" xlink:href="#linear-gradient"/><linearGradient id="linear-gradient-6" x1="273.41" y1="427.08" x2="297.14" y2="427.08" xlink:href="#linear-gradient"/><linearGradient id="linear-gradient-7" x1="296.97" y1="424.49" x2="315.81" y2="424.49" xlink:href="#linear-gradient"/><linearGradient id="linear-gradient-8" x1="318.15" y1="427.08" x2="341.88" y2="427.08" xlink:href="#linear-gradient"/><linearGradient id="linear-gradient-9" x1="341.71" y1="424.49" x2="360.56" y2="424.49" xlink:href="#linear-gradient"/><linearGradient id="linear-gradient-10" x1="362.8" y1="431.72" x2="394.27" y2="431.72" xlink:href="#linear-gradient"/><linearGradient id="linear-gradient-11" x1="396.6" y1="431.72" x2="434.3" y2="431.72" xlink:href="#linear-gradient"/><linearGradient id="linear-gradient-12" x1="282.49" y1="50.25" x2="274.05" y2="82.2" xlink:href="#linear-gradient"/><linearGradient id="linear-gradient-13" x1="282.64" y1="50.29" x2="274.2" y2="82.24" xlink:href="#linear-gradient"/><linearGradient id="linear-gradient-14" x1="278.07" y1="247.05" x2="241.45" y2="201.83" xlink:href="#linear-gradient"/><linearGradient id="linear-gradient-15" x1="276.01" y1="248.72" x2="239.39" y2="203.5" xlink:href="#linear-gradient"/><linearGradient id="linear-gradient-16" x1="280.39" y1="316.68" x2="248.28" y2="267.39" xlink:href="#linear-gradient"/><linearGradient id="linear-gradient-17" x1="283.31" y1="314.77" x2="251.21" y2="265.48" xlink:href="#linear-gradient"/><linearGradient id="linear-gradient-18" x1="373.79" y1="334.64" x2="294.21" y2="265.45" xlink:href="#linear-gradient"/><linearGradient id="linear-gradient-19" x1="382.33" y1="324.82" x2="302.75" y2="255.63" xlink:href="#linear-gradient"/><linearGradient id="linear-gradient-20" x1="250.42" y1="32.07" x2="250.42" y2="60.41" xlink:href="#linear-gradient"/></defs><g id="Layer_4" data-name="Layer 4"><path class="cls-1" d="M86.54,397.8h-6L79.32,389H72.87L71.6,397.8H65.76l6.67-38.6h7.44ZM76,367.48l-2.37,16.26h4.91l-2.37-16.26Z"/><path class="cls-1" d="M94.26,392.29H104v5.51H88.42V359.2h5.84Z"/><path class="cls-1" d="M120.62,361.08a9.25,9.25,0,0,1,2.43,6.84v2.64l-5.62.28v-2.32c0-3-1.15-4.46-3.42-4.46a3.22,3.22,0,0,0-2.57,1,4.37,4.37,0,0,0-.85,2.92V389q0,3.91,3.36,3.91a3,3,0,0,0,2.54-1.07,5.6,5.6,0,0,0,.82-3.39v-6.62H114v-5.41h9v12.63a8.44,8.44,0,0,1-9.21,9.27,9,9,0,0,1-6.73-2.43,9.39,9.39,0,0,1-2.37-6.84V367.92a9.39,9.39,0,0,1,2.37-6.84,9,9,0,0,1,6.73-2.43A9.16,9.16,0,0,1,120.62,361.08Z"/><path class="cls-1" d="M142.68,364.61H132.09v10.92h8.55v5.4h-8.55V392.4h10.59v5.4H126.25V359.2h16.43Z"/><path class="cls-1" d="M158.51,397.8l-4.64-16.32h-2.7V397.8h-5.84V359.2h8.43c3.17,0,5.57.84,7.23,2.51s2.48,4.09,2.48,7.26v2.75q0,6.12-4.14,8.49l5.35,17.59Zm-7.34-33.19v11.47h2.37a3.85,3.85,0,0,0,3.09-1.16,5.43,5.43,0,0,0,1-3.58v-2a5.41,5.41,0,0,0-1-3.58,3.82,3.82,0,0,0-3.09-1.16Z"/><path class="cls-1" d="M172.46,397.8h-5.85V359.2h5.85Z"/><path class="cls-1" d="M195.12,397.8h-6L187.9,389h-6.45l-1.27,8.76h-5.85L181,359.2h7.45Zm-10.53-30.32-2.37,16.26h4.91l-2.38-16.26Z"/><path class="cls-1" d="M216,397.8h-5.73l-7.67-25.58h-.11V397.8H197V359.2h6.5l6.9,23h.11v-23H216Z"/><path class="cls-1" d="M244.58,364.61H234v10.92h8.54v5.4H234V392.4h10.58v5.4H228.15V359.2h16.43Z"/><path class="cls-1" d="M266.26,397.8h-5.74l-7.66-25.58h-.11V397.8h-5.52V359.2h6.51l6.89,23h.11v-23h5.52Z"/><path class="cls-1" d="M285.5,361.08a9.25,9.25,0,0,1,2.43,6.84v2.64l-5.63.28v-2.32q0-4.45-3.42-4.46a3.19,3.19,0,0,0-2.56,1,4.37,4.37,0,0,0-.86,2.92V389c0,2.61,1.13,3.91,3.37,3.91a3,3,0,0,0,2.53-1.07,5.53,5.53,0,0,0,.83-3.39v-6.62h-3.31v-5.41h9.05v12.63a8.44,8.44,0,0,1-9.21,9.27,9,9,0,0,1-6.73-2.43,9.39,9.39,0,0,1-2.37-6.84V367.92a9.39,9.39,0,0,1,2.37-6.84,9,9,0,0,1,6.73-2.43A9.16,9.16,0,0,1,285.5,361.08Z"/><path class="cls-1" d="M297,397.8h-5.85V359.2H297Z"/><path class="cls-1" d="M320,397.8h-5.73l-7.67-25.58h-.11V397.8h-5.51V359.2h6.51l6.89,23h.11v-23H320Z"/><path class="cls-1" d="M340.37,364.61H329.78v10.92h8.55v5.4h-8.55V392.4h10.59v5.4H323.93V359.2h16.44Z"/><path class="cls-1" d="M359.45,364.61H348.86v10.92h8.55v5.4h-8.55V392.4h10.59v5.4H343V359.2h16.44Z"/><path class="cls-1" d="M375.27,397.8l-4.63-16.32h-2.7V397.8h-5.85V359.2h8.44q4.74,0,7.22,2.51c1.66,1.68,2.49,4.09,2.49,7.26v2.75q0,6.12-4.14,8.49l5.35,17.59Zm-7.33-33.19v11.47h2.37a3.85,3.85,0,0,0,3.09-1.16,5.43,5.43,0,0,0,1-3.58v-2a5.41,5.41,0,0,0-1-3.58,3.82,3.82,0,0,0-3.09-1.16Z"/><path class="cls-1" d="M389.22,397.8h-5.84V359.2h5.84Z"/><path class="cls-1" d="M412.22,397.8h-5.74l-7.66-25.58h-.11V397.8h-5.52V359.2h6.51l6.89,23h.11v-23h5.52Z"/><path class="cls-1" d="M431.46,361.08a9.25,9.25,0,0,1,2.43,6.84v2.64l-5.62.28v-2.32q0-4.45-3.42-4.46a3.22,3.22,0,0,0-2.57,1,4.37,4.37,0,0,0-.85,2.92V389q0,3.91,3.36,3.91a3,3,0,0,0,2.54-1.07,5.6,5.6,0,0,0,.82-3.39v-6.62h-3.3v-5.41h9v12.63a9.25,9.25,0,0,1-2.43,6.84,9.15,9.15,0,0,1-6.78,2.43,9,9,0,0,1-6.73-2.43,9.39,9.39,0,0,1-2.37-6.84V367.92a9.39,9.39,0,0,1,2.37-6.84,9,9,0,0,1,6.73-2.43A9.15,9.15,0,0,1,431.46,361.08Z"/><path class="cls-2" d="M99.81,436.94c0,1.35.07,3.45,0,4.72C95.53,448.18,88.34,451,81.29,451,71,451,65.7,444.58,65.7,434.17c0-9.37,3.9-19.72,11.17-26.24a22.61,22.61,0,0,1,15.44-5.77c4.72,0,8.47,1.8,10.12,4l2.62-3.82,2,.6a119.48,119.48,0,0,0-4.88,16H100c.52-3.6.37-7.87-.83-10.27A6.22,6.22,0,0,0,93.06,405c-3.15,0-6.52,1.5-9.44,5.1-5.48,6.89-8.17,16.56-8.17,25.48,0,3.67,1,7.12,2.09,8.69a7.9,7.9,0,0,0,6.53,3.38c6.82,0,10.86-3.75,14.09-10.72Z"/><path class="cls-2" d="M126,416.7c7.34,0,11.24,4.12,11.24,11.47,0,7.2-3.75,15.81-9.82,19.86A18,18,0,0,1,117.19,451c-5.09,0-11.39-1.8-11.39-11.32,0-7.12,3.82-15.14,9.52-19.42a17.75,17.75,0,0,1,10.57-3.52Zm-.3,2.63c-1.88,0-3.83,1.05-5.85,3.89-3.15,4.65-6.07,13.94-6.07,19.49,0,4.27,1.87,5.62,3.9,5.62,1.72,0,3.37-1,4.94-3,3.45-4.42,6.75-15.21,6.67-20.76,0-2.77-1-5.24-3.52-5.24Z"/><path class="cls-2" d="M196.42,441.59c-3.15,6.37-8.25,9.37-13,9.37-5.17,0-5.09-4.28-3.14-9.6s4.42-11.62,6.07-16c.82-2.25.37-4-1.2-4-5.55,0-11.92,11.69-14.47,18.89-.9,2.55-2.17,5.47-3.45,9.74-3.14.08-6.44.45-8.47.68,2.78-7.57,7.28-21.89,8.32-25.79.45-1.87.3-3.52-1.42-3.52-3.75,0-10.12,7.72-13.94,18.21a108.46,108.46,0,0,0-3.67,10.5c-3,.07-6.22.37-8.4.6,3.75-10.35,7.57-23.24,8.47-28,.23-1.2-.15-1.5-1-1.5h-4.19l.89-2.54c3.53-.38,9.67-.9,13.5-1.88-.68,2.63-2,8.1-3.15,11.54,3.75-5.39,9.14-11.54,16.19-11.54,4.79,0,5.47,3.75,4.19,8-.3,1.13-.52,1.95-1,3.22,3.9-5.47,9.44-11.24,16.49-11.24a5.31,5.31,0,0,1,4,1.5c1.88,2,.83,6.15,0,8.4-2.1,5.92-5.54,15-6.52,18.06-.3,1-.22,1.8.45,1.8,1.8,0,5-3.15,6.9-6.67Z"/><path class="cls-2" d="M208.41,420.15c.75-2.32,1.57-5.4,1.87-6.6a50.2,50.2,0,0,0,7.87-1.94l.3.37c-1.27,4-3,9.82-4.42,14.32,3.3-4.43,8.09-9.6,14.24-9.6,4.79,0,7.12,4.12,7.12,8.7,0,9.14-5.4,20-13.72,23.91a16.67,16.67,0,0,1-7,1.65c-2.4,0-5.1-.75-6.45-2.25-1.72,6.14-2.7,10-3.15,12.36-.37,1.5-.07,2,1.35,2.18l4.57.45-.67,2.47h-8.92c-3.6,0-7.87.15-11.84.52l.82-2.54,3.08-.45a3.18,3.18,0,0,0,2.92-2.33c3.37-9.59,7.64-24.81,10.57-35.22a26.64,26.64,0,0,1-5.85,2.92c-.3-.75-.6-1.57-.9-2.17A22.3,22.3,0,0,0,208.41,420.15Zm15.81,1c-3.15,0-7.42,5-10.19,10.8-1.8,3.15-4.05,8.92-4.05,11.76,0,3,1.8,4.35,4,4.35,1.8,0,4.05-1,6-3.6a34.77,34.77,0,0,0,6.82-19.18c0-2.25-.83-4.13-2.47-4.13Z"/><path class="cls-2" d="M265.74,442.26A19.55,19.55,0,0,1,249.4,451c-6.29,0-9.67-4-9.67-10.5,0-7.19,3.53-15.59,9.9-20.38a16.8,16.8,0,0,1,10-3.38c6.07,0,8.62,3.45,8.62,7.87,0,3.53-2.55,5.62-4.87,6.67C260,433,252.55,434.62,249,435.07a23.86,23.86,0,0,0-.6,5.17c0,3.89,1.28,6.82,4.88,6.82,4,0,8.17-2.7,10.86-8.85h1.28Zm-7.19-22.93c-1.88,0-6.07,2.24-9.15,13a37.2,37.2,0,0,0,8-2.25,7.47,7.47,0,0,0,4-7c0-2.33-.9-3.67-2.62-3.67Z"/><path class="cls-2" d="M290.48,442.56a15.13,15.13,0,0,1-13.05,8.4c-6.37,0-6.67-3.68-5.09-9l6.14-20.76-5-.45,1.28-2.77h4.72c1.12-3.68,2-6.67,2.55-8.92a56.94,56.94,0,0,0,9.29-1.65c-.67,1.5-2.32,6.44-3.6,10.57h7.57L294,420.75l-7.2.45c-1.35,3.9-5.69,18.81-6.82,23.53-.37,1.73-.15,2.55,1.2,2.55,2.78,0,6.67-4.34,8.1-7.79Z"/><path class="cls-2" d="M297.9,418.5c4.42-.37,10.56-.9,14.16-1.8l.23.3c-2.1,4.95-7.2,21.29-8.85,27.73-.22,1-.22,1.8.53,1.8,1.72,0,5.09-3.29,6.89-6.74l1.65,1.8c-3.37,6.44-8.17,9.37-13,9.37S294.3,447.51,296,442c1.73-5.7,4.65-14.39,6.07-19.57.3-1.05.08-1.35-.67-1.35-.9,0-3.15-.07-4.5,0Zm12.29-16.26c2.55,0,3.9,1.8,3.75,4.49a5.29,5.29,0,0,1-5.33,5.33,3.79,3.79,0,0,1-3.82-4.35,5.36,5.36,0,0,1,5.32-5.47Z"/><path class="cls-2" d="M335.22,442.56a15.1,15.1,0,0,1-13,8.4c-6.37,0-6.67-3.68-5.1-9,1.95-6.59,4.72-16,6.15-20.76l-5-.45,1.27-2.77h4.72c1.13-3.68,1.95-6.67,2.55-8.92a56.88,56.88,0,0,0,9.3-1.65c-.68,1.5-2.33,6.44-3.6,10.57H340l-1.28,2.77-7.19.45c-1.35,3.9-5.7,18.81-6.82,23.53-.38,1.73-.15,2.55,1.2,2.55,2.77,0,6.67-4.34,8.09-7.79Z"/><path class="cls-2" d="M342.64,418.5c4.42-.37,10.57-.9,14.17-1.8l.22.3c-2.1,4.95-7.19,21.29-8.84,27.73-.23,1-.23,1.8.52,1.8,1.73,0,5.1-3.29,6.9-6.74l1.65,1.8c-3.38,6.44-8.17,9.37-13,9.37s-5.25-3.45-3.52-8.92c1.72-5.7,4.64-14.39,6.07-19.57.3-1.05.07-1.35-.68-1.35-.9,0-3.14-.07-4.49,0Zm12.29-16.26c2.55,0,3.9,1.8,3.75,4.49a5.29,5.29,0,0,1-5.32,5.33c-2.18,0-4-1.58-3.82-4.35a5.36,5.36,0,0,1,5.32-5.47Z"/><path class="cls-2" d="M381.17,416.7c7.34,0,11.24,4.12,11.24,11.47,0,7.2-3.75,15.81-9.82,19.86A18,18,0,0,1,372.32,451c-5.1,0-11.39-1.8-11.39-11.32,0-7.12,3.82-15.14,9.52-19.42A17.73,17.73,0,0,1,381,416.7Zm-.3,2.63c-1.88,0-3.83,1.05-5.85,3.89-3.15,4.65-6.07,13.94-6.07,19.49,0,4.27,1.87,5.62,3.9,5.62,1.72,0,3.37-1,4.94-3,3.45-4.42,6.75-15.21,6.67-20.76,0-2.77-1-5.24-3.52-5.24Z"/><path class="cls-2" d="M432.43,441.59c-3.22,6.37-8.32,9.37-13,9.37-5,0-5.1-4-3.15-9.6,1.87-5.25,4.57-12.44,6-16.56.75-1.95.3-3.45-1.35-3.45-5.32,0-11.47,10.64-14.17,18.14A105.1,105.1,0,0,0,403.13,450c-3.23.08-6.15.45-8.4.68,3.3-9.15,7.57-23.54,8.32-28.19.15-1,.08-1.35-.6-1.35l-4.42.08.9-2.62A77.71,77.71,0,0,0,412,416.7c-.75,3.3-1.87,7.72-3,11.69,3.89-5.92,9.36-11.69,16.41-11.69a5.51,5.51,0,0,1,3.67,1.2c2.1,1.65,1.65,5.85.45,9.3-1.8,5.17-4.49,11.84-6.14,17.53-.3.9-.08,1.73.52,1.73,1.8,0,4.87-3.08,6.82-6.75Z"/><path class="cls-3" d="M101.67,434.83c0,1.35.08,3.45,0,4.73-4.27,6.52-11.47,9.36-18.51,9.36-10.34,0-15.59-6.44-15.59-16.86,0-9.37,3.9-19.71,11.17-26.23a22.54,22.54,0,0,1,15.44-5.77c4.72,0,8.47,1.8,10.12,4l2.62-3.82,2,.6a122,122,0,0,0-4.87,16h-2.25c.53-3.6.38-7.87-.82-10.27a6.24,6.24,0,0,0-6.07-3.75c-3.15,0-6.52,1.5-9.45,5.1-5.47,6.9-8.17,16.57-8.17,25.48,0,3.68,1,7.13,2.1,8.7a7.9,7.9,0,0,0,6.52,3.37c6.82,0,10.87-3.75,14.09-10.72Z"/><path class="cls-4" d="M127.9,414.6c7.35,0,11.25,4.12,11.25,11.46s-3.75,15.82-9.82,19.87a18,18,0,0,1-10.27,2.92c-5.1,0-11.39-1.8-11.39-11.32,0-7.12,3.82-15.14,9.52-19.41a17.72,17.72,0,0,1,10.56-3.52Zm-.3,2.62c-1.87,0-3.82,1-5.84,3.9-3.15,4.64-6.07,13.94-6.07,19.49,0,4.27,1.87,5.62,3.89,5.62,1.73,0,3.38-1,5-3,3.45-4.42,6.75-15.22,6.67-20.76,0-2.78-1-5.25-3.52-5.25Z"/><path class="cls-5" d="M198.28,439.48c-3.15,6.37-8.24,9.37-13,9.37-5.17,0-5.1-4.27-3.15-9.59s4.43-11.62,6.07-16c.83-2.25.38-4-1.2-4-5.54,0-11.91,11.7-14.46,18.89-.9,2.55-2.17,5.47-3.45,9.75-3.15.07-6.44.45-8.47.67,2.78-7.57,7.27-21.89,8.32-25.78.45-1.88.3-3.53-1.42-3.53-3.75,0-10.12,7.72-13.94,18.22A106.89,106.89,0,0,0,149.86,448c-3,.08-6.22.38-8.39.6,3.75-10.34,7.57-23.24,8.47-28,.22-1.2-.15-1.5-1.05-1.5h-4.2l.9-2.55c3.52-.37,9.67-.9,13.49-1.87-.67,2.62-2,8.09-3.14,11.54,3.74-5.4,9.14-11.54,16.18-11.54,4.8,0,5.48,3.74,4.2,8-.3,1.12-.52,1.95-1,3.22,3.89-5.47,9.44-11.24,16.49-11.24a5.31,5.31,0,0,1,4,1.5c1.87,2,.82,6.14,0,8.39-2.1,5.92-5.55,15-6.52,18.06-.3,1-.23,1.8.45,1.8,1.8,0,5-3.15,6.89-6.67Z"/><path class="cls-6" d="M210.27,418c.75-2.32,1.58-5.39,1.88-6.59A50.52,50.52,0,0,0,220,409.5l.3.38c-1.28,4-3,9.81-4.43,14.31,3.3-4.42,8.1-9.59,14.24-9.59,4.8,0,7.13,4.12,7.13,8.69,0,9.15-5.4,20-13.72,23.91a16.53,16.53,0,0,1-7,1.65c-2.39,0-5.09-.75-6.44-2.25-1.73,6.15-2.7,10-3.15,12.37-.37,1.5-.07,2,1.35,2.17l4.57.45-.67,2.47h-8.92c-3.6,0-7.87.15-11.84.53l.82-2.55,3.07-.45c1.5-.3,2.33-.67,2.93-2.32,3.37-9.6,7.64-24.81,10.56-35.23a26,26,0,0,1-5.84,2.92c-.3-.75-.6-1.57-.9-2.17A22.07,22.07,0,0,0,210.27,418Zm15.82,1c-3.15,0-7.42,5-10.2,10.79-1.79,3.15-4,8.92-4,11.77,0,3,1.8,4.35,4,4.35,1.8,0,4.05-1.05,6-3.6,3.67-4.5,6.82-12.89,6.82-19.19,0-2.25-.83-4.12-2.48-4.12Z"/><path class="cls-7" d="M267.61,440.16a19.56,19.56,0,0,1-16.34,8.69c-6.3,0-9.67-4-9.67-10.49,0-7.2,3.52-15.59,9.9-20.39a16.86,16.86,0,0,1,10-3.37c6.07,0,8.62,3.44,8.62,7.87,0,3.52-2.55,5.62-4.87,6.67-3.45,1.72-10.87,3.37-14.47,3.82a23.86,23.86,0,0,0-.6,5.17c0,3.9,1.28,6.82,4.87,6.82,4,0,8.17-2.7,10.87-8.84h1.28Zm-7.2-22.94c-1.87,0-6.07,2.25-9.14,13a37.79,37.79,0,0,0,8-2.25,7.48,7.48,0,0,0,4-7.05c0-2.32-.9-3.67-2.63-3.67Z"/><path class="cls-8" d="M292.34,440.46a15.09,15.09,0,0,1-13,8.39c-6.37,0-6.67-3.67-5.1-9,1.95-6.6,4.73-16,6.15-20.77l-5-.45,1.27-2.77h4.73c1.12-3.67,1.94-6.67,2.54-8.92a55.83,55.83,0,0,0,9.3-1.65c-.68,1.5-2.33,6.45-3.6,10.57h7.57l-1.27,2.77-7.2.45c-1.35,3.9-5.7,18.82-6.82,23.54-.37,1.72-.15,2.55,1.2,2.55,2.77,0,6.67-4.35,8.09-7.8Z"/><path class="cls-9" d="M299.76,416.4c4.43-.38,10.57-.9,14.17-1.8l.22.3c-2.1,4.94-7.19,21.28-8.84,27.73-.23,1-.23,1.8.52,1.8,1.73,0,5.1-3.3,6.9-6.75l1.65,1.8c-3.37,6.45-8.17,9.37-13,9.37s-5.24-3.45-3.52-8.92c1.72-5.7,4.65-14.39,6.07-19.56.3-1.05.08-1.35-.67-1.35-.9,0-3.15-.08-4.5,0Zm12.29-16.27c2.55,0,3.9,1.8,3.75,4.5a5.28,5.28,0,0,1-5.32,5.32c-2.17,0-4-1.57-3.82-4.35a5.36,5.36,0,0,1,5.32-5.47Z"/><path class="cls-10" d="M337.09,440.46a15.11,15.11,0,0,1-13,8.39c-6.37,0-6.67-3.67-5.1-9,1.95-6.6,4.72-16,6.15-20.77l-5-.45,1.28-2.77h4.72c1.12-3.67,1.95-6.67,2.55-8.92a55.69,55.69,0,0,0,9.29-1.65c-.67,1.5-2.32,6.45-3.6,10.57h7.57l-1.27,2.77-7.19.45c-1.35,3.9-5.7,18.82-6.83,23.54-.37,1.72-.14,2.55,1.2,2.55,2.78,0,6.67-4.35,8.1-7.8Z"/><path class="cls-11" d="M344.51,416.4c4.42-.38,10.57-.9,14.16-1.8l.23.3c-2.1,4.94-7.2,21.28-8.85,27.73-.22,1-.22,1.8.53,1.8,1.72,0,5.1-3.3,6.89-6.75l1.65,1.8c-3.37,6.45-8.17,9.37-13,9.37s-5.25-3.45-3.53-8.92c1.73-5.7,4.65-14.39,6.07-19.56.3-1.05.08-1.35-.67-1.35s-3.15-.08-4.5,0Zm12.29-16.27c2.55,0,3.9,1.8,3.75,4.5a5.28,5.28,0,0,1-5.32,5.32c-2.18,0-4-1.57-3.83-4.35a5.37,5.37,0,0,1,5.32-5.47Z"/><path class="cls-12" d="M383,414.6c7.35,0,11.24,4.12,11.24,11.46s-3.74,15.82-9.81,19.87a18,18,0,0,1-10.27,2.92c-5.1,0-11.39-1.8-11.39-11.32,0-7.12,3.82-15.14,9.51-19.41a17.75,17.75,0,0,1,10.57-3.52Zm-.3,2.62c-1.87,0-3.82,1-5.84,3.9-3.15,4.64-6.08,13.94-6.08,19.49,0,4.27,1.88,5.62,3.9,5.62,1.73,0,3.38-1,5-3,3.45-4.42,6.74-15.22,6.67-20.76,0-2.78-1-5.25-3.52-5.25Z"/><path class="cls-13" d="M434.3,439.48c-3.23,6.37-8.32,9.37-13,9.37-5,0-5.1-4.05-3.15-9.59,1.87-5.25,4.57-12.45,6-16.57.75-1.95.3-3.45-1.34-3.45-5.33,0-11.47,10.65-14.17,18.14a108.63,108.63,0,0,0-3.6,10.5c-3.22.07-6.14.45-8.39.67,3.3-9.14,7.57-23.53,8.32-28.18.15-1,.07-1.35-.6-1.35l-4.42.07.89-2.62a77.81,77.81,0,0,0,13.12-1.87c-.75,3.29-1.87,7.72-3,11.69,3.9-5.92,9.37-11.69,16.42-11.69a5.46,5.46,0,0,1,3.67,1.2c2.1,1.65,1.65,5.84.45,9.29-1.8,5.17-4.5,11.84-6.15,17.54-.3.9-.07,1.72.53,1.72,1.8,0,4.87-3.07,6.82-6.74Z"/><path class="cls-1" d="M259,92.31a2.35,2.35,0,0,0-.24-1.7c-3.16-4.18-3.71-9.14-4.25-14.09-.29-2.66-.41-14.65-.6-17.49l-1.54,0V192.5a3.22,3.22,0,0,1,1.42-.42l2.54-.12a4.39,4.39,0,0,1,2.35.58,276.63,276.63,0,0,1-4.43-59.8A243.24,243.24,0,0,1,259,92.31Z"/><path class="cls-1" d="M246.79,59.08h1.65v259c-2.12-.49-4-1.93-6-4.41-2.32-2.92-4.1-6.26-6.26-9.31-5-7.07-10-14.14-15.17-21.08-2.45-3.29-3.27-6.51-1.68-10.45a401.76,401.76,0,0,0,20.84-70.44c4.71-23,7.28-46.17,6.31-69.66a243.49,243.49,0,0,0-4.75-40.43,2.32,2.32,0,0,1,.24-1.69c3.16-4.18,3.71-9.15,4.25-14.1C246.51,73.86,246.6,61.63,246.79,59.08Z"/><path class="cls-1" d="M241.79,119.1a253.71,253.71,0,0,0-12.06-56.42A242.93,242.93,0,0,0,216.52,31c-.59-1.17-1.26-2.54-2.87-1.83s-1,2.15-.57,3.36c.86,2.24,1.81,4.44,2.7,6.68.54,1.35,1,2.71,1.55,4.07a2.22,2.22,0,0,1-1.08-.42c-3.2-1.82-6.38-3.68-9.63-5.4a2.34,2.34,0,0,0-2.13.17c-.42.38-.38,1.38-.34,2.1a5.76,5.76,0,0,0,.56,1.75c8.58,21.26,12.63,43.5,14.34,66.25a252.58,252.58,0,0,1,.25,36.39c-.77,11.2-2,22.38-3.15,33.56-.39,3.91-1.1,7.79-1.66,11.69l.43.11a160.25,160.25,0,0,0,18.23-57.81c0,.55,0,1.09,0,1.64A126.08,126.08,0,0,1,227.6,168c-3.79,12.65-9.45,24.46-15.92,35.94a217.47,217.47,0,0,1-33.77,45.54,194.37,194.37,0,0,1-70.39,46.18,17.06,17.06,0,0,0-2.14,1,5.88,5.88,0,0,0-1.82,9.36,22.62,22.62,0,0,0,2.72,2.73c10.16,8.88,20.69,17.29,32.41,24a114.07,114.07,0,0,0,13.78,6.86c5.54,2.24,9.38,1,13.32-3.52A344.63,344.63,0,0,0,192,301.9a306.34,306.34,0,0,0,35.42-71,285,285,0,0,0,12.86-53.36A246.94,246.94,0,0,0,241.79,119.1ZM206.05,233.47a170.15,170.15,0,0,1-44.16,57.11c-4.76,4.06-9.73,7.87-14.58,11.82-1,.79-1.84,1-2.74-.1s-.78-1.9.37-2.78c4.16-3.2,8.38-6.34,12.39-9.74,20.73-17.58,38.41-37.69,50.89-62.06.17-.34.36-.67.54-1l.26.11C208,229.05,207.08,231.28,206.05,233.47Z"/><path class="cls-14" d="M263.68,84.45l.36-.08a.45.45,0,0,0,.18-.07C270.6,79.12,277,74,283.34,68.73a4.28,4.28,0,0,0,1.17-1.94c1.37-4.43,2.63-8.89,4-13.31a4.51,4.51,0,0,1,1.4-1.61c.64-.57,1.42-1,2.08-1.59a4.85,4.85,0,0,0,.91-1,5.66,5.66,0,0,0,.89-4,6.18,6.18,0,0,0-2.73-4.21,6.06,6.06,0,0,0-8,1.24,4.22,4.22,0,0,0-.27.36A5.9,5.9,0,0,0,284.11,51a1.77,1.77,0,0,1,.75,2.47A61,61,0,0,0,282.6,61a12.76,12.76,0,0,1-5.76,8.57c-2.06,1.38-3.9,3.09-5.94,4.74-.15-3.95-.12-4,2.59-6.34.59-.51,1.16-1.06,1.8-1.51a3.67,3.67,0,0,0,1.64-3.26c0-1.73.23-3.46.3-5.19a2.85,2.85,0,0,1,1.34-2.62,3.94,3.94,0,0,0,.62-5.79,4.13,4.13,0,0,0-5.73-.49c-1.68,1.38-2.13,4.32-.41,5.64h0c1.74,1.34,1.59,2.79,1.41,4.5a21.75,21.75,0,0,0-.17,2.67A3.6,3.6,0,0,1,272.73,65c-4.37,3.51-4.41,3.54-4.6,9.21-.06,1.93-.58,3.44-2.27,4.31l-.41.23C263.3,80.15,263.74,82.3,263.68,84.45Z"/><path class="cls-15" d="M275.76,82.62c.35.31.63.58.94.81a3.93,3.93,0,0,0,5.75-.85,4.2,4.2,0,0,0-1.22-5.87,3.81,3.81,0,0,0-5.59,1.46,9.13,9.13,0,0,1-3.12,3.55c-2.4,1.92-4.71,4-7.26,5.67-1.86,1.25-1.77,2.78-1.59,4.82Z"/><path class="cls-16" d="M276,218.34c-.58-.15-1.36-.51-1.54-1-.73-1.85-1.19-3.72,1-5.11,1.59-1,1.6-2.26.61-3.91-1.94-3.19-1.84-3.26-5.46-2.4a3.17,3.17,0,0,1-3.74-3.7c.91-3.76.91-3.76-2.53-5.67-.15-.09-.3-.15-.44-.25a1.78,1.78,0,0,0-2.83.42,11.86,11.86,0,0,1-1.17,1.33c-.16-.82-.32-1.65-.47-2.47a2.79,2.79,0,0,0-2.84-2.12l-2.53.11a1.56,1.56,0,0,0-1.49,1.56v8.44a17.43,17.43,0,0,1,9.18,3.57,19,19,0,0,1,7.66,14.19,19.5,19.5,0,0,1-1.84,9.69,19.05,19.05,0,0,1-15,10.78V252c1.74-.44,1.91-1,2.65-3.82a2.51,2.51,0,0,1,.18-.64,1.46,1.46,0,0,1,.55-.58c2.14-1.09,3.14-.86,4.88.94,2.12,2.2,1.27,2.15,4.22.58l0,0c3.82-2.53,3.34-1.35,2.24-5.48a3,3,0,0,1-.13-1.89,3.13,3.13,0,0,1,2.66-2,5.9,5.9,0,0,1,1.81.24c3,.84,2.48,1.15,4.07-1.68,1.79-3.16,1.75-3.15-.78-5.71a2.86,2.86,0,0,1-.93-1.77c.15-2.61.54-3,3.06-3.75s2.59-.76,2.61-3.34C279.65,219.28,279.64,219.3,276,218.34Z"/><path class="cls-17" d="M264.5,222.28a12.64,12.64,0,0,0-4.11-9.52,17.67,17.67,0,0,0-7.9-3.83v27.65A14,14,0,0,0,263.85,227,14.17,14.17,0,0,0,264.5,222.28Z"/><path class="cls-18" d="M252.37,259.81v27.91C258.58,280,258.86,267.8,252.37,259.81Z"/><path class="cls-19" d="M279.9,273.16c-.21,2.33-.29,4.68-.33,7,0,1.13-.53,1.52-1.59,1.69-1.92.32-3.82.84-5.75,1.17a1.56,1.56,0,0,0-1.54,1.41,10,10,0,0,1-.84,2.88c-.88,1.7-.34,2.87,1,4a22.44,22.44,0,0,1,1.7,1.81,8.63,8.63,0,0,0,.86.85,2.27,2.27,0,0,1,.42,3.57c-1.41,1.94-2.7,4-4,6a1.28,1.28,0,0,1-1.81.57c-.88-.31-1.76-.63-2.64-.93-1.08-.36-2.16-.69-3.25-1a3.14,3.14,0,0,0-2,.49c-.56.31-.9,1.05-1.46,1.36-2.32,1.27-2.51,3.1-1.54,5.29a.85.85,0,0,1,0,.17c1.19,4.84,1.19,4.84-3.31,7.22-.48.26-1,.5-1.45.73V297l.49-.46c11.66-11.22,13.14-28.1,3.49-41.13-1.35-1.81-.47-3.44.22-4.81.42-.84,2.15-1.32,3.32-1.38.68,0,1.52,1,2.09,1.75,1,1.24,1.85,1.21,3.1.39,2.14-1.4,4.39-2.65,6.92-4.15l.36.69c1.59,3,3.09,5.92,4.63,8.86l-1.27,1.11c-1.43,1.25-2.8,2.45-4.22,3.58a1.76,1.76,0,0,0-.66,2.28,6.79,6.79,0,0,1,.48,1.95c.08,2.41,1.14,3.77,3.65,4,.93.07,1.81.64,2.74.76C279.43,270.58,280.05,271.43,279.9,273.16Z"/><path class="cls-1" d="M291.3,232.21c-1.78,2.1-1.54,4.81.63,7.08.42.45.86.84,1.29,1.23l.51.46c2.66,2.44,2.92,4.05,1.16,7.18-2.28,4.05-3.62,4.59-8,3.24l-.44-.13c-.38-.11-.74-.22-1.07-.35a6.62,6.62,0,0,0-2.19-.44,5.18,5.18,0,0,0-2,.36c-.7-1.47-1.4-2.94-2.16-4.38a2.86,2.86,0,0,1-.07-2.83c.83-1.77,1.51-3.61,2.39-5.35a1.93,1.93,0,0,0-.38-2.53c-.08-.08-.13-.2-.22-.26-2.67-1.88-1.5-4.3-.89-6.61.07-.29.5-.52.81-.72a3.17,3.17,0,0,1,.79-.24c4.35-1.31,4.35-1.31,4.21-5.92v0a3.32,3.32,0,0,0-2.54-3.12,18.28,18.28,0,0,1-2-.58c-.61-.22-1-.93-1.55-1.43-.07-.07,0-.22-.09-.32-1.15-2.22-.54-3.82,1.32-5.49,2.35-2.1,2.23-1.44.6-4.22-2.79-4.78-1.38-4-6.41-2.79-2.12.52-4.92-2.17-4.43-4.33,0-.11.07-.21.09-.32.25-1.41,1.2-3.48.62-4.09-1.41-1.47-3.52-2.28-5.38-3.29-.21-.11-.7.14-1,.33-.48.35-.9.78-1.53,1.34-2.45-11.31-4.13-19.28-5-26.38v-.07c-.18-1.75-.34-3.49-.48-5.24a1.09,1.09,0,0,1,0-.18c-.07-.82-.13-1.63-.18-2.44a.45.45,0,0,1,0-.11c-.06-.8-.11-1.6-.16-2.4s-.09-1.56-.13-2.34c0-.13,0-.26,0-.39l-.09-2c0-.14,0-.28,0-.43,0-.72-.06-1.44-.08-2.16,0-.07,0-.14,0-.22,0-.66,0-1.32-.05-2,0-.19,0-.38,0-.58,0-.77,0-1.54,0-2.31s0-1.64,0-2.47q0-11.43,1.08-22.89c.11-1.21.24-2.42.37-3.63.05-.48.11-1,.17-1.45,0-.21,0-.42.07-.64l.18-1.49.15-1.17c0-.32.08-.64.13-1l.24-1.76c.06-.45.13-.9.2-1.35l.33-2.19c.14-.88.28-1.76.43-2.64.22-1.33.45-2.64.69-4l14.57-12.78s2.18,2.74,7.65,1c0,.17-.06.34-.08.52q-.31,2.1-.6,4.2l-.09.66c-.06.48-.13,1-.18,1.45-.09.7-.18,1.41-.26,2.11s-.17,1.41-.24,2.11-.16,1.42-.23,2.12c0,.48-.1,1-.14,1.43l-.12,1.21c0,.29-.05.58-.08.88l-.18,2,0,.33-.21,2.63a252.59,252.59,0,0,0-.25,36.39c.77,11.21,2,22.38,3.15,33.56.39,3.91,1.1,7.8,1.66,11.69l-.43.11c-.61-1.12-1.2-2.26-1.78-3.4-.86-1.71-1.7-3.42-2.5-5.14a162.75,162.75,0,0,1-8.21-21.47c-.73-2.43-1.41-4.89-2-7.36-.24-1-.48-2-.71-3-.12-.5-.23-1-.34-1.49-.22-1-.43-2-.63-3-.3-1.51-.58-3-.84-4.54q-.26-1.53-.48-3.06c-.08-.51-.15-1-.22-1.53h0c-.09-.64-.18-1.27-.26-1.91s-.16-1.28-.23-1.92v1.64A126.21,126.21,0,0,0,272.4,168c3.79,12.64,9.45,24.45,15.92,35.93.32.57.64,1.14,1,1.71l1,1.7.92,1.55.13.23,1,1.59c.51.84,1,1.67,1.54,2.5s1,1.66,1.57,2.49c.33.51.66,1,1,1.54l.12.19.84,1.27c.42.64.84,1.27,1.27,1.9q1.1,1.62,2.22,3.21l.28.4a5.67,5.67,0,0,0-3.18,1.33,42.4,42.4,0,0,0-5.3,5.15l-.42.48-.11.13Z"/><path class="cls-20" d="M396.81,298.19a5.75,5.75,0,0,0-1.93-1.44,3.12,3.12,0,0,0-.42-.18c-6.2-2.3-11.06-3.64-16-5.58l-.21.53a40,40,0,0,1-36.81,25.05c-17.42,0-32.61-11.19-38.29-28.34-.15-.46-.29-.93-.43-1.39-.2-.71-.38-1.41-.53-2.13s-.29-1.43-.41-2.15-.2-1.45-.27-2.18l-.06-.73c0-.48-.06-1-.09-1.45s0-1,0-1.47v-.68c0-.26,0-.52,0-.78l0-.56c0-.22,0-.45,0-.67s0-.29,0-.43,0-.29,0-.43,0-.33,0-.49,0-.45.07-.67c.07-.64.17-1.28.28-1.92,0-.15.05-.3.08-.45.05-.33.11-.64.18-1s.09-.45.14-.67l.15-.65.15-.6c.06-.24.12-.48.19-.71q.17-.63.36-1.26l0-.07c.13-.42.26-.84.41-1.25s.3-.85.46-1.27c.08-.2.15-.4.23-.59l0-.07c.08-.2.16-.4.25-.59.41-1,.85-1.93,1.34-2.87v0l0-.08c.1-.19.29-.56.56-1l.22-.39c.08-.14.16-.28.25-.42.19-.33.39-.65.59-1s.51-.78.78-1.17l.61-.87c.19-.27.39-.53.59-.79l0-.05.3-.37a35.76,35.76,0,0,1,3.19-3.55l.37-.35.5-.47.4-.36.63-.53.45-.37c.38-.31.77-.61,1.16-.9l.95-.78a207.78,207.78,0,0,1-14.87-18.28,3.2,3.2,0,0,0-3.56.65,40.85,40.85,0,0,0-5.07,4.95c-.18.19-.35.39-.51.58s-.53.61-.79.91c-1.3,1.52-.78,3.22.55,4.61.54.56,1.14,1.06,1.72,1.6,3.3,3,3.71,5.56,1.52,9.45-2.71,4.81-4.92,5.71-10.12,4.1-.55-.17-1.1-.32-1.63-.52a4.63,4.63,0,0,0-1.57-.32,3.08,3.08,0,0,0-2,.65,3.3,3.3,0,0,0-1.05,1.47,50.66,50.66,0,0,0-2.42,9.16c-.31,1.79.88,3.05,2.74,3.5.84.21,1.68.44,2.51.68l1.6.46a4.74,4.74,0,0,1,3.71,3.73,24,24,0,0,1,.2,6.5c-.32,2.65-2.09,4.26-4.75,4.82-1.24.26-2.5.49-3.73.83a4.27,4.27,0,0,0-.54.18,3.63,3.63,0,0,0-1,.54l0,0a3,3,0,0,0-.48.46h0a3.2,3.2,0,0,0-.65,2.59,35.46,35.46,0,0,0,1.4,7.06c.69,1.94,1.35,3.08,2.29,3.59s2.47.38,4.68-.32a19.24,19.24,0,0,1,2.68-.71,4.79,4.79,0,0,1,4.85,1.51,25.82,25.82,0,0,1,3.34,5.62,5.38,5.38,0,0,1-1.62,6.37c-.84.77-1.73,1.47-2.55,2.26a7.27,7.27,0,0,0-.55.57c-1.24,1.43-1.35,2.75-.19,4.55a25,25,0,0,0,3.48,4.27c2.09,2.06,3.51,3.06,4.9,3s2.7-1.17,4.62-3.28c1.38-1.52,3-2.7,5.15-2.56,6.49.42,10,5.46,8.06,11.63a9.51,9.51,0,0,0-.59,3.61h0c.19,1.7,1.47,2.59,4.25,3.51.61.21,1.23.36,1.85.53,3.67,1.07,5.59,1.42,6.85.48,1.05-.77,1.65-2.41,2.42-5.23l0-.12c1.17-4.16,3.15-5.45,8.25-5.38,4.29.06,6.34,1.62,7.35,5.66.23.89.34,1.81.55,2.71a7.53,7.53,0,0,0,.45,1.32l.12.24c.66,1.22,1.73,1.71,3.49,1.59a26.13,26.13,0,0,0,5.43-.92c2.78-.8,4.32-1.54,5-2.77s.41-2.63-.28-5c-.06-.22-.13-.45-.21-.7a4,4,0,0,1-.35-1.22c0-1.26-.17-2.66.31-3.74A8.62,8.62,0,0,1,376,323a7.65,7.65,0,0,1,.9.9c.38.43.73.88,1.12,1.29,1.09,1.16,2.07,1.77,3.14,1.7a3.9,3.9,0,0,0,2.09-.95,50,50,0,0,0,6.34-6.18,3.38,3.38,0,0,0,.85-1.77,3.79,3.79,0,0,0-1.21-3c-.43-.46-.89-.9-1.35-1.33s-1.05-1-1.54-1.49a5.35,5.35,0,0,1-1.41-5.88,19.41,19.41,0,0,1,2.35-4.49c1.93-2.68,4.07-3.28,7.27-2.38.89.25,1.77.52,2.66.78l.57.14.21.05A5.72,5.72,0,0,0,396.81,298.19Z"/><path class="cls-21" d="M369.85,286.74A30.3,30.3,0,1,1,324,251.54C341.58,269.61,357.85,280.42,369.85,286.74Z"/><path class="cls-22" d="M251.43,45.5V44.09c.06-.39.42-.39.73-.39.78,0,.75-.33.67-.92-.63-4.38-1.18-8.76-1.77-13.15-.08-.62-.2-1.23-.31-1.84h-.66c-.09.61-.22,1.22-.3,1.84C249.2,34,248.64,38.4,248,42.78c-.09.59-.11.93.67.92.31,0,.67,0,.73.39V45.5a7.53,7.53,0,1,0,2,0Zm-1,12.08A4.64,4.64,0,1,1,255.06,53,4.63,4.63,0,0,1,250.43,57.58Z"/></g></svg>