<?xml version="1.0" encoding="UTF-8"?>
<svg id="Layer_2" data-name="Layer 2" xmlns="http://www.w3.org/2000/svg" viewBox="0 0 574.43 143.68">
  <defs>
    <style>
      .cls-1 {
        fill: #fff;
        stroke: #10375c;
        stroke-miterlimit: 10;
        stroke-width: 2px;
      }
    </style>
  </defs>
  <g id="Layer_1-2" data-name="Layer 1">
    <g>
      <g>
        <path class="cls-1" d="M33.46,61.77h-9.24l-1.97-13.61H12.23l-1.97,13.61H1.19L11.54,1.86h11.55l10.36,59.91ZM17.11,14.69l-3.68,25.25h7.62l-3.68-25.25h-.26Z"/>
        <path class="cls-1" d="M45.44,53.21h15.15v8.56h-24.22V1.86h9.07V53.21Z"/>
        <path class="cls-1" d="M86.35,4.77c2.51,2.51,3.77,6.05,3.77,10.61v4.11l-8.73,.43v-3.59c0-4.62-1.77-6.93-5.31-6.93-1.77,0-3.1,.51-3.98,1.54-.89,1.03-1.33,2.54-1.33,4.54V48.16c0,4.05,1.74,6.08,5.22,6.08,1.77,0,3.08-.56,3.94-1.67,.86-1.11,1.28-2.87,1.28-5.26v-10.27h-5.14v-8.39h14.04v19.6c0,4.57-1.26,8.1-3.77,10.61-2.51,2.51-6.02,3.77-10.53,3.77s-7.99-1.25-10.44-3.77c-2.45-2.51-3.68-6.05-3.68-10.61V15.38c0-4.56,1.23-8.1,3.68-10.61,2.45-2.51,5.93-3.77,10.44-3.77s8.02,1.26,10.53,3.77Z"/>
        <path class="cls-1" d="M120.59,10.24h-16.43V27.19h13.27v8.39h-13.27v17.8h16.43v8.39h-25.51V1.86h25.51V10.24Z"/>
        <path class="cls-1" d="M145.15,61.77l-7.19-25.34h-4.19v25.34h-9.07V1.86h13.1c4.91,0,8.65,1.3,11.21,3.89,2.57,2.6,3.85,6.35,3.85,11.26v4.28c0,6.33-2.14,10.73-6.42,13.18l8.3,27.3h-9.59Zm-11.38-51.53V28.05h3.68c2.17,0,3.77-.6,4.79-1.8,1.03-1.2,1.54-3.05,1.54-5.56v-3.08c0-2.51-.51-4.37-1.54-5.56-1.03-1.2-2.63-1.8-4.79-1.8h-3.68Z"/>
        <path class="cls-1" d="M166.81,61.77h-9.07V1.86h9.07V61.77Z"/>
        <path class="cls-1" d="M201.99,61.77h-9.24l-1.97-13.61h-10.01l-1.97,13.61h-9.07L180.08,1.86h11.55l10.36,59.91Zm-16.35-47.08l-3.68,25.25h7.62l-3.68-25.25h-.26Z"/>
        <path class="cls-1" d="M234.43,61.77h-8.9l-11.9-39.71h-.17V61.77h-8.56V1.86h10.1l10.7,35.69h.17V1.86h8.56V61.77Z"/>
        <path class="cls-1" d="M278.76,10.24h-16.43V27.19h13.27v8.39h-13.27v17.8h16.43v8.39h-25.51V1.86h25.51V10.24Z"/>
        <path class="cls-1" d="M312.4,61.77h-8.9l-11.9-39.71h-.17V61.77h-8.56V1.86h10.1l10.7,35.69h.17V1.86h8.56V61.77Z"/>
        <path class="cls-1" d="M342.27,4.77c2.51,2.51,3.77,6.05,3.77,10.61v4.11l-8.73,.43v-3.59c0-4.62-1.77-6.93-5.31-6.93-1.77,0-3.1,.51-3.98,1.54-.89,1.03-1.33,2.54-1.33,4.54V48.16c0,4.05,1.74,6.08,5.22,6.08,1.77,0,3.08-.56,3.94-1.67,.86-1.11,1.28-2.87,1.28-5.26v-10.27h-5.14v-8.39h14.04v19.6c0,4.57-1.26,8.1-3.77,10.61-2.51,2.51-6.02,3.77-10.53,3.77s-7.99-1.25-10.44-3.77c-2.45-2.51-3.68-6.05-3.68-10.61V15.38c0-4.56,1.23-8.1,3.68-10.61,2.45-2.51,5.93-3.77,10.44-3.77s8.02,1.26,10.53,3.77Z"/>
        <path class="cls-1" d="M360.08,61.77h-9.07V1.86h9.07V61.77Z"/>
        <path class="cls-1" d="M395.77,61.77h-8.9l-11.9-39.71h-.17V61.77h-8.56V1.86h10.1l10.7,35.69h.17V1.86h8.56V61.77Z"/>
        <path class="cls-1" d="M427.44,10.24h-16.43V27.19h13.27v8.39h-13.27v17.8h16.43v8.39h-25.51V1.86h25.51V10.24Z"/>
        <path class="cls-1" d="M457.05,10.24h-16.43V27.19h13.27v8.39h-13.27v17.8h16.43v8.39h-25.51V1.86h25.51V10.24Z"/>
        <path class="cls-1" d="M481.62,61.77l-7.19-25.34h-4.19v25.34h-9.07V1.86h13.1c4.91,0,8.65,1.3,11.21,3.89,2.57,2.6,3.85,6.35,3.85,11.26v4.28c0,6.33-2.14,10.73-6.42,13.18l8.3,27.3h-9.59Zm-11.38-51.53V28.05h3.68c2.17,0,3.77-.6,4.79-1.8,1.03-1.2,1.54-3.05,1.54-5.56v-3.08c0-2.51-.51-4.37-1.54-5.56-1.03-1.2-2.63-1.8-4.79-1.8h-3.68Z"/>
        <path class="cls-1" d="M503.27,61.77h-9.07V1.86h9.07V61.77Z"/>
        <path class="cls-1" d="M538.96,61.77h-8.9l-11.9-39.71h-.17V61.77h-8.56V1.86h10.1l10.7,35.69h.17V1.86h8.56V61.77Z"/>
        <path class="cls-1" d="M568.84,4.77c2.51,2.51,3.77,6.05,3.77,10.61v4.11l-8.73,.43v-3.59c0-4.62-1.77-6.93-5.31-6.93-1.77,0-3.1,.51-3.98,1.54-.89,1.03-1.33,2.54-1.33,4.54V48.16c0,4.05,1.74,6.08,5.22,6.08,1.77,0,3.08-.56,3.94-1.67,.86-1.11,1.28-2.87,1.28-5.26v-10.27h-5.14v-8.39h14.04v19.6c0,4.57-1.26,8.1-3.77,10.61-2.51,2.51-6.02,3.77-10.53,3.77s-7.99-1.25-10.44-3.77c-2.45-2.51-3.68-6.05-3.68-10.61V15.38c0-4.56,1.23-8.1,3.68-10.61,2.45-2.51,5.93-3.77,10.44-3.77s8.02,1.26,10.53,3.77Z"/>
      </g>
      <g>
        <g>
          <path class="cls-1" d="M54.04,96.35c0,2.09,.12,5.35,0,7.33-6.63,10.12-17.8,14.54-28.74,14.54-16.05,0-24.2-10.01-24.2-26.18,0-14.54,6.05-30.6,17.33-40.72,5.35-4.77,13.15-8.96,23.97-8.96,7.33,0,13.15,2.79,15.71,6.28l4.07-5.93,3.14,.93c-2.44,6.28-5.7,16.4-7.56,24.9h-3.49c.81-5.58,.58-12.22-1.28-15.94-1.98-3.96-5-5.82-9.42-5.82-4.89,0-10.12,2.33-14.66,7.91-8.49,10.7-12.68,25.71-12.68,39.55,0,5.7,1.51,11.05,3.26,13.5,2.33,3.37,6.17,5.23,10.12,5.23,10.59,0,16.87-5.82,21.87-16.64h2.56Z"/>
          <path class="cls-1" d="M94.76,64.94c11.4,0,17.45,6.4,17.45,17.8s-5.82,24.55-15.24,30.83c-4.89,3.26-10.24,4.54-15.94,4.54-7.91,0-17.68-2.79-17.68-17.57,0-11.05,5.93-23.5,14.78-30.13,4.89-3.61,10.59-5.47,16.4-5.47h.23Zm-.47,4.07c-2.91,0-5.93,1.63-9.07,6.05-4.89,7.21-9.42,21.64-9.42,30.25,0,6.63,2.91,8.73,6.05,8.73,2.68,0,5.24-1.51,7.68-4.65,5.35-6.86,10.47-23.62,10.35-32.23,0-4.3-1.51-8.14-5.47-8.14h-.12Z"/>
          <path class="cls-1" d="M204,103.56c-4.89,9.89-12.8,14.54-20.24,14.54-8.03,0-7.91-6.63-4.89-14.89,3.02-8.38,6.86-18.03,9.42-24.9,1.28-3.49,.58-6.17-1.86-6.17-8.61,0-18.5,18.15-22.45,29.32-1.4,3.96-3.37,8.49-5.35,15.12-4.89,.12-10.01,.7-13.15,1.05,4.3-11.75,11.29-33.97,12.91-40.02,.7-2.91,.47-5.47-2.21-5.47-5.82,0-15.71,11.98-21.64,28.27-1.86,4.77-3.61,9.07-5.7,16.29-4.65,.12-9.66,.58-13.03,.93,5.82-16.05,11.75-36.07,13.15-43.51,.35-1.86-.23-2.33-1.63-2.33h-6.51l1.4-3.96c5.47-.58,15.01-1.4,20.94-2.91-1.05,4.07-3.14,12.56-4.89,17.92,5.82-8.38,14.19-17.92,25.13-17.92,7.45,0,8.49,5.82,6.51,12.45-.47,1.75-.81,3.02-1.51,5,6.05-8.49,14.66-17.45,25.59-17.45,3.14,0,5,1.16,6.17,2.33,2.91,3.14,1.28,9.54,0,13.03-3.26,9.19-8.61,23.27-10.12,28.04-.47,1.51-.35,2.79,.7,2.79,2.79,0,7.79-4.89,10.7-10.35l2.56,2.79Z"/>
          <path class="cls-1" d="M222.61,70.29c1.16-3.61,2.44-8.38,2.91-10.24,2.68-.47,9.54-1.86,12.22-3.02l.47,.58c-1.98,6.28-4.65,15.24-6.86,22.22,5.12-6.86,12.56-14.89,22.1-14.89,7.45,0,11.05,6.4,11.05,13.49,0,14.19-8.38,31.06-21.29,37.11-3.61,1.75-7.56,2.56-10.94,2.56-3.72,0-7.91-1.16-10-3.49-2.68,9.54-4.19,15.47-4.89,19.2-.58,2.33-.12,3.14,2.09,3.37l7.1,.7-1.05,3.84h-13.84c-5.58,0-12.22,.23-18.38,.81l1.28-3.96,4.77-.7c2.33-.47,3.61-1.05,4.54-3.61,5.24-14.89,11.87-38.51,16.4-54.68-2.56,1.86-7.21,3.96-9.07,4.54-.47-1.16-.93-2.44-1.4-3.37,4.42-2.21,9.77-5.93,12.8-10.47Zm24.55,1.51c-4.89,0-11.52,7.79-15.82,16.75-2.79,4.89-6.28,13.84-6.28,18.27,0,4.65,2.79,6.75,6.17,6.75,2.79,0,6.28-1.63,9.31-5.58,5.7-6.98,10.59-20.01,10.59-29.78,0-3.49-1.28-6.4-3.84-6.4h-.12Z"/>
          <path class="cls-1" d="M311.61,104.61c-5.23,7.68-14.08,13.5-25.36,13.5-9.77,0-15.01-6.17-15.01-16.29,0-11.17,5.47-24.2,15.36-31.64,5-3.61,10.24-5.23,15.59-5.23,9.42,0,13.38,5.35,13.38,12.22,0,5.47-3.96,8.73-7.56,10.35-5.35,2.68-16.87,5.23-22.45,5.93-.47,1.98-.93,5-.93,8.03,0,6.05,1.98,10.59,7.56,10.59,6.28,0,12.68-4.19,16.87-13.73h1.98l.58,6.28Zm-11.17-35.6c-2.91,0-9.42,3.49-14.19,20.13,3.96-.58,9.77-2.33,12.33-3.49,4.07-2.09,6.17-6.05,6.17-10.94,0-3.61-1.4-5.7-4.07-5.7h-.23Z"/>
          <path class="cls-1" d="M350,105.08c-4.3,8.49-12.8,13.03-20.24,13.03-9.89,0-10.35-5.7-7.91-13.96,3.02-10.24,7.33-24.78,9.54-32.23l-7.79-.7,1.98-4.3h7.33c1.75-5.7,3.02-10.35,3.96-13.84,5.12-.58,10.7-1.4,14.43-2.56-1.05,2.33-3.61,10.01-5.58,16.4h11.75l-1.98,4.3-11.17,.7c-2.09,6.05-8.84,29.2-10.59,36.53-.58,2.68-.23,3.96,1.86,3.96,4.3,0,10.35-6.75,12.56-12.1l1.86,4.77Z"/>
          <path class="cls-1" d="M361.51,67.73c6.86-.58,16.4-1.4,21.99-2.79l.35,.47c-3.26,7.68-11.17,33.04-13.73,43.05-.35,1.51-.35,2.79,.81,2.79,2.68,0,7.91-5.12,10.7-10.47l2.56,2.79c-5.24,10.01-12.68,14.54-20.13,14.54s-8.14-5.35-5.47-13.84c2.68-8.84,7.21-22.34,9.42-30.36,.47-1.63,.12-2.09-1.05-2.09-1.4,0-4.89-.12-6.98,0l1.51-4.07Zm19.08-25.25c3.96,0,6.05,2.79,5.82,6.98-.23,5.35-4.19,8.26-8.26,8.26-3.37,0-6.17-2.44-5.93-6.75,.23-5.58,4.3-8.49,8.26-8.49h.12Z"/>
          <path class="cls-1" d="M419.45,105.08c-4.3,8.49-12.8,13.03-20.24,13.03-9.89,0-10.35-5.7-7.91-13.96,3.02-10.24,7.33-24.78,9.54-32.23l-7.79-.7,1.98-4.3h7.33c1.75-5.7,3.02-10.35,3.96-13.84,5.12-.58,10.7-1.4,14.43-2.56-1.05,2.33-3.61,10.01-5.58,16.4h11.75l-1.98,4.3-11.17,.7c-2.09,6.05-8.84,29.2-10.59,36.53-.58,2.68-.23,3.96,1.86,3.96,4.3,0,10.35-6.75,12.56-12.1l1.86,4.77Z"/>
          <path class="cls-1" d="M430.97,67.73c6.86-.58,16.4-1.4,21.99-2.79l.35,.47c-3.26,7.68-11.17,33.04-13.73,43.05-.35,1.51-.35,2.79,.81,2.79,2.68,0,7.91-5.12,10.7-10.47l2.56,2.79c-5.24,10.01-12.68,14.54-20.13,14.54s-8.14-5.35-5.47-13.84c2.68-8.84,7.21-22.34,9.42-30.36,.47-1.63,.12-2.09-1.05-2.09-1.4,0-4.89-.12-6.98,0l1.51-4.07Zm19.08-25.25c3.96,0,6.05,2.79,5.82,6.98-.23,5.35-4.19,8.26-8.26,8.26-3.37,0-6.17-2.44-5.93-6.75,.23-5.58,4.3-8.49,8.26-8.49h.12Z"/>
          <path class="cls-1" d="M490.76,64.94c11.4,0,17.45,6.4,17.45,17.8s-5.82,24.55-15.24,30.83c-4.89,3.26-10.24,4.54-15.94,4.54-7.91,0-17.68-2.79-17.68-17.57,0-11.05,5.93-23.5,14.78-30.13,4.89-3.61,10.59-5.47,16.4-5.47h.23Zm-.47,4.07c-2.91,0-5.93,1.63-9.07,6.05-4.89,7.21-9.42,21.64-9.42,30.25,0,6.63,2.91,8.73,6.05,8.73,2.68,0,5.24-1.51,7.68-4.65,5.35-6.86,10.47-23.62,10.35-32.23,0-4.3-1.51-8.14-5.47-8.14h-.12Z"/>
          <path class="cls-1" d="M570.34,103.56c-5,9.89-12.91,14.54-20.24,14.54-7.8,0-7.91-6.28-4.89-14.89,2.91-8.14,7.1-19.31,9.31-25.71,1.16-3.02,.47-5.35-2.09-5.35-8.26,0-17.8,16.52-21.99,28.15-1.63,4.3-3.49,8.84-5.58,16.29-5,.12-9.54,.7-13.03,1.05,5.12-14.19,11.75-36.53,12.91-43.74,.23-1.51,.12-2.09-.93-2.09l-6.86,.12,1.4-4.07c6.52-.47,13.96-1.28,20.36-2.91-1.16,5.12-2.91,11.98-4.65,18.15,6.05-9.19,14.54-18.15,25.48-18.15,2.68,0,4.42,.81,5.7,1.86,3.26,2.56,2.56,9.07,.7,14.43-2.79,8.03-6.98,18.38-9.54,27.22-.47,1.4-.12,2.68,.81,2.68,2.79,0,7.56-4.77,10.59-10.47l2.56,2.91Z"/>
        </g>
        <g>
          <path class="cls-1" d="M56.94,93.08c0,2.09,.12,5.35,0,7.33-6.63,10.12-17.8,14.54-28.74,14.54-16.05,0-24.2-10.01-24.2-26.18,0-14.54,6.05-30.6,17.33-40.72,5.35-4.77,13.15-8.96,23.97-8.96,7.33,0,13.15,2.79,15.71,6.28l4.07-5.93,3.14,.93c-2.44,6.28-5.7,16.4-7.56,24.9h-3.49c.81-5.58,.58-12.22-1.28-15.94-1.98-3.96-5-5.82-9.42-5.82-4.89,0-10.12,2.33-14.66,7.91-8.49,10.7-12.68,25.71-12.68,39.55,0,5.7,1.51,11.05,3.26,13.5,2.33,3.37,6.17,5.23,10.12,5.23,10.59,0,16.87-5.82,21.87-16.64h2.56Z"/>
          <path class="cls-1" d="M97.65,61.67c11.4,0,17.45,6.4,17.45,17.8s-5.82,24.55-15.24,30.83c-4.89,3.26-10.24,4.54-15.94,4.54-7.91,0-17.68-2.79-17.68-17.57,0-11.05,5.93-23.5,14.78-30.13,4.89-3.61,10.59-5.47,16.4-5.47h.23Zm-.47,4.07c-2.91,0-5.93,1.63-9.07,6.05-4.89,7.21-9.42,21.64-9.42,30.25,0,6.63,2.91,8.73,6.05,8.73,2.68,0,5.24-1.51,7.68-4.65,5.35-6.86,10.47-23.62,10.35-32.23,0-4.3-1.51-8.14-5.47-8.14h-.12Z"/>
          <path class="cls-1" d="M206.89,100.3c-4.89,9.89-12.8,14.54-20.24,14.54-8.03,0-7.91-6.63-4.89-14.89,3.02-8.38,6.86-18.03,9.42-24.9,1.28-3.49,.58-6.17-1.86-6.17-8.61,0-18.5,18.15-22.45,29.32-1.4,3.96-3.37,8.49-5.35,15.12-4.89,.12-10.01,.7-13.15,1.05,4.3-11.75,11.29-33.97,12.91-40.02,.7-2.91,.47-5.47-2.21-5.47-5.82,0-15.71,11.98-21.64,28.27-1.86,4.77-3.61,9.07-5.7,16.29-4.65,.12-9.66,.58-13.03,.93,5.82-16.05,11.75-36.07,13.15-43.51,.35-1.86-.23-2.33-1.63-2.33h-6.51l1.4-3.96c5.47-.58,15.01-1.4,20.94-2.91-1.05,4.07-3.14,12.56-4.89,17.92,5.82-8.38,14.19-17.92,25.13-17.92,7.45,0,8.49,5.82,6.51,12.45-.47,1.75-.81,3.02-1.51,5,6.05-8.49,14.66-17.45,25.59-17.45,3.14,0,5,1.16,6.17,2.33,2.91,3.14,1.28,9.54,0,13.03-3.26,9.19-8.61,23.27-10.12,28.04-.47,1.51-.35,2.79,.7,2.79,2.79,0,7.79-4.89,10.7-10.35l2.56,2.79Z"/>
          <path class="cls-1" d="M225.51,67.02c1.16-3.61,2.44-8.38,2.91-10.24,2.68-.47,9.54-1.86,12.22-3.02l.47,.58c-1.98,6.28-4.65,15.24-6.86,22.22,5.12-6.86,12.56-14.89,22.1-14.89,7.45,0,11.05,6.4,11.05,13.49,0,14.19-8.38,31.06-21.29,37.11-3.61,1.75-7.56,2.56-10.94,2.56-3.72,0-7.91-1.16-10-3.49-2.68,9.54-4.19,15.47-4.89,19.2-.58,2.33-.12,3.14,2.09,3.37l7.1,.7-1.05,3.84h-13.84c-5.58,0-12.22,.23-18.38,.81l1.28-3.96,4.77-.7c2.33-.47,3.61-1.05,4.54-3.61,5.24-14.89,11.87-38.51,16.4-54.68-2.56,1.86-7.21,3.96-9.07,4.54-.47-1.16-.93-2.44-1.4-3.37,4.42-2.21,9.77-5.93,12.8-10.47Zm24.55,1.51c-4.89,0-11.52,7.79-15.82,16.75-2.79,4.89-6.28,13.84-6.28,18.27,0,4.65,2.79,6.75,6.17,6.75,2.79,0,6.28-1.63,9.31-5.58,5.7-6.98,10.59-20.01,10.59-29.78,0-3.49-1.28-6.4-3.84-6.4h-.12Z"/>
          <path class="cls-1" d="M314.5,101.34c-5.23,7.68-14.08,13.5-25.36,13.5-9.77,0-15.01-6.17-15.01-16.29,0-11.17,5.47-24.2,15.36-31.64,5-3.61,10.24-5.23,15.59-5.23,9.42,0,13.38,5.35,13.38,12.22,0,5.47-3.96,8.73-7.56,10.35-5.35,2.68-16.87,5.23-22.45,5.93-.47,1.98-.93,5-.93,8.03,0,6.05,1.98,10.59,7.56,10.59,6.28,0,12.68-4.19,16.87-13.73h1.98l.58,6.28Zm-11.17-35.6c-2.91,0-9.42,3.49-14.19,20.13,3.96-.58,9.77-2.33,12.33-3.49,4.07-2.09,6.17-6.05,6.17-10.94,0-3.61-1.4-5.7-4.07-5.7h-.23Z"/>
          <path class="cls-1" d="M352.89,101.81c-4.3,8.49-12.8,13.03-20.24,13.03-9.89,0-10.35-5.7-7.91-13.96,3.02-10.24,7.33-24.78,9.54-32.23l-7.79-.7,1.98-4.3h7.33c1.75-5.7,3.02-10.35,3.96-13.84,5.12-.58,10.7-1.4,14.43-2.56-1.05,2.33-3.61,10.01-5.58,16.4h11.75l-1.98,4.3-11.17,.7c-2.09,6.05-8.84,29.2-10.59,36.53-.58,2.68-.23,3.96,1.86,3.96,4.3,0,10.35-6.75,12.56-12.1l1.86,4.77Z"/>
          <path class="cls-1" d="M364.41,64.46c6.86-.58,16.4-1.4,21.99-2.79l.35,.47c-3.26,7.68-11.17,33.04-13.73,43.05-.35,1.51-.35,2.79,.81,2.79,2.68,0,7.91-5.12,10.7-10.47l2.56,2.79c-5.24,10.01-12.68,14.54-20.13,14.54s-8.14-5.35-5.47-13.84c2.68-8.84,7.21-22.34,9.42-30.36,.47-1.63,.12-2.09-1.05-2.09-1.4,0-4.89-.12-6.98,0l1.51-4.07Zm19.08-25.25c3.96,0,6.05,2.79,5.82,6.98-.23,5.35-4.19,8.26-8.26,8.26-3.37,0-6.17-2.44-5.93-6.75,.23-5.58,4.3-8.49,8.26-8.49h.12Z"/>
          <path class="cls-1" d="M422.35,101.81c-4.3,8.49-12.8,13.03-20.24,13.03-9.89,0-10.35-5.7-7.91-13.96,3.02-10.24,7.33-24.78,9.54-32.23l-7.79-.7,1.98-4.3h7.33c1.75-5.7,3.02-10.35,3.96-13.84,5.12-.58,10.7-1.4,14.43-2.56-1.05,2.33-3.61,10.01-5.58,16.4h11.75l-1.98,4.3-11.17,.7c-2.09,6.05-8.84,29.2-10.59,36.53-.58,2.68-.23,3.96,1.86,3.96,4.3,0,10.35-6.75,12.56-12.1l1.86,4.77Z"/>
          <path class="cls-1" d="M433.86,64.46c6.86-.58,16.4-1.4,21.99-2.79l.35,.47c-3.26,7.68-11.17,33.04-13.73,43.05-.35,1.51-.35,2.79,.81,2.79,2.68,0,7.91-5.12,10.7-10.47l2.56,2.79c-5.24,10.01-12.68,14.54-20.13,14.54s-8.14-5.35-5.47-13.84c2.68-8.84,7.21-22.34,9.42-30.36,.47-1.63,.12-2.09-1.05-2.09-1.4,0-4.89-.12-6.98,0l1.51-4.07Zm19.08-25.25c3.96,0,6.05,2.79,5.82,6.98-.23,5.35-4.19,8.26-8.26,8.26-3.37,0-6.17-2.44-5.93-6.75,.23-5.58,4.3-8.49,8.26-8.49h.12Z"/>
          <path class="cls-1" d="M493.66,61.67c11.4,0,17.45,6.4,17.45,17.8s-5.82,24.55-15.24,30.83c-4.89,3.26-10.24,4.54-15.94,4.54-7.91,0-17.68-2.79-17.68-17.57,0-11.05,5.93-23.5,14.78-30.13,4.89-3.61,10.59-5.47,16.4-5.47h.23Zm-.47,4.07c-2.91,0-5.93,1.63-9.07,6.05-4.89,7.21-9.42,21.64-9.42,30.25,0,6.63,2.91,8.73,6.05,8.73,2.68,0,5.24-1.51,7.68-4.65,5.35-6.86,10.47-23.62,10.35-32.23,0-4.3-1.51-8.14-5.47-8.14h-.12Z"/>
          <path class="cls-1" d="M573.23,100.3c-5,9.89-12.91,14.54-20.24,14.54-7.8,0-7.91-6.28-4.89-14.89,2.91-8.14,7.1-19.31,9.31-25.71,1.16-3.02,.47-5.35-2.09-5.35-8.26,0-17.8,16.52-21.99,28.15-1.63,4.3-3.49,8.84-5.58,16.29-5,.12-9.54,.7-13.03,1.05,5.12-14.19,11.75-36.53,12.91-43.74,.23-1.51,.12-2.09-.93-2.09l-6.86,.12,1.4-4.07c6.52-.47,13.96-1.28,20.36-2.91-1.16,5.12-2.91,11.98-4.65,18.15,6.05-9.19,14.54-18.15,25.48-18.15,2.68,0,4.42,.81,5.7,1.86,3.26,2.56,2.56,9.07,.7,14.43-2.79,8.03-6.98,18.38-9.54,27.22-.47,1.4-.12,2.68,.81,2.68,2.79,0,7.56-4.77,10.59-10.47l2.56,2.91Z"/>
        </g>
      </g>
    </g>
  </g>
</svg>