<svg xmlns="http://www.w3.org/2000/svg" xmlns:xlink="http://www.w3.org/1999/xlink" viewBox="0 0 500 500"><defs><style>.cls-1{fill:#092333;}.cls-2{fill:#231f20;}.cls-3{fill:url(#linear-gradient);}.cls-4{fill:url(#linear-gradient-2);}.cls-5{fill:url(#linear-gradient-4);}.cls-6{fill:url(#linear-gradient-6);}.cls-7{fill:url(#linear-gradient-12);}.cls-8{fill:url(#linear-gradient-13);}.cls-9{fill:url(#linear-gradient-14);}.cls-10{fill:url(#linear-gradient-15);}.cls-11{fill:url(#linear-gradient-16);}.cls-12{fill:url(#linear-gradient-17);}.cls-13{fill:url(#linear-gradient-18);}.cls-14{fill:url(#linear-gradient-19);}.cls-15{fill-rule:evenodd;fill:url(#linear-gradient-20);}</style><linearGradient id="linear-gradient" x1="180.09" y1="265.73" x2="491.07" y2="265.73" gradientUnits="userSpaceOnUse"><stop offset="0" stop-color="#005eff"/><stop offset="1" stop-color="#0090e2"/></linearGradient><linearGradient id="linear-gradient-2" x1="180.09" y1="271.72" x2="491.07" y2="271.72" xlink:href="#linear-gradient"/><linearGradient id="linear-gradient-4" x1="180.09" y1="276.13" x2="491.07" y2="276.13" xlink:href="#linear-gradient"/><linearGradient id="linear-gradient-6" x1="180.09" y1="267.87" x2="491.07" y2="267.87" xlink:href="#linear-gradient"/><linearGradient id="linear-gradient-12" x1="134.19" y1="157.17" x2="128.34" y2="179.31" xlink:href="#linear-gradient"/><linearGradient id="linear-gradient-13" x1="134.29" y1="157.19" x2="128.44" y2="179.34" xlink:href="#linear-gradient"/><linearGradient id="linear-gradient-14" x1="131.13" y1="293.53" x2="105.75" y2="262.2" xlink:href="#linear-gradient"/><linearGradient id="linear-gradient-15" x1="129.7" y1="294.69" x2="104.32" y2="263.35" xlink:href="#linear-gradient"/><linearGradient id="linear-gradient-16" x1="132.73" y1="341.78" x2="110.48" y2="307.62" xlink:href="#linear-gradient"/><linearGradient id="linear-gradient-17" x1="134.76" y1="340.46" x2="112.51" y2="306.3" xlink:href="#linear-gradient"/><linearGradient id="linear-gradient-18" x1="197.45" y1="354.22" x2="142.31" y2="306.28" xlink:href="#linear-gradient"/><linearGradient id="linear-gradient-19" x1="203.37" y1="347.42" x2="148.22" y2="299.48" xlink:href="#linear-gradient"/><linearGradient id="linear-gradient-20" x1="111.97" y1="144.57" x2="111.97" y2="164.21" xlink:href="#linear-gradient"/></defs><g id="Layer_4" data-name="Layer 4"><path class="cls-1" d="M203.31,243.62h-4.93l-1-7.27H192l-1,7.27h-4.84l5.53-32h6.16Zm-8.72-25.13-2,13.47h4.07l-2-13.47Z"/><path class="cls-1" d="M209.71,239.05h8.09v4.57H204.87v-32h4.84Z"/><path class="cls-1" d="M231.55,213.19a7.66,7.66,0,0,1,2,5.66V221l-4.66.23v-1.92c0-2.46-1-3.7-2.83-3.7a2.65,2.65,0,0,0-2.13.83,3.6,3.6,0,0,0-.71,2.42v17.45q0,3.24,2.79,3.24a2.47,2.47,0,0,0,2.1-.89,4.59,4.59,0,0,0,.69-2.81v-5.48h-2.74v-4.48h7.49V236.4a7,7,0,0,1-7.63,7.67,7.45,7.45,0,0,1-5.58-2,7.76,7.76,0,0,1-2-5.66V218.85a7.76,7.76,0,0,1,2-5.66,7.45,7.45,0,0,1,5.58-2A7.61,7.61,0,0,1,231.55,213.19Z"/><path class="cls-1" d="M249.82,216.11h-8.77v9h7.08v4.47h-7.08v9.51h8.77v4.48H236.21v-32h13.61Z"/><path class="cls-1" d="M262.94,243.62l-3.84-13.53h-2.24v13.53H252v-32h7a8.06,8.06,0,0,1,6,2.08,8.2,8.2,0,0,1,2.06,6V222c0,3.39-1.14,5.73-3.43,7l4.43,14.58Zm-6.08-27.51v9.5h2a3.19,3.19,0,0,0,2.56-1,4.46,4.46,0,0,0,.83-3V220a4.48,4.48,0,0,0-.83-3,3.19,3.19,0,0,0-2.56-1Z"/><path class="cls-1" d="M274.5,243.62h-4.85v-32h4.85Z"/><path class="cls-1" d="M293.27,243.62h-4.93l-1-7.27h-5.35l-1.05,7.27h-4.84l5.53-32h6.16Zm-8.72-25.13-2,13.47h4.07l-2-13.47Z"/><path class="cls-1" d="M310.59,243.62h-4.75l-6.35-21.2h-.09v21.2h-4.57v-32h5.39l5.71,19.06H306V211.63h4.57Z"/><path class="cls-1" d="M334.26,216.11h-8.78v9h7.09v4.47h-7.09v9.51h8.78v4.48H320.64v-32h13.62Z"/><path class="cls-1" d="M352.21,243.62h-4.75l-6.35-21.2H341v21.2h-4.57v-32h5.39l5.71,19.06h.09V211.63h4.57Z"/><path class="cls-1" d="M368.16,213.19a7.66,7.66,0,0,1,2,5.66V221l-4.66.23v-1.92c0-2.46-.95-3.7-2.84-3.7a2.64,2.64,0,0,0-2.12.83,3.6,3.6,0,0,0-.71,2.42v17.45q0,3.24,2.79,3.24a2.47,2.47,0,0,0,2.1-.89,4.59,4.59,0,0,0,.69-2.81v-5.48h-2.75v-4.48h7.5V236.4a7,7,0,0,1-7.63,7.67,7.45,7.45,0,0,1-5.58-2,7.76,7.76,0,0,1-2-5.66V218.85a7.76,7.76,0,0,1,2-5.66,7.45,7.45,0,0,1,5.58-2A7.61,7.61,0,0,1,368.16,213.19Z"/><path class="cls-1" d="M377.66,243.62h-4.84v-32h4.84Z"/><path class="cls-1" d="M396.71,243.62H392l-6.35-21.2h-.09v21.2H381v-32h5.39l5.71,19.06h.09V211.63h4.57Z"/><path class="cls-1" d="M413.62,216.11h-8.77v9h7.08v4.47h-7.08v9.51h8.77v4.48H400v-32h13.62Z"/><path class="cls-1" d="M429.43,216.11h-8.78v9h7.09v4.47h-7.09v9.51h8.78v4.48H415.81v-32h13.62Z"/><path class="cls-1" d="M442.54,243.62l-3.84-13.53h-2.24v13.53h-4.84v-32h7a8.06,8.06,0,0,1,6,2.08,8.16,8.16,0,0,1,2.06,6V222c0,3.39-1.14,5.73-3.43,7l4.44,14.58Zm-6.08-27.51v9.5h2a3.2,3.2,0,0,0,2.56-1,4.52,4.52,0,0,0,.82-3V220a4.54,4.54,0,0,0-.82-3,3.2,3.2,0,0,0-2.56-1Z"/><path class="cls-1" d="M454.1,243.62h-4.84v-32h4.84Z"/><path class="cls-1" d="M473.15,243.62H468.4l-6.35-21.2H462v21.2h-4.57v-32h5.39l5.71,19.06h.09V211.63h4.57Z"/><path class="cls-1" d="M489.1,213.19a7.66,7.66,0,0,1,2,5.66V221l-4.66.23v-1.92c0-2.46-.95-3.7-2.84-3.7a2.64,2.64,0,0,0-2.12.83,3.6,3.6,0,0,0-.71,2.42v17.45q0,3.24,2.79,3.24a2.47,2.47,0,0,0,2.1-.89,4.59,4.59,0,0,0,.68-2.81v-5.48h-2.74v-4.48h7.5V236.4a7,7,0,0,1-7.63,7.67,7.45,7.45,0,0,1-5.58-2,7.76,7.76,0,0,1-2-5.66V218.85a7.76,7.76,0,0,1,2-5.66,7.45,7.45,0,0,1,5.58-2A7.62,7.62,0,0,1,489.1,213.19Z"/><path class="cls-2" d="M214.3,276c0,1.12.06,2.86,0,3.91-3.54,5.41-9.5,7.77-15.34,7.77-8.57,0-12.92-5.35-12.92-14,0-7.76,3.23-16.33,9.26-21.73a18.67,18.67,0,0,1,12.79-4.78c3.91,0,7,1.49,8.38,3.35l2.18-3.17,1.67.5a99.94,99.94,0,0,0-4,13.29h-1.87c.44-3,.31-6.52-.68-8.51a5.16,5.16,0,0,0-5-3.1c-2.61,0-5.4,1.24-7.82,4.22-4.54,5.71-6.77,13.72-6.77,21.11a13.93,13.93,0,0,0,1.73,7.21,6.57,6.57,0,0,0,5.41,2.79c5.65,0,9-3.1,11.67-8.88Z"/><path class="cls-2" d="M236,259.27c6.09,0,9.32,3.42,9.32,9.5s-3.11,13.11-8.14,16.46a14.85,14.85,0,0,1-8.5,2.42c-4.23,0-9.44-1.49-9.44-9.37a21.27,21.27,0,0,1,7.88-16.09,14.73,14.73,0,0,1,8.76-2.92Zm-.24,2.18c-1.56,0-3.17.87-4.85,3.23-2.61,3.85-5,11.55-5,16.14,0,3.54,1.55,4.66,3.23,4.66,1.43,0,2.8-.81,4.1-2.48,2.86-3.67,5.59-12.61,5.53-17.21,0-2.29-.81-4.34-2.92-4.34Z"/><path class="cls-2" d="M294.35,279.89c-2.61,5.28-6.84,7.76-10.81,7.76-4.28,0-4.22-3.54-2.61-7.95s3.67-9.62,5-13.29c.69-1.86.31-3.29-1-3.29-4.6,0-9.88,9.69-12,15.65-.74,2.11-1.8,4.54-2.85,8.08-2.61.06-5.34.37-7,.55,2.3-6.27,6-18.13,6.89-21.36.37-1.55.25-2.92-1.18-2.92-3.1,0-8.38,6.4-11.55,15.09a91.56,91.56,0,0,0-3,8.7c-2.49.06-5.16.31-7,.49,3.11-8.57,6.28-19.25,7-23.22.19-1-.12-1.24-.87-1.24h-3.48l.75-2.11a94.28,94.28,0,0,0,11.18-1.56c-.56,2.18-1.68,6.71-2.61,9.57,3.1-4.47,7.58-9.57,13.41-9.57,4,0,4.54,3.11,3.48,6.65-.25.93-.43,1.61-.81,2.67,3.23-4.54,7.83-9.32,13.67-9.32a4.41,4.41,0,0,1,3.29,1.24c1.55,1.68.68,5.1,0,7-1.74,4.91-4.6,12.42-5.41,15-.24.8-.18,1.49.38,1.49,1.49,0,4.16-2.61,5.71-5.53Z"/><path class="cls-2" d="M304.28,262.13c.62-1.93,1.3-4.47,1.55-5.47a40.56,40.56,0,0,0,6.52-1.61l.25.31c-1.05,3.35-2.48,8.14-3.66,11.86,2.73-3.66,6.71-8,11.8-8,4,0,5.9,3.42,5.9,7.21,0,7.57-4.47,16.58-11.37,19.81a13.75,13.75,0,0,1-5.84,1.36c-2,0-4.22-.62-5.34-1.86-1.42,5.09-2.23,8.26-2.6,10.25-.31,1.24-.07,1.67,1.11,1.8l3.79.37-.56,2.05h-7.39c-3,0-6.52.12-9.81.43l.68-2.11,2.55-.37a2.63,2.63,0,0,0,2.42-1.93c2.8-7.94,6.34-20.55,8.76-29.18a22,22,0,0,1-4.85,2.42c-.24-.62-.49-1.3-.74-1.8A18.36,18.36,0,0,0,304.28,262.13Zm13.1.81c-2.6,0-6.14,4.16-8.44,8.94-1.49,2.61-3.36,7.39-3.36,9.75s1.5,3.6,3.3,3.6c1.49,0,3.35-.87,5-3a28.77,28.77,0,0,0,5.66-15.9c0-1.86-.69-3.41-2.05-3.41Z"/><path class="cls-2" d="M351.79,280.45a16.21,16.21,0,0,1-13.54,7.2c-5.22,0-8-3.29-8-8.69a22,22,0,0,1,8.2-16.89,13.93,13.93,0,0,1,8.32-2.8c5,0,7.14,2.86,7.14,6.52,0,2.92-2.11,4.66-4,5.53-2.85,1.43-9,2.79-12,3.17a19.65,19.65,0,0,0-.5,4.28c0,3.23,1.06,5.65,4,5.65,3.35,0,6.77-2.23,9-7.32h1.06Zm-6-19c-1.56,0-5,1.86-7.58,10.74a31,31,0,0,0,6.58-1.86,6.18,6.18,0,0,0,3.29-5.84c0-1.93-.74-3-2.17-3Z"/><path class="cls-2" d="M372.28,280.7a12.51,12.51,0,0,1-10.81,6.95c-5.27,0-5.52-3-4.22-7.45,1.62-5.46,3.91-13.23,5.09-17.2l-4.16-.37,1.06-2.3h3.91c.93-3,1.62-5.53,2.11-7.39a46.39,46.39,0,0,0,7.7-1.37c-.56,1.24-1.92,5.34-3,8.76h6.27l-1.05,2.3-6,.37c-1.12,3.23-4.72,15.59-5.65,19.5-.31,1.43-.13,2.11,1,2.11,2.3,0,5.53-3.6,6.71-6.46Z"/><path class="cls-2" d="M378.43,260.76a89.21,89.21,0,0,0,11.73-1.49l.19.25c-1.74,4.1-6,17.64-7.33,23-.18.81-.18,1.49.44,1.49,1.43,0,4.22-2.73,5.71-5.59l1.37,1.49c-2.8,5.34-6.77,7.76-10.75,7.76s-4.34-2.85-2.91-7.39c1.42-4.72,3.85-11.92,5-16.21.24-.86.06-1.11-.56-1.11s-2.61-.07-3.73,0Zm10.18-13.47c2.11,0,3.23,1.49,3.11,3.72a4.38,4.38,0,0,1-4.41,4.41,3.14,3.14,0,0,1-3.17-3.6,4.44,4.44,0,0,1,4.41-4.53Z"/><path class="cls-2" d="M409.35,280.7a12.5,12.5,0,0,1-10.8,6.95c-5.28,0-5.53-3-4.22-7.45,1.61-5.46,3.91-13.23,5.09-17.2l-4.16-.37,1.05-2.3h3.91c.94-3,1.62-5.53,2.12-7.39a46.78,46.78,0,0,0,7.7-1.37c-.56,1.24-1.93,5.34-3,8.76h6.27l-1.06,2.3-6,.37c-1.12,3.23-4.72,15.59-5.65,19.5-.31,1.43-.12,2.11,1,2.11,2.3,0,5.53-3.6,6.71-6.46Z"/><path class="cls-2" d="M415.5,260.76a89.37,89.37,0,0,0,11.74-1.49l.18.25c-1.73,4.1-6,17.64-7.32,23-.19.81-.19,1.49.43,1.49,1.43,0,4.22-2.73,5.71-5.59l1.37,1.49c-2.79,5.34-6.77,7.76-10.74,7.76s-4.35-2.85-2.92-7.39c1.43-4.72,3.85-11.92,5-16.21.25-.86.06-1.11-.56-1.11s-2.61-.07-3.73,0Zm10.19-13.47c2.11,0,3.22,1.49,3.1,3.72a4.37,4.37,0,0,1-4.41,4.41,3.14,3.14,0,0,1-3.17-3.6,4.44,4.44,0,0,1,4.41-4.53Z"/><path class="cls-2" d="M447.42,259.27c6.09,0,9.32,3.42,9.32,9.5s-3.11,13.11-8.14,16.46a14.88,14.88,0,0,1-8.51,2.42c-4.22,0-9.44-1.49-9.44-9.37a21.28,21.28,0,0,1,7.89-16.09,14.73,14.73,0,0,1,8.76-2.92Zm-.25,2.18c-1.55,0-3.17.87-4.84,3.23-2.61,3.85-5,11.55-5,16.14,0,3.54,1.55,4.66,3.23,4.66,1.43,0,2.79-.81,4.1-2.48,2.85-3.67,5.58-12.61,5.52-17.21,0-2.29-.8-4.34-2.92-4.34Z"/><path class="cls-2" d="M489.9,279.89c-2.67,5.28-6.9,7.76-10.81,7.76-4.16,0-4.22-3.35-2.61-7.95,1.56-4.34,3.79-10.3,5-13.72.62-1.61.25-2.86-1.12-2.86-4.41,0-9.5,8.82-11.73,15a87.25,87.25,0,0,0-3,8.7c-2.67.06-5.1.37-7,.55,2.73-7.57,6.27-19.5,6.89-23.35.13-.8.07-1.11-.49-1.11l-3.67.06.75-2.17A64.72,64.72,0,0,0,473,259.27c-.63,2.74-1.56,6.4-2.49,9.69,3.23-4.91,7.76-9.69,13.6-9.69a4.53,4.53,0,0,1,3,1c1.74,1.36,1.37,4.84.38,7.7-1.49,4.28-3.73,9.81-5.1,14.53-.24.74-.06,1.43.44,1.43,1.49,0,4-2.55,5.65-5.59Z"/><path class="cls-3" d="M215.85,274.3c0,1.11.06,2.85,0,3.91-3.54,5.4-9.51,7.76-15.34,7.76-8.57,0-12.92-5.34-12.92-14,0-7.76,3.23-16.33,9.25-21.74a18.76,18.76,0,0,1,12.8-4.78c3.91,0,7,1.49,8.38,3.35l2.17-3.16,1.68.49a102.32,102.32,0,0,0-4,13.29H216c.43-3,.31-6.52-.68-8.5a5.15,5.15,0,0,0-5-3.11c-2.61,0-5.41,1.24-7.83,4.22-4.53,5.72-6.77,13.73-6.77,21.12a13.88,13.88,0,0,0,1.74,7.2,6.55,6.55,0,0,0,5.4,2.8c5.66,0,9-3.11,11.68-8.88Z"/><path class="cls-4" d="M237.58,257.53c6.09,0,9.32,3.41,9.32,9.5s-3.11,13.1-8.14,16.46a14.88,14.88,0,0,1-8.51,2.42c-4.22,0-9.44-1.49-9.44-9.38a21.25,21.25,0,0,1,7.89-16.08,14.66,14.66,0,0,1,8.76-2.92Zm-.25,2.17c-1.55,0-3.17.87-4.84,3.23-2.61,3.85-5,11.55-5,16.15,0,3.54,1.55,4.66,3.23,4.66,1.43,0,2.79-.81,4.1-2.49,2.85-3.66,5.58-12.61,5.52-17.2,0-2.3-.8-4.35-2.92-4.35Z"/><path class="cls-4" d="M295.89,278.15c-2.61,5.27-6.83,7.76-10.8,7.76-4.29,0-4.23-3.54-2.61-8s3.66-9.63,5-13.29c.68-1.86.31-3.29-1-3.29-4.6,0-9.88,9.69-12,15.65-.75,2.11-1.8,4.53-2.86,8.07-2.61.06-5.34.37-7,.56,2.29-6.27,6-18.13,6.89-21.36.37-1.56.25-2.92-1.18-2.92-3.11,0-8.38,6.4-11.55,15.09a86,86,0,0,0-3,8.69c-2.49.07-5.16.31-7,.5,3.11-8.57,6.27-19.25,7-23.23.18-1-.13-1.24-.87-1.24h-3.48l.75-2.11a92,92,0,0,0,11.17-1.55c-.55,2.17-1.67,6.71-2.6,9.56,3.1-4.47,7.57-9.56,13.41-9.56,4,0,4.53,3.1,3.48,6.64-.25.93-.44,1.62-.81,2.67,3.23-4.53,7.82-9.31,13.66-9.31a4.39,4.39,0,0,1,3.29,1.24c1.56,1.68.69,5.09,0,7-1.74,4.9-4.59,12.42-5.4,15-.25.81-.19,1.49.37,1.49,1.49,0,4.16-2.61,5.72-5.52Z"/><path class="cls-5" d="M305.83,260.39c.62-1.93,1.3-4.48,1.55-5.47a41.92,41.92,0,0,0,6.52-1.61l.25.31c-1.06,3.35-2.48,8.13-3.67,11.86,2.74-3.67,6.71-8,11.8-8,4,0,5.9,3.41,5.9,7.2,0,7.58-4.47,16.58-11.36,19.81a13.84,13.84,0,0,1-5.84,1.37c-2,0-4.22-.62-5.34-1.86-1.43,5.09-2.23,8.26-2.61,10.24-.31,1.24-.06,1.68,1.12,1.8l3.79.38-.56,2H300c-3,0-6.52.12-9.81.43l.68-2.11,2.55-.37a2.64,2.64,0,0,0,2.42-1.93c2.79-8,6.33-20.55,8.76-29.19a22.09,22.09,0,0,1-4.85,2.43c-.25-.63-.5-1.31-.74-1.81A18.41,18.41,0,0,0,305.83,260.39Zm13.1.8c-2.61,0-6.15,4.16-8.45,8.95-1.49,2.6-3.35,7.39-3.35,9.74s1.49,3.61,3.29,3.61c1.49,0,3.36-.87,5-3a28.87,28.87,0,0,0,5.65-15.9c0-1.87-.68-3.42-2.05-3.42Z"/><path class="cls-4" d="M353.33,278.7a16.19,16.19,0,0,1-13.53,7.21c-5.22,0-8-3.29-8-8.7A22,22,0,0,1,340,260.32a14,14,0,0,1,8.32-2.79c5,0,7.15,2.86,7.15,6.52,0,2.92-2.12,4.66-4,5.53-2.86,1.42-9,2.79-12,3.16a20.46,20.46,0,0,0-.49,4.29c0,3.23,1.05,5.65,4,5.65,3.36,0,6.77-2.24,9-7.33h1Zm-6-19c-1.55,0-5,1.87-7.57,10.75a31.11,31.11,0,0,0,6.58-1.87,6.2,6.2,0,0,0,3.29-5.84c0-1.92-.75-3-2.17-3Z"/><path class="cls-6" d="M373.83,279a12.51,12.51,0,0,1-10.81,7c-5.28,0-5.53-3-4.22-7.45,1.61-5.47,3.91-13.23,5.09-17.21l-4.16-.37,1.06-2.3h3.91c.93-3,1.61-5.52,2.11-7.39a46.85,46.85,0,0,0,7.7-1.36c-.56,1.24-1.92,5.34-3,8.75h6.27l-1.05,2.3-6,.37c-1.11,3.23-4.72,15.59-5.65,19.5-.31,1.43-.12,2.12,1,2.12,2.29,0,5.52-3.61,6.7-6.46Z"/><path class="cls-3" d="M380,259a90.87,90.87,0,0,0,11.74-1.49l.19.25c-1.74,4.1-6,17.63-7.33,23-.19.81-.19,1.49.43,1.49,1.43,0,4.23-2.73,5.72-5.58l1.36,1.49c-2.79,5.34-6.76,7.76-10.74,7.76s-4.35-2.86-2.92-7.39c1.43-4.72,3.85-11.92,5-16.21.25-.87.06-1.12-.56-1.12s-2.6-.06-3.72,0Zm10.19-13.48c2.11,0,3.23,1.49,3.1,3.73a4.37,4.37,0,0,1-4.41,4.41,3.13,3.13,0,0,1-3.16-3.6,4.45,4.45,0,0,1,4.41-4.54Z"/><path class="cls-6" d="M410.9,279a12.51,12.51,0,0,1-10.81,7c-5.27,0-5.52-3-4.22-7.45L401,261.25l-4.16-.37,1.06-2.3h3.91c.93-3,1.62-5.52,2.11-7.39a46.46,46.46,0,0,0,7.7-1.36c-.56,1.24-1.92,5.34-3,8.75h6.27l-1.05,2.3-6,.37c-1.12,3.23-4.72,15.59-5.65,19.5-.31,1.43-.13,2.12,1,2.12,2.3,0,5.53-3.61,6.71-6.46Z"/><path class="cls-3" d="M417.05,259a90.93,90.93,0,0,0,11.73-1.49l.19.25c-1.74,4.1-6,17.63-7.33,23-.18.81-.18,1.49.44,1.49,1.43,0,4.22-2.73,5.71-5.58l1.37,1.49c-2.8,5.34-6.77,7.76-10.75,7.76s-4.34-2.86-2.91-7.39c1.42-4.72,3.85-11.92,5-16.21.24-.87.06-1.12-.56-1.12s-2.61-.06-3.73,0Zm10.18-13.48c2.11,0,3.23,1.49,3.11,3.73a4.38,4.38,0,0,1-4.41,4.41,3.14,3.14,0,0,1-3.17-3.6,4.45,4.45,0,0,1,4.41-4.54Z"/><path class="cls-4" d="M449,257.53c6.08,0,9.31,3.41,9.31,9.5s-3.1,13.1-8.13,16.46a14.9,14.9,0,0,1-8.51,2.42c-4.22,0-9.44-1.49-9.44-9.38a21.25,21.25,0,0,1,7.89-16.08,14.65,14.65,0,0,1,8.75-2.92Zm-.25,2.17c-1.55,0-3.17.87-4.84,3.23-2.61,3.85-5,11.55-5,16.15,0,3.54,1.56,4.66,3.23,4.66,1.43,0,2.8-.81,4.1-2.49,2.86-3.66,5.59-12.61,5.53-17.2,0-2.3-.81-4.35-2.92-4.35Z"/><path class="cls-4" d="M491.44,278.15c-2.67,5.27-6.89,7.76-10.8,7.76-4.16,0-4.22-3.35-2.61-8,1.55-4.35,3.79-10.31,5-13.72.62-1.62.25-2.86-1.12-2.86-4.41,0-9.5,8.82-11.74,15a89.56,89.56,0,0,0-3,8.69c-2.67.06-5.09.37-7,.56,2.73-7.58,6.27-19.5,6.89-23.35.12-.81.06-1.12-.5-1.12l-3.66.06.74-2.17a64.55,64.55,0,0,0,10.87-1.55c-.62,2.73-1.55,6.4-2.48,9.69,3.23-4.91,7.76-9.69,13.6-9.69a4.53,4.53,0,0,1,3,1c1.74,1.37,1.37,4.85.37,7.7-1.49,4.29-3.72,9.81-5.09,14.53-.25.75-.06,1.43.44,1.43,1.49,0,4-2.54,5.65-5.59Z"/><path class="cls-1" d="M117.91,186.31a1.6,1.6,0,0,0-.16-1.17c-2.2-2.9-2.58-6.34-3-9.77-.2-1.84-.29-10.15-.42-12.12l-1.06,0v92.46a2.16,2.16,0,0,1,1-.29l1.76-.08a3,3,0,0,1,1.63.4,191.63,191.63,0,0,1-3.07-41.43A168.19,168.19,0,0,1,117.91,186.31Z"/><path class="cls-1" d="M109.45,163.29h1.14V342.76a7.76,7.76,0,0,1-4.15-3.06c-1.61-2-2.84-4.34-4.34-6.45-3.46-4.9-6.93-9.8-10.51-14.61-1.7-2.28-2.27-4.51-1.17-7.24a279.17,279.17,0,0,0,14.45-48.81,199.16,199.16,0,0,0,4.37-48.26,169.26,169.26,0,0,0-3.3-28,1.61,1.61,0,0,1,.17-1.17c2.19-2.9,2.57-6.34,3-9.77C109.26,173.53,109.32,165.05,109.45,163.29Z"/><path class="cls-1" d="M106,204.87a175.89,175.89,0,0,0-8.36-39.09,167.77,167.77,0,0,0-9.16-21.95c-.4-.8-.87-1.76-2-1.26s-.72,1.49-.4,2.33c.6,1.55,1.26,3.08,1.87,4.62.38.94.72,1.88,1.08,2.83a1.54,1.54,0,0,1-.75-.3c-2.22-1.26-4.42-2.55-6.68-3.73a1.58,1.58,0,0,0-1.47.11c-.29.26-.26,1-.24,1.46a4,4,0,0,0,.39,1.21c5.95,14.73,8.75,30.14,9.94,45.9a175.46,175.46,0,0,1,.17,25.22c-.53,7.76-1.39,15.5-2.18,23.25-.27,2.71-.76,5.4-1.15,8.1l.3.08A111.05,111.05,0,0,0,100,213.59v1.14a87.67,87.67,0,0,1-3.84,24,123.35,123.35,0,0,1-11,24.9A151.14,151.14,0,0,1,61.72,295.2a134.52,134.52,0,0,1-48.77,32,12.38,12.38,0,0,0-1.48.67,4.07,4.07,0,0,0-1.26,6.48,16.06,16.06,0,0,0,1.88,1.9,143.19,143.19,0,0,0,22.46,16.65,77.88,77.88,0,0,0,9.55,4.75c3.84,1.55,6.49.7,9.22-2.44a239.73,239.73,0,0,0,18.2-23.66,212.66,212.66,0,0,0,24.54-49.23,198.13,198.13,0,0,0,8.91-37A171.16,171.16,0,0,0,106,204.87ZM81.22,284.12a117.78,117.78,0,0,1-30.6,39.57c-3.3,2.81-6.74,5.46-10.1,8.19-.68.55-1.28.67-1.9-.06s-.54-1.32.26-1.93c2.88-2.22,5.81-4.4,8.58-6.75C61.83,311,74.08,297,82.72,280.14c.12-.24.25-.46.38-.7l.18.08C82.59,281.06,81.94,282.61,81.22,284.12Z"/><path class="cls-7" d="M121.16,180.87l.25-.06.12-.05c4.42-3.59,8.85-7.17,13.24-10.79a2.94,2.94,0,0,0,.82-1.34c.95-3.07,1.82-6.16,2.79-9.22a3,3,0,0,1,1-1.12c.45-.39,1-.72,1.44-1.1a3.32,3.32,0,0,0,.63-.67,3.92,3.92,0,0,0,.62-2.8,4.29,4.29,0,0,0-1.89-2.91,4.19,4.19,0,0,0-5.58.86,2.35,2.35,0,0,0-.19.25,4.08,4.08,0,0,0,.93,5.77c.76.51.77.95.52,1.71a41.69,41.69,0,0,0-1.56,5.22,8.83,8.83,0,0,1-4,5.94c-1.43.95-2.7,2.14-4.11,3.29-.11-2.74-.08-2.79,1.79-4.4a15.66,15.66,0,0,1,1.25-1,2.55,2.55,0,0,0,1.13-2.26c0-1.2.16-2.4.22-3.6a1.93,1.93,0,0,1,.92-1.81,2.74,2.74,0,0,0,.43-4,2.8,2.8,0,0,0-2.45-1,2.86,2.86,0,0,0-1.52.62c-1.16,1-1.48,3-.28,3.91h0c1.2.93,1.1,1.93,1,3.12a12.68,12.68,0,0,0-.12,1.85,2.49,2.49,0,0,1-1.1,2.14c-3,2.43-3,2.45-3.18,6.38a3.08,3.08,0,0,1-1.58,3l-.28.16C120.89,177.88,121.2,179.37,121.16,180.87Z"/><path class="cls-8" d="M129.52,179.6c.25.21.44.4.66.56a2.73,2.73,0,0,0,4-.59,2.91,2.91,0,0,0-.85-4.07,2.64,2.64,0,0,0-3.87,1,6.34,6.34,0,0,1-2.16,2.47c-1.66,1.33-3.27,2.75-5,3.92-1.29.87-1.23,1.93-1.1,3.34Z"/><path class="cls-9" d="M129.66,273.64a1.68,1.68,0,0,1-1.07-.68c-.5-1.28-.82-2.58.67-3.54,1.1-.72,1.11-1.57.42-2.71-1.34-2.21-1.27-2.26-3.78-1.67a2.19,2.19,0,0,1-2.59-2.56c.63-2.6.63-2.6-1.76-3.93-.1-.06-.2-.1-.3-.17a1.23,1.23,0,0,0-2,.29,8.61,8.61,0,0,1-.81.92l-.33-1.71a1.94,1.94,0,0,0-2-1.47l-1.76.08a1.08,1.08,0,0,0-1,1.08v5.85a12,12,0,0,1,6.36,2.47,13.19,13.19,0,0,1,5.31,9.83,13.49,13.49,0,0,1-1.28,6.72,13.22,13.22,0,0,1-10.39,7.47V297c1.21-.31,1.32-.73,1.84-2.65a1.66,1.66,0,0,1,.12-.45,1.09,1.09,0,0,1,.38-.39c1.48-.76,2.18-.6,3.38.65,1.48,1.52.89,1.49,2.93.4l0,0c2.64-1.75,2.31-.93,1.55-3.79a2.08,2.08,0,0,1-.1-1.31,2.16,2.16,0,0,1,1.85-1.4,3.63,3.63,0,0,1,1.25.16c2.11.58,1.72.79,2.83-1.16,1.23-2.19,1.2-2.18-.54-4a2,2,0,0,1-.65-1.23c.1-1.81.38-2.08,2.12-2.59s1.8-.54,1.81-2.32C132.22,274.29,132.21,274.31,129.66,273.64Z"/><path class="cls-10" d="M121.72,276.37a8.74,8.74,0,0,0-2.85-6.6,12.09,12.09,0,0,0-5.47-2.65v19.16a9.54,9.54,0,0,0,6.3-3.66,9.44,9.44,0,0,0,1.57-3A9.82,9.82,0,0,0,121.72,276.37Z"/><path class="cls-11" d="M113.32,302.37v19.34A15.83,15.83,0,0,0,113.32,302.37Z"/><path class="cls-12" d="M132.39,311.62c-.14,1.62-.2,3.25-.23,4.87,0,.79-.37,1.06-1.1,1.18-1.33.22-2.64.58-4,.81a1.07,1.07,0,0,0-1.07,1,7,7,0,0,1-.58,2,2,2,0,0,0,.66,2.78,15.69,15.69,0,0,1,1.18,1.26,8.38,8.38,0,0,0,.6.59,1.57,1.57,0,0,1,.29,2.47c-1,1.34-1.87,2.75-2.77,4.16a.89.89,0,0,1-1.25.4l-1.83-.65c-.75-.25-1.5-.48-2.25-.68a2.18,2.18,0,0,0-1.39.35c-.39.21-.63.72-1,.94-1.6.88-1.73,2.15-1.06,3.67l0,.11c.82,3.35.82,3.36-2.3,5l-1,.5V328.11c.11-.11.23-.21.33-.32a21.18,21.18,0,0,0,2.43-28.5c-.94-1.25-.33-2.38.14-3.33.3-.58,1.49-.92,2.31-1,.47,0,1,.71,1.45,1.21.66.86,1.28.84,2.14.27,1.49-1,3-1.83,4.8-2.87l.25.47,3.21,6.15-.88.76c-1,.87-1.94,1.7-2.93,2.48a1.24,1.24,0,0,0-.46,1.59,4.54,4.54,0,0,1,.34,1.35,2.47,2.47,0,0,0,2.53,2.75c.64,0,1.25.44,1.89.52C132.07,309.84,132.5,310.43,132.39,311.62Z"/><path class="cls-1" d="M140.29,283.25c-1.24,1.45-1.07,3.33.44,4.91.29.3.6.58.89.84l.35.32c1.85,1.7,2,2.81.81,5-1.58,2.8-2.51,3.18-5.52,2.25l-.31-.09c-.26-.08-.51-.16-.74-.25a4.61,4.61,0,0,0-1.52-.3,3.42,3.42,0,0,0-1.4.25c-.48-1-1-2-1.5-3a2,2,0,0,1,0-2c.57-1.22,1-2.5,1.65-3.71a1.33,1.33,0,0,0-.26-1.75,1.3,1.3,0,0,0-.15-.18c-1.85-1.3-1-3-.62-4.58,0-.2.35-.36.56-.49a2,2,0,0,1,.55-.17c3-.91,3-.91,2.92-4.11v0a2.3,2.3,0,0,0-1.76-2.16,12.22,12.22,0,0,1-1.38-.4c-.43-.15-.73-.64-1.07-1-.05-.05,0-.15-.07-.22-.79-1.54-.37-2.65.91-3.81,1.63-1.45,1.55-1,.42-2.92-1.93-3.31-1-2.78-4.44-1.93a2.86,2.86,0,0,1-3.07-3,2,2,0,0,0,.06-.23c.18-1,.83-2.41.43-2.83a14.39,14.39,0,0,0-3.73-2.28c-.14-.08-.48.09-.67.23a12.33,12.33,0,0,0-1.06.93c-1.7-7.84-2.86-13.36-3.46-18.28v0q-.2-1.82-.33-3.63a.57.57,0,0,1,0-.13c0-.56-.09-1.12-.13-1.69v-.07c0-.56-.08-1.11-.11-1.67l-.09-1.62a2.35,2.35,0,0,1,0-.26c0-.46,0-.91-.07-1.37,0-.1,0-.2,0-.3,0-.5,0-1,0-1.49,0-.06,0-.11,0-.16l0-1.37c0-.13,0-.27,0-.4,0-.53,0-1.07,0-1.6s0-1.14,0-1.71q0-7.92.74-15.86c.08-.84.17-1.68.26-2.52l.12-1c0-.14,0-.29.05-.44l.12-1c0-.27.07-.54.11-.81s0-.45.08-.67c.06-.4.12-.81.17-1.22s.09-.62.14-.93c.07-.51.15-1,.23-1.52s.19-1.22.29-1.83c.16-.92.32-1.83.49-2.74l10.09-8.86s1.51,1.9,5.3.68l-.06.36c-.14,1-.28,1.94-.41,2.91l-.06.46c-.05.33-.09.67-.13,1l-.18,1.47c-.06.48-.11,1-.17,1.46l-.15,1.47c0,.33-.07.66-.1,1s-.06.55-.08.83l-.06.61-.12,1.41a2,2,0,0,0,0,.23l-.15,1.82a175.46,175.46,0,0,0-.17,25.22c.53,7.76,1.39,15.51,2.18,23.25.27,2.71.76,5.4,1.15,8.1l-.3.08c-.42-.78-.83-1.57-1.23-2.36-.6-1.18-1.18-2.37-1.73-3.56a110.74,110.74,0,0,1-5.69-14.87q-.77-2.54-1.41-5.11c-.17-.68-.33-1.37-.49-2.06l-.24-1c-.15-.69-.29-1.38-.43-2.08-.21-1-.4-2.09-.58-3.15-.12-.7-.23-1.41-.34-2.11l-.15-1.07h0c-.07-.44-.12-.88-.18-1.32s-.11-.88-.16-1.33v1.14a87.67,87.67,0,0,0,3.84,24,123.35,123.35,0,0,0,11,24.9l.68,1.18.68,1.18.63,1.08c0,.05.07.1.1.16l.66,1.1c.35.58.71,1.16,1.07,1.73l1.08,1.72.7,1.07.08.14.58.87c.29.45.59.89.89,1.32q.75,1.13,1.53,2.22l.19.28a3.89,3.89,0,0,0-2.2.93,28.47,28.47,0,0,0-3.67,3.56l-.29.34-.08.08Z"/><path class="cls-13" d="M213.4,329a3.9,3.9,0,0,0-1.34-1l-.29-.13c-4.3-1.59-7.66-2.52-11.1-3.86l-.14.37A27.73,27.73,0,0,1,175,341.7c-12.07,0-22.59-7.75-26.53-19.63-.11-.32-.2-.65-.3-1-.14-.49-.26-1-.37-1.47s-.2-1-.28-1.5-.14-1-.19-1.5c0-.17,0-.34,0-.51,0-.34,0-.67-.06-1s0-.68,0-1c0-.16,0-.31,0-.47s0-.36,0-.54,0-.26,0-.39l0-.47c0-.1,0-.2,0-.3s0-.2,0-.3,0-.22,0-.33,0-.31.05-.47c0-.44.12-.88.19-1.32a3,3,0,0,1,.06-.32c0-.22.08-.45.12-.67s.07-.3.1-.46.07-.3.11-.45.06-.28.1-.42.08-.32.13-.49.16-.58.25-.87l0-.05c.09-.29.18-.58.28-.87s.21-.59.32-.88c.06-.13.11-.27.16-.41l0,0,.17-.41c.29-.68.6-1.34.93-2v0l0-.05c.07-.13.2-.38.39-.72q.08-.12.15-.27c.06-.09.11-.19.17-.29s.27-.45.41-.68l.54-.81.42-.6.41-.55,0,0a2.56,2.56,0,0,1,.2-.26,24.55,24.55,0,0,1,2.21-2.46,3.07,3.07,0,0,0,.26-.25l.35-.32.28-.25.43-.37L157,293l.8-.61.66-.55a144.82,144.82,0,0,1-10.3-12.66,2.2,2.2,0,0,0-2.47.45,27.72,27.72,0,0,0-3.51,3.43l-.36.4-.54.63c-.9,1.05-.54,2.23.38,3.19.37.39.79.74,1.19,1.11,2.29,2.11,2.57,3.85,1,6.55-1.87,3.34-3.41,4-7,2.84-.38-.11-.76-.22-1.13-.36a3.11,3.11,0,0,0-1.08-.22,2.1,2.1,0,0,0-1.4.45,2.22,2.22,0,0,0-.73,1,34.75,34.75,0,0,0-1.68,6.35c-.22,1.24.61,2.11,1.9,2.42l1.74.47,1.11.32a3.29,3.29,0,0,1,2.57,2.58,16.63,16.63,0,0,1,.13,4.51,3.76,3.76,0,0,1-3.28,3.34c-.87.18-1.74.34-2.59.58a2.29,2.29,0,0,0-.37.12,2.76,2.76,0,0,0-.68.37l0,0a2.42,2.42,0,0,0-.33.31h0a2.25,2.25,0,0,0-.45,1.8,24.21,24.21,0,0,0,1,4.89c.48,1.35.93,2.14,1.59,2.49s1.71.26,3.24-.22a13.7,13.7,0,0,1,1.85-.5,3.34,3.34,0,0,1,3.37,1.06,17.6,17.6,0,0,1,2.31,3.89,3.72,3.72,0,0,1-1.12,4.41c-.58.53-1.2,1-1.77,1.56l-.38.4a2.29,2.29,0,0,0-.13,3.15,17.14,17.14,0,0,0,2.41,3c1.45,1.43,2.43,2.12,3.4,2.06s1.87-.8,3.2-2.27A4.36,4.36,0,0,1,153.1,344c4.49.29,6.91,3.79,5.58,8.06a6.48,6.48,0,0,0-.41,2.5h0c.13,1.17,1,1.8,2.94,2.43.42.14.85.25,1.28.37,2.54.74,3.87,1,4.75.33.72-.53,1.14-1.67,1.67-3.62a.29.29,0,0,0,0-.09c.81-2.88,2.19-3.77,5.72-3.73,3,0,4.39,1.13,5.09,3.92.16.62.24,1.26.39,1.88a4.73,4.73,0,0,0,.3.92l.09.16a2.22,2.22,0,0,0,2.41,1.11,18.46,18.46,0,0,0,3.77-.64c1.92-.56,3-1.07,3.44-1.92s.28-1.82-.2-3.44c0-.16-.09-.32-.14-.49a2.69,2.69,0,0,1-.25-.84,7.09,7.09,0,0,1,.22-2.59,6,6,0,0,1,9.22-2.11,6.24,6.24,0,0,1,.63.63c.26.3.5.61.77.89a2.84,2.84,0,0,0,2.17,1.18,2.65,2.65,0,0,0,1.45-.65,33.58,33.58,0,0,0,4.39-4.29,2.24,2.24,0,0,0,.59-1.22,2.62,2.62,0,0,0-.83-2.11c-.3-.32-.62-.62-.94-.93s-.72-.67-1.07-1a3.72,3.72,0,0,1-1-4.07,13.37,13.37,0,0,1,1.63-3.11c1.33-1.86,2.82-2.28,5-1.65.62.17,1.23.36,1.85.54l.39.1.15,0A3.91,3.91,0,0,0,213.4,329Z"/><path class="cls-14" d="M194.72,321a21,21,0,1,1-31.79-24.39C175.13,309.16,186.4,316.65,194.72,321Z"/><path class="cls-15" d="M112.67,153.87v-1c0-.27.28-.27.5-.27.54,0,.52-.23.47-.64-.44-3-.82-6.07-1.23-9.11-.06-.43-.14-.85-.21-1.27h-.46c-.07.42-.15.84-.21,1.27-.41,3-.8,6.08-1.22,9.11-.07.41-.08.65.46.64.21,0,.46,0,.5.27v1a5.21,5.21,0,1,0,1.4,0Zm-.7,8.38a3.21,3.21,0,1,1,3.21-3.21A3.21,3.21,0,0,1,112,162.25Z"/></g></svg>