<svg xmlns="http://www.w3.org/2000/svg" viewBox="0 0 500 500"><defs><style>.cls-1,.cls-2{fill:#efefef;}.cls-2{fill-rule:evenodd;}.cls-3{opacity:0.5;}</style></defs><g id="Layer_4" data-name="Layer 4"><path class="cls-1" d="M118,186a1.65,1.65,0,0,0-.16-1.19c-2.21-2.91-2.59-6.37-3-9.82-.2-1.85-.28-10.21-.41-12.19l-1.08,0v93a2.21,2.21,0,0,1,1-.3l1.77-.08a3,3,0,0,1,1.64.41,193.35,193.35,0,0,1-3.09-41.68A171.06,171.06,0,0,1,118,186Z"/><path class="cls-1" d="M109.47,162.79h1.15v180.5a7.83,7.83,0,0,1-4.18-3.07c-1.61-2-2.85-4.37-4.36-6.5-3.48-4.92-7-9.85-10.57-14.69-1.71-2.29-2.28-4.53-1.17-7.28a280.35,280.35,0,0,0,14.52-49.09,199.93,199.93,0,0,0,4.4-48.54A171.06,171.06,0,0,0,106,186a1.63,1.63,0,0,1,.16-1.18c2.21-2.92,2.59-6.38,3-9.83C109.28,173.09,109.34,164.56,109.47,162.79Z"/><path class="cls-1" d="M106,204.61a176.72,176.72,0,0,0-8.4-39.31,170.55,170.55,0,0,0-9.21-22.08c-.41-.81-.88-1.77-2-1.27s-.72,1.5-.4,2.34c.6,1.56,1.26,3.1,1.88,4.65.38.95.72,1.9,1.08,2.84a1.59,1.59,0,0,1-.75-.29c-2.23-1.27-4.44-2.56-6.71-3.76a1.6,1.6,0,0,0-1.48.12c-.29.26-.27,1-.24,1.46a4,4,0,0,0,.39,1.22c6,14.82,8.8,30.32,10,46.17a177.41,177.41,0,0,1,.18,25.36c-.54,7.81-1.41,15.59-2.2,23.38-.27,2.73-.76,5.44-1.16,8.15l.3.08A111.49,111.49,0,0,0,100,213.38v1.14a87.88,87.88,0,0,1-3.87,24.15A123.45,123.45,0,0,1,85,263.72a151.87,151.87,0,0,1-23.54,31.74,135.42,135.42,0,0,1-49,32.18,10.45,10.45,0,0,0-1.49.67,4.09,4.09,0,0,0-1.27,6.52,16.15,16.15,0,0,0,1.89,1.9,143.61,143.61,0,0,0,22.59,16.75,78,78,0,0,0,9.6,4.77c3.87,1.57,6.54.72,9.29-2.44A242.4,242.4,0,0,0,71.32,332,214,214,0,0,0,96,282.49a199.49,199.49,0,0,0,9-37.18A172.14,172.14,0,0,0,106,204.61ZM81.08,284.32a118.54,118.54,0,0,1-30.77,39.8c-3.32,2.82-6.78,5.48-10.16,8.23-.68.55-1.29.68-1.91-.06s-.55-1.33.26-1.94c2.9-2.23,5.84-4.42,8.63-6.79,14.45-12.25,26.77-26.27,35.46-43.25.12-.23.26-.46.38-.7l.18.08C82.46,281.23,81.8,282.79,81.08,284.32Z"/><path class="cls-1" d="M121.25,180.47l.25-.06a.19.19,0,0,0,.12,0q6.67-5.4,13.32-10.85a2.89,2.89,0,0,0,.82-1.35c1-3.09,1.84-6.19,2.81-9.27a3.16,3.16,0,0,1,1-1.13c.44-.39,1-.72,1.44-1.1a3.16,3.16,0,0,0,.64-.68,3.9,3.9,0,0,0,.62-2.81,4.29,4.29,0,0,0-1.9-2.93,4.37,4.37,0,0,0-1.76-.67,4.25,4.25,0,0,0-3.86,1.53c-.06.08-.12.17-.19.25a4.11,4.11,0,0,0,.94,5.8,1.25,1.25,0,0,1,.53,1.73,42.23,42.23,0,0,0-1.58,5.25,8.87,8.87,0,0,1-4,6c-1.44,1-2.72,2.16-4.14,3.31-.11-2.75-.09-2.8,1.8-4.42a15.44,15.44,0,0,1,1.25-1.05,2.55,2.55,0,0,0,1.15-2.28c0-1.2.16-2.41.21-3.61a2,2,0,0,1,.93-1.83,2.74,2.74,0,0,0,.43-4,2.84,2.84,0,0,0-2.46-1,2.89,2.89,0,0,0-1.53.64c-1.17,1-1.49,3-.28,3.93h0c1.21.93,1.1,1.94,1,3.13a16.59,16.59,0,0,0-.12,1.86,2.48,2.48,0,0,1-1.1,2.15c-3,2.45-3.07,2.47-3.2,6.43a3.1,3.1,0,0,1-1.59,3l-.28.16C121,177.47,121.29,179,121.25,180.47Z"/><path class="cls-1" d="M129.66,179.2c.25.21.44.4.66.56a2.75,2.75,0,0,0,4-.59,2.93,2.93,0,0,0-.85-4.1,2.65,2.65,0,0,0-3.89,1,6.41,6.41,0,0,1-2.18,2.48c-1.67,1.34-3.28,2.77-5.05,4-1.3.87-1.24,1.94-1.11,3.36Z"/><path class="cls-1" d="M129.8,273.78c-.4-.11-1-.36-1.07-.69-.51-1.29-.83-2.59.67-3.56,1.11-.72,1.11-1.57.42-2.72-1.35-2.23-1.28-2.27-3.81-1.68a2.21,2.21,0,0,1-2.6-2.58c.64-2.62.64-2.62-1.76-3.95a3.07,3.07,0,0,1-.31-.17,1.23,1.23,0,0,0-2,.29,8.67,8.67,0,0,1-.82.93c-.11-.58-.22-1.15-.32-1.73a1.94,1.94,0,0,0-2-1.47l-1.77.08a1.07,1.07,0,0,0-1,1.09v5.87a12.2,12.2,0,0,1,6.39,2.49,13.24,13.24,0,0,1,5.34,9.89,13.5,13.5,0,0,1-1.28,6.75,13.27,13.27,0,0,1-10.45,7.51v7.11c1.21-.31,1.33-.73,1.85-2.66a1.48,1.48,0,0,1,.12-.45,1,1,0,0,1,.38-.4c1.49-.76,2.19-.6,3.4.65,1.48,1.53.89,1.5,2.94.4h0c2.66-1.77,2.33-.94,1.56-3.82a2.14,2.14,0,0,1-.09-1.31,2.21,2.21,0,0,1,1.85-1.42,4.08,4.08,0,0,1,1.27.17c2.11.59,1.72.8,2.84-1.17,1.24-2.2,1.21-2.19-.55-4a2,2,0,0,1-.65-1.23c.11-1.83.38-2.1,2.13-2.62s1.81-.53,1.82-2.33C132.37,274.43,132.37,274.45,129.8,273.78Z"/><path class="cls-1" d="M121.82,276.52a8.8,8.8,0,0,0-2.87-6.63,12.12,12.12,0,0,0-5.5-2.67v19.27a9.63,9.63,0,0,0,6.33-3.68,9.37,9.37,0,0,0,1.58-3A10.21,10.21,0,0,0,121.82,276.52Z"/><path class="cls-1" d="M113.36,302.68v19.45A15.91,15.91,0,0,0,113.36,302.68Z"/><path class="cls-1" d="M132.55,312c-.15,1.63-.2,3.27-.23,4.9,0,.79-.37,1.07-1.11,1.19-1.34.22-2.66.58-4,.81-.63.11-1,.33-1.08,1a6.86,6.86,0,0,1-.59,2,2.07,2.07,0,0,0,.67,2.8,15.8,15.8,0,0,1,1.19,1.26,5.57,5.57,0,0,0,.6.59,1.59,1.59,0,0,1,.29,2.49c-1,1.35-1.88,2.77-2.78,4.18a.89.89,0,0,1-1.26.4c-.61-.22-1.23-.44-1.84-.64s-1.51-.49-2.27-.69a2.24,2.24,0,0,0-1.4.35c-.39.22-.62.73-1,.94-1.61.89-1.74,2.17-1.06,3.69,0,0,0,.08,0,.12.83,3.37.83,3.38-2.31,5-.33.18-.67.35-1,.51V328.56l.34-.32a21.3,21.3,0,0,0,2.44-28.66c-.94-1.27-.33-2.4.15-3.36.29-.58,1.5-.92,2.31-1,.47,0,1.06.71,1.46,1.22.67.86,1.29.84,2.16.27,1.49-1,3.06-1.84,4.82-2.89l.26.48,3.22,6.18-.88.76c-1,.88-1.95,1.72-2.94,2.5a1.24,1.24,0,0,0-.47,1.59,4.68,4.68,0,0,1,.34,1.36,2.48,2.48,0,0,0,2.54,2.77c.65.05,1.26.44,1.91.52C132.22,310.18,132.65,310.77,132.55,312Z"/><path class="cls-1" d="M140.49,283.44c-1.24,1.46-1.07,3.35.44,4.94.3.31.6.58.9.85l.35.32c1.86,1.7,2,2.83.82,5-1.59,2.81-2.53,3.19-5.56,2.25l-.31-.09c-.26-.08-.51-.15-.74-.24a4.64,4.64,0,0,0-1.53-.31,3.59,3.59,0,0,0-1.4.25c-.49-1-1-2.05-1.51-3.05a2,2,0,0,1,0-2c.58-1.23,1-2.52,1.67-3.73a1.35,1.35,0,0,0-.27-1.76c-.06-.06-.09-.14-.15-.18-1.86-1.31-1.05-3-.63-4.61.06-.2.35-.37.57-.5a2.51,2.51,0,0,1,.55-.17c3-.91,3-.91,2.94-4.13h0a2.3,2.3,0,0,0-1.78-2.18,12.85,12.85,0,0,1-1.38-.4c-.43-.15-.73-.65-1.08-1-.05-.05,0-.15-.06-.22-.81-1.55-.38-2.67.91-3.83,1.64-1.46,1.56-1,.42-2.94-1.94-3.33-1-2.8-4.47-1.94-1.47.36-3.42-1.52-3.08-3a2,2,0,0,0,.06-.23c.18-1,.84-2.42.43-2.85a15,15,0,0,0-3.75-2.29c-.14-.08-.48.1-.68.23s-.63.55-1.06.94c-1.71-7.89-2.88-13.44-3.48-18.39v-.05c-.13-1.21-.24-2.43-.33-3.65a.53.53,0,0,1,0-.13c0-.56-.09-1.13-.13-1.7,0,0,0,0,0-.07,0-.56-.07-1.12-.11-1.68l-.09-1.63c0-.09,0-.18,0-.26l-.06-1.38c0-.1,0-.2,0-.3l-.06-1.5v-.16c0-.46,0-.92,0-1.38,0-.13,0-.26,0-.4,0-.54,0-1.07,0-1.61s0-1.15,0-1.72q0-8,.75-15.95c.08-.85.17-1.69.26-2.53l.12-1c0-.14,0-.29,0-.44,0-.35.08-.69.13-1s.06-.54.1-.81l.09-.68c0-.4.11-.81.17-1.22s.08-.63.13-.94c.08-.51.16-1,.23-1.53l.3-1.84c.16-.92.32-1.84.49-2.75l10.15-8.92s1.52,1.91,5.33.69l-.06.36-.42,2.93-.06.46c0,.34-.09.67-.12,1-.07.49-.13,1-.19,1.47s-.11,1-.16,1.47-.11,1-.16,1.48c0,.33-.07.66-.1,1s-.06.55-.08.83l-.06.62-.12,1.42a1.64,1.64,0,0,0,0,.23l-.15,1.83a177.41,177.41,0,0,0-.18,25.36c.55,7.81,1.41,15.6,2.2,23.38.27,2.73.77,5.44,1.16,8.15l-.3.08c-.43-.78-.84-1.58-1.24-2.37-.6-1.19-1.19-2.38-1.75-3.58a113.93,113.93,0,0,1-5.71-15q-.78-2.55-1.42-5.14c-.17-.68-.34-1.38-.5-2.07-.08-.35-.16-.69-.23-1-.16-.7-.3-1.4-.44-2.1-.21-1-.4-2.1-.58-3.16-.12-.71-.24-1.42-.34-2.13-.06-.36-.11-.71-.16-1.07h0l-.18-1.33c0-.45-.11-.89-.16-1.34v1.15a88,88,0,0,0,3.87,24.15,123.61,123.61,0,0,0,11.09,25l.68,1.19.69,1.18.63,1.09.1.15c.22.37.44.74.67,1.11.35.59.71,1.17,1.07,1.75l1.09,1.73L144,273a1,1,0,0,1,.08.14l.59.88c.29.45.59.89.89,1.33.5.75,1,1.49,1.54,2.23l.19.28a3.89,3.89,0,0,0-2.21.93,28.3,28.3,0,0,0-3.69,3.59l-.3.33-.07.09Z"/><path class="cls-1" d="M214,329.42a4.05,4.05,0,0,0-1.34-1l-.3-.12c-4.32-1.6-7.7-2.54-11.16-3.89l-.15.38a27.88,27.88,0,0,1-25.65,17.45c-12.14,0-22.72-7.8-26.68-19.75-.11-.32-.21-.65-.3-1-.14-.49-.27-1-.37-1.48s-.21-1-.28-1.5-.15-1-.19-1.52c0-.17,0-.34,0-.51l-.06-1c0-.35,0-.69,0-1,0-.16,0-.32,0-.48s0-.36,0-.54,0-.26,0-.39l0-.47c0-.1,0-.2,0-.3l0-.3,0-.34c0-.16,0-.31,0-.47.05-.44.12-.89.19-1.33l.06-.32c0-.23.08-.45.13-.67s.06-.31.1-.46.06-.31.1-.46.07-.28.1-.42.09-.33.14-.49.16-.59.25-.88a.43.43,0,0,0,0,0c.1-.29.19-.58.29-.87s.21-.59.33-.89c0-.13.1-.27.16-.41l0-.05.17-.41c.28-.67.59-1.34.93-2,0,0,0,0,0,0l0,0c.07-.13.2-.39.39-.73l.15-.27c.06-.1.11-.2.17-.29l.42-.68c.17-.28.35-.55.54-.82l.42-.61.42-.55,0,0,.2-.26a24.86,24.86,0,0,1,2.23-2.47l.26-.25.35-.33.28-.25.43-.37.32-.26c.26-.21.53-.42.81-.62l.66-.55a143.18,143.18,0,0,1-10.36-12.73,2.21,2.21,0,0,0-2.48.45,27.47,27.47,0,0,0-3.54,3.45l-.36.4c-.18.21-.36.43-.55.64-.9,1.06-.54,2.24.39,3.21.38.39.8.74,1.2,1.11,2.3,2.12,2.58,3.88,1.06,6.59-1.89,3.35-3.43,4-7.06,2.86-.38-.12-.76-.22-1.13-.37a3.46,3.46,0,0,0-1.09-.22,2.19,2.19,0,0,0-1.41.45,2.34,2.34,0,0,0-.74,1,35.89,35.89,0,0,0-1.68,6.38c-.22,1.25.61,2.13,1.91,2.44l1.75.47,1.11.33a3.3,3.3,0,0,1,2.59,2.59,16.85,16.85,0,0,1,.13,4.54,3.79,3.79,0,0,1-3.3,3.35c-.87.18-1.75.35-2.6.58l-.38.13a3,3,0,0,0-.68.37l0,0a2,2,0,0,0-.33.32h0a2.27,2.27,0,0,0-.46,1.81,25.27,25.27,0,0,0,1,4.91,4.27,4.27,0,0,0,1.6,2.51c.73.4,1.72.26,3.26-.23a15.5,15.5,0,0,1,1.86-.5,3.37,3.37,0,0,1,3.39,1.06,18.28,18.28,0,0,1,2.33,3.92,3.75,3.75,0,0,1-1.13,4.43c-.59.54-1.21,1-1.78,1.58-.14.13-.27.27-.38.39a2.32,2.32,0,0,0-.14,3.18,17.24,17.24,0,0,0,2.43,3c1.46,1.44,2.44,2.13,3.42,2.08s1.87-.81,3.21-2.29a4.41,4.41,0,0,1,3.59-1.78c4.52.29,6.95,3.81,5.62,8.11a6.52,6.52,0,0,0-.41,2.51h0c.13,1.18,1,1.81,3,2.45.43.14.86.24,1.29.37,2.55.74,3.89,1,4.77.33s1.15-1.68,1.69-3.65a.31.31,0,0,1,0-.08c.81-2.9,2.2-3.8,5.75-3.75,3,0,4.41,1.13,5.12,3.94.16.63.24,1.27.39,1.89a4.13,4.13,0,0,0,.31.92.89.89,0,0,0,.08.17,2.25,2.25,0,0,0,2.43,1.11,18.77,18.77,0,0,0,3.79-.64c1.93-.56,3-1.08,3.46-1.94s.28-1.83-.2-3.45c-.05-.16-.09-.32-.15-.49a2.72,2.72,0,0,1-.24-.85,7,7,0,0,1,.22-2.61,6,6,0,0,1,9.27-2.11,5.25,5.25,0,0,1,.63.62c.26.3.51.62.78.9a2.83,2.83,0,0,0,2.18,1.19,2.73,2.73,0,0,0,1.46-.66,34.59,34.59,0,0,0,4.42-4.31,2.31,2.31,0,0,0,.59-1.23,2.63,2.63,0,0,0-.84-2.12c-.3-.32-.62-.63-.94-.93s-.73-.68-1.08-1a3.74,3.74,0,0,1-1-4.09,13,13,0,0,1,1.64-3.13c1.34-1.87,2.84-2.29,5.07-1.66.62.17,1.23.36,1.85.54l.4.1.15,0A4,4,0,0,0,214,329.42Z"/><path class="cls-1" d="M195.23,321.44a21.11,21.11,0,1,1-32-24.53C175.53,309.5,186.87,317,195.23,321.44Z"/><path class="cls-2" d="M112.71,153.32v-1c0-.27.29-.27.5-.27.55,0,.53-.23.47-.64-.43-3.05-.82-6.11-1.23-9.16,0-.43-.14-.86-.21-1.29h-.46c-.07.43-.16.86-.21,1.29-.42,3-.8,6.11-1.24,9.16-.06.41-.08.65.47.64.22,0,.47,0,.51.27v1a5.24,5.24,0,1,0,1.4,0Zm-.7,8.42a3.23,3.23,0,1,1,3.22-3.22A3.23,3.23,0,0,1,112,161.74Z"/><path class="cls-1" d="M203.31,243.62h-4.93l-1-7.27H192l-1,7.27h-4.84l5.53-32h6.16Zm-8.72-25.13-2,13.47h4.07l-2-13.47Z"/><path class="cls-1" d="M209.71,239.05h8.09v4.57H204.87v-32h4.84Z"/><path class="cls-1" d="M231.55,213.19a7.66,7.66,0,0,1,2,5.66V221l-4.66.23v-1.92c0-2.46-1-3.7-2.83-3.7a2.65,2.65,0,0,0-2.13.83,3.6,3.6,0,0,0-.71,2.42v17.45q0,3.24,2.79,3.24a2.47,2.47,0,0,0,2.1-.89,4.59,4.59,0,0,0,.69-2.81v-5.48h-2.74v-4.48h7.49V236.4a7,7,0,0,1-7.63,7.67,7.45,7.45,0,0,1-5.58-2,7.76,7.76,0,0,1-2-5.66V218.85a7.76,7.76,0,0,1,2-5.66,7.45,7.45,0,0,1,5.58-2A7.61,7.61,0,0,1,231.55,213.19Z"/><path class="cls-1" d="M249.82,216.11h-8.77v9h7.08v4.47h-7.08v9.51h8.77v4.48H236.21v-32h13.61Z"/><path class="cls-1" d="M262.94,243.62l-3.84-13.53h-2.24v13.53H252v-32h7a8.06,8.06,0,0,1,6,2.08,8.2,8.2,0,0,1,2.06,6V222c0,3.39-1.14,5.73-3.43,7l4.43,14.58Zm-6.08-27.51v9.5h2a3.19,3.19,0,0,0,2.56-1,4.46,4.46,0,0,0,.83-3V220a4.48,4.48,0,0,0-.83-3,3.19,3.19,0,0,0-2.56-1Z"/><path class="cls-1" d="M274.5,243.62h-4.85v-32h4.85Z"/><path class="cls-1" d="M293.27,243.62h-4.93l-1-7.27h-5.35l-1.05,7.27h-4.84l5.53-32h6.16Zm-8.72-25.13-2,13.47h4.07l-2-13.47Z"/><path class="cls-1" d="M310.59,243.62h-4.75l-6.35-21.2h-.09v21.2h-4.57v-32h5.39l5.71,19.06H306V211.63h4.57Z"/><path class="cls-1" d="M334.26,216.11h-8.78v9h7.09v4.47h-7.09v9.51h8.78v4.48H320.64v-32h13.62Z"/><path class="cls-1" d="M352.21,243.62h-4.75l-6.35-21.2H341v21.2h-4.57v-32h5.39l5.71,19.06h.09V211.63h4.57Z"/><path class="cls-1" d="M368.16,213.19a7.66,7.66,0,0,1,2,5.66V221l-4.66.23v-1.92c0-2.46-.95-3.7-2.84-3.7a2.64,2.64,0,0,0-2.12.83,3.6,3.6,0,0,0-.71,2.42v17.45q0,3.24,2.79,3.24a2.47,2.47,0,0,0,2.1-.89,4.59,4.59,0,0,0,.69-2.81v-5.48h-2.75v-4.48h7.5V236.4a7,7,0,0,1-7.63,7.67,7.45,7.45,0,0,1-5.58-2,7.76,7.76,0,0,1-2-5.66V218.85a7.76,7.76,0,0,1,2-5.66,7.45,7.45,0,0,1,5.58-2A7.61,7.61,0,0,1,368.16,213.19Z"/><path class="cls-1" d="M377.66,243.62h-4.84v-32h4.84Z"/><path class="cls-1" d="M396.71,243.62H392l-6.35-21.2h-.09v21.2H381v-32h5.39l5.71,19.06h.09V211.63h4.57Z"/><path class="cls-1" d="M413.62,216.11h-8.77v9h7.08v4.47h-7.08v9.51h8.77v4.48H400v-32h13.62Z"/><path class="cls-1" d="M429.43,216.11h-8.78v9h7.09v4.47h-7.09v9.51h8.78v4.48H415.81v-32h13.62Z"/><path class="cls-1" d="M442.54,243.62l-3.84-13.53h-2.24v13.53h-4.84v-32h7a8.06,8.06,0,0,1,6,2.08,8.16,8.16,0,0,1,2.06,6V222c0,3.39-1.14,5.73-3.43,7l4.44,14.58Zm-6.08-27.51v9.5h2a3.2,3.2,0,0,0,2.56-1,4.52,4.52,0,0,0,.82-3V220a4.54,4.54,0,0,0-.82-3,3.2,3.2,0,0,0-2.56-1Z"/><path class="cls-1" d="M454.1,243.62h-4.84v-32h4.84Z"/><path class="cls-1" d="M473.15,243.62H468.4l-6.35-21.2H462v21.2h-4.57v-32h5.39l5.71,19.06h.09V211.63h4.57Z"/><path class="cls-1" d="M489.1,213.19a7.66,7.66,0,0,1,2,5.66V221l-4.66.23v-1.92c0-2.46-.95-3.7-2.84-3.7a2.64,2.64,0,0,0-2.12.83,3.6,3.6,0,0,0-.71,2.42v17.45q0,3.24,2.79,3.24a2.47,2.47,0,0,0,2.1-.89,4.59,4.59,0,0,0,.68-2.81v-5.48h-2.74v-4.48h7.5V236.4a7,7,0,0,1-7.63,7.67,7.45,7.45,0,0,1-5.58-2,7.76,7.76,0,0,1-2-5.66V218.85a7.76,7.76,0,0,1,2-5.66,7.45,7.45,0,0,1,5.58-2A7.62,7.62,0,0,1,489.1,213.19Z"/><g class="cls-3"><path class="cls-1" d="M214.3,276c0,1.12.06,2.86,0,3.91-3.54,5.41-9.5,7.77-15.34,7.77-8.57,0-12.92-5.35-12.92-14,0-7.76,3.23-16.33,9.26-21.73a18.67,18.67,0,0,1,12.79-4.78c3.91,0,7,1.49,8.38,3.35l2.18-3.17,1.67.5a99.94,99.94,0,0,0-4,13.29h-1.87c.44-3,.31-6.52-.68-8.51a5.16,5.16,0,0,0-5-3.1c-2.61,0-5.4,1.24-7.82,4.22-4.54,5.71-6.77,13.72-6.77,21.11a13.93,13.93,0,0,0,1.73,7.21,6.57,6.57,0,0,0,5.41,2.79c5.65,0,9-3.1,11.67-8.88Z"/><path class="cls-1" d="M236,259.27c6.09,0,9.32,3.42,9.32,9.5s-3.11,13.11-8.14,16.46a14.85,14.85,0,0,1-8.5,2.42c-4.23,0-9.44-1.49-9.44-9.37a21.27,21.27,0,0,1,7.88-16.09,14.73,14.73,0,0,1,8.76-2.92Zm-.24,2.18c-1.56,0-3.17.87-4.85,3.23-2.61,3.85-5,11.55-5,16.14,0,3.54,1.55,4.66,3.23,4.66,1.43,0,2.8-.81,4.1-2.48,2.86-3.67,5.59-12.61,5.53-17.21,0-2.29-.81-4.34-2.92-4.34Z"/><path class="cls-1" d="M294.35,279.89c-2.61,5.28-6.84,7.76-10.81,7.76-4.28,0-4.22-3.54-2.61-7.95s3.67-9.62,5-13.29c.69-1.86.31-3.29-1-3.29-4.6,0-9.88,9.69-12,15.65-.74,2.11-1.8,4.54-2.85,8.08-2.61.06-5.34.37-7,.55,2.3-6.27,6-18.13,6.89-21.36.37-1.55.25-2.92-1.18-2.92-3.1,0-8.38,6.4-11.55,15.09a91.56,91.56,0,0,0-3,8.7c-2.49.06-5.16.31-7,.49,3.11-8.57,6.28-19.25,7-23.22.19-1-.12-1.24-.87-1.24h-3.48l.75-2.11a94.28,94.28,0,0,0,11.18-1.56c-.56,2.18-1.68,6.71-2.61,9.57,3.1-4.47,7.58-9.57,13.41-9.57,4,0,4.54,3.11,3.48,6.65-.25.93-.43,1.61-.81,2.67,3.23-4.54,7.83-9.32,13.67-9.32a4.41,4.41,0,0,1,3.29,1.24c1.55,1.68.68,5.1,0,7-1.74,4.91-4.6,12.42-5.41,15-.24.8-.18,1.49.38,1.49,1.49,0,4.16-2.61,5.71-5.53Z"/><path class="cls-1" d="M304.28,262.13c.62-1.93,1.3-4.47,1.55-5.47a40.56,40.56,0,0,0,6.52-1.61l.25.31c-1.05,3.35-2.48,8.14-3.66,11.86,2.73-3.66,6.71-8,11.8-8,4,0,5.9,3.42,5.9,7.21,0,7.57-4.47,16.58-11.37,19.81a13.75,13.75,0,0,1-5.84,1.36c-2,0-4.22-.62-5.34-1.86-1.42,5.09-2.23,8.26-2.6,10.25-.31,1.24-.07,1.67,1.11,1.8l3.79.37-.56,2.05h-7.39c-3,0-6.52.12-9.81.43l.68-2.11,2.55-.37a2.63,2.63,0,0,0,2.42-1.93c2.8-7.94,6.34-20.55,8.76-29.18a22,22,0,0,1-4.85,2.42c-.24-.62-.49-1.3-.74-1.8A18.36,18.36,0,0,0,304.28,262.13Zm13.1.81c-2.6,0-6.14,4.16-8.44,8.94-1.49,2.61-3.36,7.39-3.36,9.75s1.5,3.6,3.3,3.6c1.49,0,3.35-.87,5-3a28.77,28.77,0,0,0,5.66-15.9c0-1.86-.69-3.41-2.05-3.41Z"/><path class="cls-1" d="M351.79,280.45a16.21,16.21,0,0,1-13.54,7.2c-5.22,0-8-3.29-8-8.69a22,22,0,0,1,8.2-16.89,13.93,13.93,0,0,1,8.32-2.8c5,0,7.14,2.86,7.14,6.52,0,2.92-2.11,4.66-4,5.53-2.85,1.43-9,2.79-12,3.17a19.65,19.65,0,0,0-.5,4.28c0,3.23,1.06,5.65,4,5.65,3.35,0,6.77-2.23,9-7.32h1.06Zm-6-19c-1.56,0-5,1.86-7.58,10.74a31,31,0,0,0,6.58-1.86,6.18,6.18,0,0,0,3.29-5.84c0-1.93-.74-3-2.17-3Z"/><path class="cls-1" d="M372.28,280.7a12.51,12.51,0,0,1-10.81,6.95c-5.27,0-5.52-3-4.22-7.45,1.62-5.46,3.91-13.23,5.09-17.2l-4.16-.37,1.06-2.3h3.91c.93-3,1.62-5.53,2.11-7.39a46.39,46.39,0,0,0,7.7-1.37c-.56,1.24-1.92,5.34-3,8.76h6.27l-1.05,2.3-6,.37c-1.12,3.23-4.72,15.59-5.65,19.5-.31,1.43-.13,2.11,1,2.11,2.3,0,5.53-3.6,6.71-6.46Z"/><path class="cls-1" d="M378.43,260.76a89.21,89.21,0,0,0,11.73-1.49l.19.25c-1.74,4.1-6,17.64-7.33,23-.18.81-.18,1.49.44,1.49,1.43,0,4.22-2.73,5.71-5.59l1.37,1.49c-2.8,5.34-6.77,7.76-10.75,7.76s-4.34-2.85-2.91-7.39c1.42-4.72,3.85-11.92,5-16.21.24-.86.06-1.11-.56-1.11s-2.61-.07-3.73,0Zm10.18-13.47c2.11,0,3.23,1.49,3.11,3.72a4.38,4.38,0,0,1-4.41,4.41,3.14,3.14,0,0,1-3.17-3.6,4.44,4.44,0,0,1,4.41-4.53Z"/><path class="cls-1" d="M409.35,280.7a12.5,12.5,0,0,1-10.8,6.95c-5.28,0-5.53-3-4.22-7.45,1.61-5.46,3.91-13.23,5.09-17.2l-4.16-.37,1.05-2.3h3.91c.94-3,1.62-5.53,2.12-7.39a46.78,46.78,0,0,0,7.7-1.37c-.56,1.24-1.93,5.34-3,8.76h6.27l-1.06,2.3-6,.37c-1.12,3.23-4.72,15.59-5.65,19.5-.31,1.43-.12,2.11,1,2.11,2.3,0,5.53-3.6,6.71-6.46Z"/><path class="cls-1" d="M415.5,260.76a89.37,89.37,0,0,0,11.74-1.49l.18.25c-1.73,4.1-6,17.64-7.32,23-.19.81-.19,1.49.43,1.49,1.43,0,4.22-2.73,5.71-5.59l1.37,1.49c-2.79,5.34-6.77,7.76-10.74,7.76s-4.35-2.85-2.92-7.39c1.43-4.72,3.85-11.92,5-16.21.25-.86.06-1.11-.56-1.11s-2.61-.07-3.73,0Zm10.19-13.47c2.11,0,3.22,1.49,3.1,3.72a4.37,4.37,0,0,1-4.41,4.41,3.14,3.14,0,0,1-3.17-3.6,4.44,4.44,0,0,1,4.41-4.53Z"/><path class="cls-1" d="M447.42,259.27c6.09,0,9.32,3.42,9.32,9.5s-3.11,13.11-8.14,16.46a14.88,14.88,0,0,1-8.51,2.42c-4.22,0-9.44-1.49-9.44-9.37a21.28,21.28,0,0,1,7.89-16.09,14.73,14.73,0,0,1,8.76-2.92Zm-.25,2.18c-1.55,0-3.17.87-4.84,3.23-2.61,3.85-5,11.55-5,16.14,0,3.54,1.55,4.66,3.23,4.66,1.43,0,2.79-.81,4.1-2.48,2.85-3.67,5.58-12.61,5.52-17.21,0-2.29-.8-4.34-2.92-4.34Z"/><path class="cls-1" d="M489.9,279.89c-2.67,5.28-6.9,7.76-10.81,7.76-4.16,0-4.22-3.35-2.61-7.95,1.56-4.34,3.79-10.3,5-13.72.62-1.61.25-2.86-1.12-2.86-4.41,0-9.5,8.82-11.73,15a87.25,87.25,0,0,0-3,8.7c-2.67.06-5.1.37-7,.55,2.73-7.57,6.27-19.5,6.89-23.35.13-.8.07-1.11-.49-1.11l-3.67.06.75-2.17A64.72,64.72,0,0,0,473,259.27c-.63,2.74-1.56,6.4-2.49,9.69,3.23-4.91,7.76-9.69,13.6-9.69a4.53,4.53,0,0,1,3,1c1.74,1.36,1.37,4.84.38,7.7-1.49,4.28-3.73,9.81-5.1,14.53-.24.74-.06,1.43.44,1.43,1.49,0,4-2.55,5.65-5.59Z"/></g><path class="cls-1" d="M215.85,274.3c0,1.11.06,2.85,0,3.91-3.54,5.4-9.51,7.76-15.34,7.76-8.57,0-12.92-5.34-12.92-14,0-7.76,3.23-16.33,9.25-21.74a18.76,18.76,0,0,1,12.8-4.78c3.91,0,7,1.49,8.38,3.35l2.17-3.16,1.68.49a102.32,102.32,0,0,0-4,13.29H216c.43-3,.31-6.52-.68-8.5a5.15,5.15,0,0,0-5-3.11c-2.61,0-5.41,1.24-7.83,4.22-4.53,5.72-6.77,13.73-6.77,21.12a13.88,13.88,0,0,0,1.74,7.2,6.55,6.55,0,0,0,5.4,2.8c5.66,0,9-3.11,11.68-8.88Z"/><path class="cls-1" d="M237.58,257.53c6.09,0,9.32,3.41,9.32,9.5s-3.11,13.1-8.14,16.46a14.88,14.88,0,0,1-8.51,2.42c-4.22,0-9.44-1.49-9.44-9.38a21.25,21.25,0,0,1,7.89-16.08,14.66,14.66,0,0,1,8.76-2.92Zm-.25,2.17c-1.55,0-3.17.87-4.84,3.23-2.61,3.85-5,11.55-5,16.15,0,3.54,1.55,4.66,3.23,4.66,1.43,0,2.79-.81,4.1-2.49,2.85-3.66,5.58-12.61,5.52-17.2,0-2.3-.8-4.35-2.92-4.35Z"/><path class="cls-1" d="M295.89,278.15c-2.61,5.27-6.83,7.76-10.8,7.76-4.29,0-4.23-3.54-2.61-8s3.66-9.63,5-13.29c.68-1.86.31-3.29-1-3.29-4.6,0-9.88,9.69-12,15.65-.75,2.11-1.8,4.53-2.86,8.07-2.61.06-5.34.37-7,.56,2.29-6.27,6-18.13,6.89-21.36.37-1.56.25-2.92-1.18-2.92-3.11,0-8.38,6.4-11.55,15.09a86,86,0,0,0-3,8.69c-2.49.07-5.16.31-7,.5,3.11-8.57,6.27-19.25,7-23.23.18-1-.13-1.24-.87-1.24h-3.48l.75-2.11a92,92,0,0,0,11.17-1.55c-.55,2.17-1.67,6.71-2.6,9.56,3.1-4.47,7.57-9.56,13.41-9.56,4,0,4.53,3.1,3.48,6.64-.25.93-.44,1.62-.81,2.67,3.23-4.53,7.82-9.31,13.66-9.31a4.39,4.39,0,0,1,3.29,1.24c1.56,1.68.69,5.09,0,7-1.74,4.9-4.59,12.42-5.4,15-.25.81-.19,1.49.37,1.49,1.49,0,4.16-2.61,5.72-5.52Z"/><path class="cls-1" d="M305.83,260.39c.62-1.93,1.3-4.48,1.55-5.47a41.92,41.92,0,0,0,6.52-1.61l.25.31c-1.06,3.35-2.48,8.13-3.67,11.86,2.74-3.67,6.71-8,11.8-8,4,0,5.9,3.41,5.9,7.2,0,7.58-4.47,16.58-11.36,19.81a13.84,13.84,0,0,1-5.84,1.37c-2,0-4.22-.62-5.34-1.86-1.43,5.09-2.23,8.26-2.61,10.24-.31,1.24-.06,1.68,1.12,1.8l3.79.38-.56,2H300c-3,0-6.52.12-9.81.43l.68-2.11,2.55-.37a2.64,2.64,0,0,0,2.42-1.93c2.79-8,6.33-20.55,8.76-29.19a22.09,22.09,0,0,1-4.85,2.43c-.25-.63-.5-1.31-.74-1.81A18.41,18.41,0,0,0,305.83,260.39Zm13.1.8c-2.61,0-6.15,4.16-8.45,8.95-1.49,2.6-3.35,7.39-3.35,9.74s1.49,3.61,3.29,3.61c1.49,0,3.36-.87,5-3a28.87,28.87,0,0,0,5.65-15.9c0-1.87-.68-3.42-2.05-3.42Z"/><path class="cls-1" d="M353.33,278.7a16.19,16.19,0,0,1-13.53,7.21c-5.22,0-8-3.29-8-8.7A22,22,0,0,1,340,260.32a14,14,0,0,1,8.32-2.79c5,0,7.15,2.86,7.15,6.52,0,2.92-2.12,4.66-4,5.53-2.86,1.42-9,2.79-12,3.16a20.46,20.46,0,0,0-.49,4.29c0,3.23,1.05,5.65,4,5.65,3.36,0,6.77-2.24,9-7.33h1Zm-6-19c-1.55,0-5,1.87-7.57,10.75a31.11,31.11,0,0,0,6.58-1.87,6.2,6.2,0,0,0,3.29-5.84c0-1.92-.75-3-2.17-3Z"/><path class="cls-1" d="M373.83,279a12.51,12.51,0,0,1-10.81,7c-5.28,0-5.53-3-4.22-7.45,1.61-5.47,3.91-13.23,5.09-17.21l-4.16-.37,1.06-2.3h3.91c.93-3,1.61-5.52,2.11-7.39a46.85,46.85,0,0,0,7.7-1.36c-.56,1.24-1.92,5.34-3,8.75h6.27l-1.05,2.3-6,.37c-1.11,3.23-4.72,15.59-5.65,19.5-.31,1.43-.12,2.12,1,2.12,2.29,0,5.52-3.61,6.7-6.46Z"/><path class="cls-1" d="M380,259a90.87,90.87,0,0,0,11.74-1.49l.19.25c-1.74,4.1-6,17.63-7.33,23-.19.81-.19,1.49.43,1.49,1.43,0,4.23-2.73,5.72-5.58l1.36,1.49c-2.79,5.34-6.76,7.76-10.74,7.76s-4.35-2.86-2.92-7.39c1.43-4.72,3.85-11.92,5-16.21.25-.87.06-1.12-.56-1.12s-2.6-.06-3.72,0Zm10.19-13.48c2.11,0,3.23,1.49,3.1,3.73a4.37,4.37,0,0,1-4.41,4.41,3.13,3.13,0,0,1-3.16-3.6,4.45,4.45,0,0,1,4.41-4.54Z"/><path class="cls-1" d="M410.9,279a12.51,12.51,0,0,1-10.81,7c-5.27,0-5.52-3-4.22-7.45L401,261.25l-4.16-.37,1.06-2.3h3.91c.93-3,1.62-5.52,2.11-7.39a46.46,46.46,0,0,0,7.7-1.36c-.56,1.24-1.92,5.34-3,8.75h6.27l-1.05,2.3-6,.37c-1.12,3.23-4.72,15.59-5.65,19.5-.31,1.43-.13,2.12,1,2.12,2.3,0,5.53-3.61,6.71-6.46Z"/><path class="cls-1" d="M417.05,259a90.93,90.93,0,0,0,11.73-1.49l.19.25c-1.74,4.1-6,17.63-7.33,23-.18.81-.18,1.49.44,1.49,1.43,0,4.22-2.73,5.71-5.58l1.37,1.49c-2.8,5.34-6.77,7.76-10.75,7.76s-4.34-2.86-2.91-7.39c1.42-4.72,3.85-11.92,5-16.21.24-.87.06-1.12-.56-1.12s-2.61-.06-3.73,0Zm10.18-13.48c2.11,0,3.23,1.49,3.11,3.73a4.38,4.38,0,0,1-4.41,4.41,3.14,3.14,0,0,1-3.17-3.6,4.45,4.45,0,0,1,4.41-4.54Z"/><path class="cls-1" d="M449,257.53c6.08,0,9.31,3.41,9.31,9.5s-3.1,13.1-8.13,16.46a14.9,14.9,0,0,1-8.51,2.42c-4.22,0-9.44-1.49-9.44-9.38a21.25,21.25,0,0,1,7.89-16.08,14.65,14.65,0,0,1,8.75-2.92Zm-.25,2.17c-1.55,0-3.17.87-4.84,3.23-2.61,3.85-5,11.55-5,16.15,0,3.54,1.56,4.66,3.23,4.66,1.43,0,2.8-.81,4.1-2.49,2.86-3.66,5.59-12.61,5.53-17.2,0-2.3-.81-4.35-2.92-4.35Z"/><path class="cls-1" d="M491.44,278.15c-2.67,5.27-6.89,7.76-10.8,7.76-4.16,0-4.22-3.35-2.61-8,1.55-4.35,3.79-10.31,5-13.72.62-1.62.25-2.86-1.12-2.86-4.41,0-9.5,8.82-11.74,15a89.56,89.56,0,0,0-3,8.69c-2.67.06-5.09.37-7,.56,2.73-7.58,6.27-19.5,6.89-23.35.12-.81.06-1.12-.5-1.12l-3.66.06.74-2.17a64.55,64.55,0,0,0,10.87-1.55c-.62,2.73-1.55,6.4-2.48,9.69,3.23-4.91,7.76-9.69,13.6-9.69a4.53,4.53,0,0,1,3,1c1.74,1.37,1.37,4.85.37,7.7-1.49,4.29-3.72,9.81-5.09,14.53-.25.75-.06,1.43.44,1.43,1.49,0,4-2.54,5.65-5.59Z"/></g></svg>