<svg xmlns="http://www.w3.org/2000/svg" xmlns:xlink="http://www.w3.org/1999/xlink" width="108.075" height="155.389" viewBox="0 0 108.075 155.389"><defs><clipPath id="a"><rect width="108.075" height="119.086" fill="none"/></clipPath></defs><g transform="translate(-906.692 -2.066)"><g transform="translate(906.692 2.066)"><g clip-path="url(#a)"><path d="M169.083,119.972c-2.331-1.516-2.971-2.225-3.579-4-.088-.249-.18-.539-.29-.9l-.069-.207-.193-.074a12.469,12.469,0,0,0-4.022-.521c-.272,0-.562,0-.843.023l-1.1.023.839.7c2.6,2.128,5.054,4.335,7.3,6.56,1.239,1.234,2.5,2.534,3.718,3.87l.935.995-.217-1.363c-.3-1.921-.613-3.906-2.478-5.109" transform="translate(-104.864 -75.37)" fill="#ffc400"/><path d="M125.089,59.448h-5.132l-.12.157a108.221,108.221,0,0,1-18.606,18.058l-.133.111-.143-.111a108.259,108.259,0,0,1-10.531-9.144A109.355,109.355,0,0,1,82.361,59.6l-.124-.157H76.658V57.711h3.225l-.069-.474c-.391-3,1.93-4.759,3.952-5.7l.3-.138-.074-.322a48.76,48.76,0,0,0-1.612-5.16c-1.317-3.759-2.672-7.652-2.179-11.549l.032-.217-.157-.134c-2.764-2.557-3.906-6.721-3.4-12.429l.1-.981L76,21.231a6.737,6.737,0,0,0-.9.977,16.03,16.03,0,0,1,1.746-8.716l.258-.442-.489-.147a2.51,2.51,0,0,0-.709-.106A4.381,4.381,0,0,1,78.5,10.571l.392-.12-.111-.382a2.307,2.307,0,0,0-.626-1.009A3.43,3.43,0,0,1,80.86,7.825a1.672,1.672,0,0,1,.217.009l.779.042-.4-.664a4.834,4.834,0,0,1-.544-1.571,8.166,8.166,0,0,0,1.424.226l.428.014V5.462a3.357,3.357,0,0,1,1.248-2.709,7.825,7.825,0,0,0,.369,1.373l.456,1.23L85.181,4.1a4.235,4.235,0,0,1,3.344-2.234,3.617,3.617,0,0,0-.387,1.58v.825l.668-.484a4.169,4.169,0,0,1,2.138-.451,7.863,7.863,0,0,1,1.032.065,6.269,6.269,0,0,1,2.105.746,5.814,5.814,0,0,0-1.308.516l-1.207.672,1.377.1a10.8,10.8,0,0,1,2.184.419,3.2,3.2,0,0,0-.972,1.382l-.184.613.645-.092a3.06,3.06,0,0,1,.553-.037,5.014,5.014,0,0,1,3.446,1.451,2.651,2.651,0,0,0-.475.779,1.866,1.866,0,0,1-.327.566l-.239.24.166.281a7.857,7.857,0,0,0,1.783,1.976,2.647,2.647,0,0,1-.917.185l-1.013.009.723.7a9.207,9.207,0,0,1,1.419,2.331c.917,1.87,2.128,4.34,4.538,5.62a18.56,18.56,0,0,1-3.5.544l-.829.037.516.636c1.93,2.331,5.307,3.2,8.559,4.054a33.765,33.765,0,0,1,5.132,1.635l.318.147,1.313.746.286.217a6.636,6.636,0,0,1,2.626,5.874c-.028,2.087-.074,3.658-.106,4.8-.12,3.349-.133,3.87,1.207,4.178a2.61,2.61,0,0,0,.318.074c.493.106.926.2,1.083.461a2.292,2.292,0,0,1-.119,1.608,9.64,9.64,0,0,0,.949,7.034c1.2,1.764,1.585,2.566,1.659,3.423l.023.382h1.382Z" transform="translate(-49.51 -1.229)" fill="#fff"/><path d="M103.5,116.382a5.814,5.814,0,0,1-1.161-2.156,5.292,5.292,0,0,0,2.4-.051,6.088,6.088,0,0,1-2.593-2.234,2.183,2.183,0,0,0,1.723-.839c-.963-.313-1.907-.364-4.151-2.824.12,3.156.558,8.242,3.782,8.1" transform="translate(-65.771 -71.417)" fill="#161615"/><path d="M109.291,86.994a12.583,12.583,0,0,0,.742,2.829,7.072,7.072,0,0,1-3.234-2.34c.544,2.382,3.22,4.008,4.851,4.22a9.589,9.589,0,0,1-.87-2.672,2.89,2.89,0,0,0,1.4-.387c-.806-.1-2-1.073-2.884-1.649" transform="translate(-70.441 -57.378)" fill="#161615"/><path d="M120.566,122.119a44.928,44.928,0,0,1-1.672,6.288c-.295.58-2.207.737-3.169.723a7.656,7.656,0,0,1-5.45-2.013,94.155,94.155,0,0,0-9.177,10.154,93.379,93.379,0,0,0,17.17,16.962,93.65,93.65,0,0,0,17.165-16.962,93.265,93.265,0,0,0-14.866-15.152" transform="translate(-66.681 -80.545)" fill="#161615"/><path d="M120.806,64.5c1.737,2.98,8,5.091,8.49,5.335a8.791,8.791,0,0,1-6.6-.244,5.033,5.033,0,0,0,2.584-.235,8.934,8.934,0,0,1-4.473-4.856" transform="translate(-79.679 -42.543)" fill="#161615"/><path d="M129.314,30.355c1.2,1.608,1.677,1.889,2.474,2.119a3.844,3.844,0,0,1-2.566-.866c-.074-1.069.092-1.253.092-1.253" transform="translate(-85.218 -20.021)" fill="#161615"/><path d="M124.333,56.336h-1.05c-.078-.94-.479-1.778-1.723-3.625a9.18,9.18,0,0,1-.894-6.684c.723-2.386-.382-2.377-1.594-2.649-1.359-.313-.866-.631-.774-8.587a7.057,7.057,0,0,0-2.787-6.2c1.944-3.478.543-5.68-1.106-7.081-.981-.825-7.767-5.74-6.5-8.771.861-2.036,4.538-.9,5.837.576-.484,2.105,1.667,2.935,2,3.137a1.38,1.38,0,0,1,.5,1.009,1.418,1.418,0,0,0,.189-.958,4.023,4.023,0,0,1,.811.963,2.3,2.3,0,0,0-.01-1.451.935.935,0,0,0,.682.129c-.82-.566-.774-1.235-.967-1.483a.782.782,0,0,0,.405-.291,1.64,1.64,0,0,1-.857-.64,2.1,2.1,0,0,0-2.128-.852c-1.53-1.88-6.1-3.837-7.6-.392-1.345,3.1,4.091,7.827,6.436,10.269,1.732,1.806,1.212,3.349.313,4.676-4.409-1.995-10.678-2.114-13.535-5.579a18.23,18.23,0,0,0,4.689-.88c-4.431-1.479-5.233-6.781-6.873-8.329a3.516,3.516,0,0,0,1.856-.6c-.852-.157-1.856-1.378-2.363-2.184.479-.456.525-1.557,1.23-1.521A5.482,5.482,0,0,0,93.74,6.385a3.033,3.033,0,0,1,1.506-1.631,12.429,12.429,0,0,0-3.082-.691,7.8,7.8,0,0,1,2.184-.719,8.153,8.153,0,0,0-3.133-1.317,5.51,5.51,0,0,0-3.478.461A3.081,3.081,0,0,1,88.543.451a4.736,4.736,0,0,0-4.579,2.575,6.963,6.963,0,0,1-.429-1.953A3.744,3.744,0,0,0,81.541,4.5a8.028,8.028,0,0,1-1.889-.373,4.682,4.682,0,0,0,.631,2.332,3.743,3.743,0,0,0-3.533,1.8c.286.028.7.576.811.958a4.957,4.957,0,0,0-3.128,3.1,2.471,2.471,0,0,1,1.244.022A16.7,16.7,0,0,0,73.995,22.37a10.825,10.825,0,0,1,1.46-1.778c-.64,7.1,1.322,10.734,3.52,12.761-.751,5.846,2.561,11.614,3.8,16.847-1.944.912-4.625,2.8-4.192,6.122a.077.077,0,0,0,.046.014H75.791a.36.36,0,0,0-.364.355v1.852a.361.361,0,0,0,.364.36h5.427a108.328,108.328,0,0,0,8.094,8.951,111.8,111.8,0,0,0,10.573,9.186l.4.295.387-.295A109.072,109.072,0,0,0,119.344,58.9h4.989a.36.36,0,0,0,.36-.36V56.691a.359.359,0,0,0-.36-.355m-4.625-.746q-1.3-1.61-2.631-3.169a13.021,13.021,0,0,0-.7-3.916c-1.032-3.123-2.211-3.589-3.741-4.689-.981-.7-1.373-2.432-2.322-4.962-1.059-2.819-1.741-2.976-3.672-3.764a7.724,7.724,0,0,1,1.05,1.981,10.767,10.767,0,0,0-3.768.521c.29-1.1-.461-2.566-.6-3.031a6.658,6.658,0,0,1-.272,2.944,28.183,28.183,0,0,0-1.907,3.957,26.517,26.517,0,0,0-1.161,5.1c-.055.4-1.41.378-1.41.378a4.427,4.427,0,0,1-1.013-2.621,3.3,3.3,0,0,0-.921,2.465,5.523,5.523,0,0,1-1.267-.378,15.018,15.018,0,0,1-.295-2.372,2.491,2.491,0,0,0-1.188,1.755c-.53-.276-.908-.645-.889-.894a6.086,6.086,0,0,1,.207-1.124,39.138,39.138,0,0,1,2.4-4.528c-1.963,1.741-3.879,3.644-3.861,6.15.028.2.111.253.258.387a7.375,7.375,0,0,0,8.251,1.99c.226-.244.843-2.663,1.815-5.478.207-.608.456-1.313.719-1.985,2.631,2.147,5.16,4.413,7.551,6.772a109.066,109.066,0,0,1,8.868,9.937,107.086,107.086,0,0,1-18.92,18.7A107.622,107.622,0,0,1,90.22,66.959a105.889,105.889,0,0,1-8.868-9.941,104.555,104.555,0,0,1,10.08-11.093c-.4-.355-.184-1.179-.06-1.718A107.643,107.643,0,0,0,81.416,54.9c-.548-.046-.954-.106-.954-.106.364-2.506,2.847-3.529,3.667-4.091-.954-4.9-3.639-12.254-2.769-15.677.553.3,1.073.543,1.488.741a10.412,10.412,0,0,1-.5-2.87c1.925,2.686,7.541,5.56,14.88,4.1-.958-.8-3.354-2.382-3.658-4.533a6.02,6.02,0,0,0,1.544.889,3.925,3.925,0,0,1-.908-2.289c1.032.479,6.39.5,10.8-2.211-2.787,1.074-8.435,2.4-12.844.148-.318,1.12-.525,5.528,2.6,7.389-9.214.2-12.129-5.837-13.24-8.707a7.338,7.338,0,0,0-.93,4.57c-1.083-.9-3.1-3.952-3.073-8.822-.046-5.182,1.129-7.675,1.76-8.868a10.237,10.237,0,0,0-2.128,2.4,7.853,7.853,0,0,1,1.672-5.385,2.321,2.321,0,0,0-1.2-.4,4.242,4.242,0,0,1,2.225-1.792c-.507-.318-.608-.926-.88-1.188a4.669,4.669,0,0,1,3.045-1,3.432,3.432,0,0,1-.82-2.1,6.7,6.7,0,0,0,1.737.166,2.745,2.745,0,0,1,.055-2.055,3.873,3.873,0,0,0,1.677,2.718,3.224,3.224,0,0,1,2.262-3.8,2.777,2.777,0,0,0,.106,2.262c.668-.963,2.179-1.3,3.446-1.419a6.189,6.189,0,0,1,2.087.226,14.269,14.269,0,0,0-2.939.917c-2.193,1.027-2.225,2.013-1.8,2.75.41-2.027,3.368-2.216,5.607-1.806A2.771,2.771,0,0,0,92.3,7.182c1.212-.3,3.7.179,4.39.981-.484-.134-.484,1.1-1,1.405A6.418,6.418,0,0,0,97.65,12a1.905,1.905,0,0,1-1.4-.046c1.543,2.119,1.93,6.468,5.132,8.379-2.142.8-4.519-1.188-5.878-2.46-.548,2.091,1.133,4.519,1.5,5a11.849,11.849,0,0,1-2.589-1.2c1.345,3.142,6.215,4.52,7.638,5.021a10.468,10.468,0,0,1-4.634-5.063,5.11,5.11,0,0,0,1.53.24,11.666,11.666,0,0,0,7.453,5.007c5.395,1.152,10.927,2.424,10.987,8.02.092,6.353-.479,8.919.534,9.31,1.548.59,1.272.346,1.037,2.041a14.13,14.13,0,0,0,1.349,6.818,16.085,16.085,0,0,1,1.415,2.5c-.64.014-1.322.028-2.013.032m-4.722-5.519q-1.831-2-3.741-3.888c-2.317-2.285-4.763-4.478-7.311-6.574a13.866,13.866,0,0,1,4.708.479c.1.313.194.622.3.922.659,1.893,1.373,2.658,3.75,4.2,1.7,1.115,2,2.971,2.3,4.86" transform="translate(-48.697 -0.296)" fill="#161615"/><path d="M100.286,77.784a.449.449,0,0,1-.267-.087l-.4-.295-.007-.005A112.281,112.281,0,0,1,89,68.173,108.9,108.9,0,0,1,81,59.352H75.791a.813.813,0,0,1-.814-.81V56.691a.81.81,0,0,1,.814-.8h2.3c-.11-2.429,1.347-4.512,4.158-5.932-.383-1.517-.927-3.069-1.5-4.7-1.327-3.786-2.7-7.7-2.25-11.725a11.032,11.032,0,0,1-2.777-4.506,19.706,19.706,0,0,1-.808-7.158c-.235.306-.441.6-.547.758a.45.45,0,0,1-.819-.18,17.532,17.532,0,0,1,1.422-9.749,1.6,1.6,0,0,0-.4.046.45.45,0,0,1-.566-.574,5.555,5.555,0,0,1,2.924-3.206.972.972,0,0,0-.253-.263.45.45,0,0,1-.33-.646,4.055,4.055,0,0,1,3.228-2.025A4.75,4.75,0,0,1,79.2,4.1a.45.45,0,0,1,.585-.407A8.945,8.945,0,0,0,81.12,4a4.133,4.133,0,0,1,2.2-3.325.45.45,0,0,1,.667.376,5.524,5.524,0,0,0,.125.866A5.489,5.489,0,0,1,88.554,0a.45.45,0,0,1,.309.766,2.431,2.431,0,0,0-.555.98,6.529,6.529,0,0,1,1.839-.24,9.065,9.065,0,0,1,1.125.072,8.475,8.475,0,0,1,3.277,1.359l.037.023a.45.45,0,0,1-.146.823q-.264.055-.5.112a14.6,14.6,0,0,1,1.459.434.45.45,0,0,1,.039.83,2.762,2.762,0,0,0-.911.735,6.069,6.069,0,0,1,4.324,2.141.45.45,0,0,1-.358.751h-.011c-.111,0-.226.238-.365.55a4.181,4.181,0,0,1-.277.545A4.2,4.2,0,0,0,99.731,11.6a.45.45,0,0,1,.162.821l-.015.01a4.164,4.164,0,0,1-1.227.547A16.833,16.833,0,0,1,99.7,14.906c1.03,2.1,2.311,4.7,5.113,5.637a.45.45,0,0,1,.016.848,17.749,17.749,0,0,1-3.871.83c1.8,1.633,4.561,2.354,7.465,3.111a36.638,36.638,0,0,1,4.923,1.53,2.756,2.756,0,0,0-.467-3.8c-.311-.323-.684-.695-1.078-1.088a37.859,37.859,0,0,1-4.135-4.607c-1.464-2.066-1.893-3.722-1.311-5.064a3.374,3.374,0,0,1,3.291-2.163,7.258,7.258,0,0,1,4.9,2.25,2.428,2.428,0,0,1,.25-.013,2.583,2.583,0,0,1,2.064,1.083l.013.018a1.2,1.2,0,0,0,.6.453.45.45,0,0,1,.219.734,2.161,2.161,0,0,1-.174.176,1.574,1.574,0,0,0,.656.929.45.45,0,0,1-.223.819c-.04,0-.09.007-.147.009a3.028,3.028,0,0,1-.134,1.013.45.45,0,0,1-.825.057,1.685,1.685,0,0,0-.113-.171,1.4,1.4,0,0,1-.111.209.45.45,0,0,1-.825-.222.977.977,0,0,0-.286-.653c-.023-.013-.075-.04-.126-.066a4.9,4.9,0,0,1-1.435-1.033,2.694,2.694,0,0,1-.685-2.277,5.422,5.422,0,0,0-3.378-1.372,1.51,1.51,0,0,0-1.559.829c-.512,1.23.72,2.972,1.844,4.217a34.238,34.238,0,0,0,4.073,3.663c.2.159.36.285.463.371,2.373,2.015,2.839,4.471,1.391,7.3a7.578,7.578,0,0,1,2.662,6.326c-.024,2.079-.076,3.657-.114,4.809a16.791,16.791,0,0,0,.016,2.943c.053.241.077.29.523.393.1.022.2.043.3.063a2.245,2.245,0,0,1,1.656.861,2.881,2.881,0,0,1-.029,2.294,8.786,8.786,0,0,0,.834,6.3,9.569,9.569,0,0,1,1.746,3.43h.656a.808.808,0,0,1,.81.8v1.852a.81.81,0,0,1-.81.81h-4.774A109.626,109.626,0,0,1,100.946,77.4l-.387.295A.449.449,0,0,1,100.286,77.784Zm-.131-1.1.126.092.119-.091a108.71,108.71,0,0,0,18.594-18.062.45.45,0,0,1,.35-.167h4.9V56.786h-.96a.45.45,0,0,1-.448-.413c-.07-.844-.455-1.641-1.648-3.411a8.055,8.055,0,0,1-1.181-3.658,9.366,9.366,0,0,1,.23-3.409c.294-.969.226-1.39.117-1.573-.149-.251-.573-.338-1.064-.439-.1-.021-.209-.043-.315-.067a1.319,1.319,0,0,1-1.188-1.014c.039.556.125.913.3.979l.307.115c.565.211.876.327,1.061.6.205.305.148.637.06,1.138-.031.178-.07.4-.107.667a13.654,13.654,0,0,0,1.3,6.548v0c.023.041.129.207.231.367,1.084,1.7,1.251,2.088,1.232,2.366a.45.45,0,0,1-.439.419c-.679.014-1.345.028-2.02.032a.449.449,0,0,1-.353-.167c-.788-.977-1.646-2.011-2.623-3.161a.45.45,0,0,1-.107-.291,12.521,12.521,0,0,0-.682-3.776,6.425,6.425,0,0,0-3.009-4.069c-.182-.125-.371-.255-.567-.4-.874-.624-1.309-1.866-1.911-3.585-.167-.476-.356-1.015-.569-1.583a6.461,6.461,0,0,0-1.323-2.406,3.176,3.176,0,0,0-.826-.558c.125.261.247.547.369.861a.45.45,0,0,1-.477.608,3.862,3.862,0,0,0-.5-.031,14.312,14.312,0,0,0-3.108.543.45.45,0,0,1-.551-.377l-.03.061c-.167.321-.335.633-.5.935a19.214,19.214,0,0,0-1.383,2.957,26.246,26.246,0,0,0-.942,3.7c.28-.908.618-2,1.02-3.159.263-.772.5-1.428.725-2a.45.45,0,0,1,.7-.185c2.647,2.16,5.2,4.448,7.582,6.8a109.462,109.462,0,0,1,8.905,9.979.45.45,0,0,1,0,.557,107.532,107.532,0,0,1-19,18.782.45.45,0,0,1-.548,0A108.173,108.173,0,0,1,89.9,67.28,106.4,106.4,0,0,1,81,57.3a.45.45,0,0,1,0-.555,105.4,105.4,0,0,1,9.853-10.883,1.485,1.485,0,0,1-.1-.446,107.412,107.412,0,0,0-8.99,9.771.45.45,0,0,1-.387.165c-.556-.047-.965-.107-.982-.109a.45.45,0,0,1-.38-.51c.337-2.323,2.319-3.484,3.384-4.108l.226-.133c-.284-1.389-.692-2.95-1.123-4.6-1.09-4.165-2.217-8.472-1.58-10.976a.45.45,0,0,1,.653-.283c.2.109.39.208.576.3A10.08,10.08,0,0,1,81.9,32.88a.45.45,0,0,1,.815-.246,9.718,9.718,0,0,0,3.872,2.92,16.394,16.394,0,0,0,6.736,1.388,19.367,19.367,0,0,0,2.843-.214c-1.155-.921-2.777-2.342-3.04-4.2a.45.45,0,0,1,.76-.385c.025.024.053.049.084.075a3.257,3.257,0,0,1-.212-1.167.45.45,0,0,1,.639-.394,5.351,5.351,0,0,0,1.759.2,16.625,16.625,0,0,0,2.454-.2q-.4.018-.815.019a13.088,13.088,0,0,1-5.3-1.022,8.7,8.7,0,0,0,.116,2.671A5.394,5.394,0,0,0,95,36.007a.45.45,0,0,1-.22.837c-.153,0-.308.005-.459.005A13.577,13.577,0,0,1,84.7,33.43a13.978,13.978,0,0,1-3.2-4.624,6.1,6.1,0,0,0-.466,3.355.45.45,0,0,1-.728.441c-1.129-.942-3.258-4.069-3.235-9.167a21.706,21.706,0,0,1,.873-6.845,4.575,4.575,0,0,0-.4.587.45.45,0,0,1-.844-.188,8.785,8.785,0,0,1,1.41-5.26,1.209,1.209,0,0,0-.427-.1l-.059,0a.45.45,0,0,1-.407-.643,4.024,4.024,0,0,1,1.87-1.733,3.955,3.955,0,0,1-.246-.425,1.513,1.513,0,0,0-.185-.306.45.45,0,0,1,.088-.714c.136-.078.264-.158.388-.235A4.4,4.4,0,0,1,81.2,6.793,3.714,3.714,0,0,1,80.75,5.1a.45.45,0,0,1,.064-.232c-.241-.041-.473-.092-.676-.142a4.586,4.586,0,0,0,.53,1.5.45.45,0,0,1-.406.683c-.065,0-.13,0-.195,0A3.426,3.426,0,0,0,77.375,8.1a2.425,2.425,0,0,1,.618.979.45.45,0,0,1-.3.556,4.336,4.336,0,0,0-2.537,2.155,2.678,2.678,0,0,1,.656.108.45.45,0,0,1,.257.654,15.739,15.739,0,0,0-1.747,8.606,6.343,6.343,0,0,1,.85-.918.45.45,0,0,1,.733.389,20.113,20.113,0,0,0,.674,8.1,9.954,9.954,0,0,0,2.7,4.289.45.45,0,0,1,.141.388c-.5,3.9.862,7.783,2.179,11.541A52.216,52.216,0,0,1,83.213,50.1a.45.45,0,0,1-.247.511,8.489,8.489,0,0,0-2.837,2.042A4.461,4.461,0,0,0,79.011,56.1a.45.45,0,0,1-.381.689H75.878v1.666h5.341a.45.45,0,0,1,.35.167,108,108,0,0,0,8.06,8.913A111.374,111.374,0,0,0,100.155,76.679ZM81.924,57.018a105.641,105.641,0,0,0,8.612,9.621,107.343,107.343,0,0,0,9.749,8.514,106.639,106.639,0,0,0,18.347-18.135,108.593,108.593,0,0,0-8.611-9.617c-2.218-2.188-4.582-4.321-7.035-6.347-.154.416-.317.874-.491,1.386-.442,1.28-.808,2.47-1.1,3.426a7.957,7.957,0,0,1-.808,2.212.45.45,0,0,1-.18.119,8.846,8.846,0,0,1-2.962.542A7.882,7.882,0,0,1,91.786,46.2a.45.45,0,0,1-.044.048A104.455,104.455,0,0,0,81.924,57.018Zm35.6-4.766c.883,1.041,1.669,1.988,2.4,2.885.376,0,.75-.009,1.126-.017-.267-.475-.691-1.139-.867-1.414s-.242-.379-.273-.44a14.484,14.484,0,0,1-1.4-7.085c.039-.283.08-.514.112-.7a3.753,3.753,0,0,0,.068-.485,4.683,4.683,0,0,0-.617-.257l-.314-.118c-.975-.377-.942-1.705-.869-4.616.034-1.342.075-3.012.045-5.108a5.721,5.721,0,0,0-3.264-5.291,27.375,27.375,0,0,0-7.367-2.3l-.016,0a11.712,11.712,0,0,1-7.309-4.674c-.089-.115-.174-.225-.257-.329q-.276-.015-.524-.046a9.465,9.465,0,0,0,.759,1.158,11.007,11.007,0,0,0,3.312,2.879.45.45,0,0,1-.371.816c-.12-.042-.267-.092-.437-.149-1.842-.618-6.157-2.065-7.465-5.12a.45.45,0,0,1,.664-.551,9.751,9.751,0,0,0,1.223.656,6.042,6.042,0,0,1-.817-4.193.45.45,0,0,1,.743-.215c1.133,1.06,2.815,2.463,4.433,2.52a12.336,12.336,0,0,1-3.047-5.1,12.932,12.932,0,0,0-1.311-2.745.45.45,0,0,1,.624-.632l0,0A8.59,8.59,0,0,1,95.3,9.776a.45.45,0,0,1,.166-.593,1.56,1.56,0,0,0,.291-.567,3.343,3.343,0,0,1,.2-.455,6.545,6.545,0,0,0-2.772-.619,3.328,3.328,0,0,0-.77.077.45.45,0,0,1-.558-.457,3.423,3.423,0,0,1,.624-1.784c-.317-.031-.631-.047-.932-.047-1.1,0-2.989.211-3.274,1.622a.45.45,0,0,1-.831.135,1.743,1.743,0,0,1-.2-1.437,3.721,3.721,0,0,1,2.2-1.945q.259-.119.517-.22a3.688,3.688,0,0,0-2.55,1.16.45.45,0,0,1-.739,0,2.7,2.7,0,0,1-.351-1.721A2.591,2.591,0,0,0,85.1,5.81a.45.45,0,0,1-.654.512,3.6,3.6,0,0,1-1.065-1,.45.45,0,0,1-.391.392,1.755,1.755,0,0,1-.216.008c-.008,0-.541,0-1.049-.059a3.133,3.133,0,0,0,.639,1.251.45.45,0,0,1-.346.738,3.717,3.717,0,0,0-2.407.685l0,0,.038.072A1.42,1.42,0,0,0,80.094,9a.45.45,0,0,1-.056.792,5,5,0,0,0-1.658,1.07,4.74,4.74,0,0,1,.669.319.45.45,0,0,1,.09.717,6.924,6.924,0,0,0-1.477,3.622A12.656,12.656,0,0,1,79,14.22a.45.45,0,0,1,.685.557,18.507,18.507,0,0,0-1.708,8.654s0,0,0,.006a14.474,14.474,0,0,0,1.085,5.719,9.916,9.916,0,0,0,1.01,1.83,9.065,9.065,0,0,1,1.061-3.513.45.45,0,0,1,.816.05,13.826,13.826,0,0,0,3.37,5.248,12.37,12.37,0,0,0,8.133,3.156,6.665,6.665,0,0,1-1.717-3.418,8.755,8.755,0,0,1,0-3.629.45.45,0,0,1,.637-.278A11.857,11.857,0,0,0,97.8,29.783a20.586,20.586,0,0,0,7.049-1.346.45.45,0,0,1,.4.8,18.245,18.245,0,0,1-9.085,2.524,9.339,9.339,0,0,1-1.417-.095,3.857,3.857,0,0,0,.721,1.4.45.45,0,0,1-.508.709c-.005,0-.242-.1-.549-.249a9.839,9.839,0,0,0,2.64,2.747c.182.143.34.267.476.381a.45.45,0,0,1-.2.787,20.587,20.587,0,0,1-3.994.4,15.317,15.317,0,0,1-10.388-3.609,8.059,8.059,0,0,0,.332,1.369.45.45,0,0,1-.614.569l-.2-.095c-.226-.107-.487-.231-.764-.371-.3,2.389.751,6.391,1.683,9.955.457,1.747.889,3.4,1.179,4.868,2.072-2.308,4.25-4.533,6.509-6.652a.45.45,0,0,1,.468-.092c.585-1.907,2.164-3.449,3.774-4.878a.45.45,0,0,1,.716.506,11.266,11.266,0,0,1-.707,1.254A18.37,18.37,0,0,0,93.632,43.9a5.973,5.973,0,0,0-.188.987.778.778,0,0,0,.153.173,3.335,3.335,0,0,1,1.233-1.4.45.45,0,0,1,.69.393,13.962,13.962,0,0,0,.241,2.039,4.378,4.378,0,0,0,.427.137,3.872,3.872,0,0,1,1.057-2.231.45.45,0,0,1,.756.371,3.928,3.928,0,0,0,.784,2.125,2.933,2.933,0,0,0,.76-.107,26.9,26.9,0,0,1,1.166-5.066,19.884,19.884,0,0,1,1.443-3.1c.161-.3.327-.609.491-.925a6.177,6.177,0,0,0,.226-2.618l0-.1a.45.45,0,0,1,.88-.152c.022.073.07.195.126.336a6.56,6.56,0,0,1,.563,2.242A13.047,13.047,0,0,1,107,36.587a6.037,6.037,0,0,0-.715-1.221.45.45,0,0,1,.525-.693l.266.108c1.77.717,2.578,1.044,3.656,3.914.217.577.407,1.122.576,1.6.548,1.563.943,2.692,1.586,3.151.189.136.374.263.552.386a7.307,7.307,0,0,1,3.354,4.529A13.794,13.794,0,0,1,117.525,52.252ZM80.99,54.405l.228.024q1.215-1.49,2.489-2.944C81.664,52.714,81.162,53.7,80.99,54.405Zm11.2-9.056.059.053.052.046.017.016.014.015a7.11,7.11,0,0,0,5.106,2.359,7.861,7.861,0,0,0,2.5-.435c.028-.066.062-.157.1-.268a3.091,3.091,0,0,1-1.45.258h-.034a.451.451,0,0,1-.339-.161,5.89,5.89,0,0,1-.93-1.7,2.533,2.533,0,0,0-.213,1.2.45.45,0,0,1-.533.5,5.938,5.938,0,0,1-1.372-.412.45.45,0,0,1-.25-.316c-.078-.378-.174-.973-.237-1.511a1.454,1.454,0,0,0-.356.809.45.45,0,0,1-.658.393c-.276-.144-1.171-.664-1.13-1.317a6.534,6.534,0,0,1,.22-1.209q0-.017.01-.033a10.946,10.946,0,0,1,.683-1.545A5.4,5.4,0,0,0,92.194,45.349ZM106.5,26.433a27.971,27.971,0,0,1,7.613,2.389,6.624,6.624,0,0,1,3.722,6.064q0,.215.005.424,0-.257.007-.526a6.606,6.606,0,0,0-2.606-5.835.45.45,0,0,1-.123-.58,5.308,5.308,0,0,0,.753-3.983,5.1,5.1,0,0,0-1.757-2.536c-.091-.076-.245-.2-.44-.352a35.037,35.037,0,0,1-4.183-3.766c-1.889-2.091-2.563-3.83-2.006-5.169a2.389,2.389,0,0,1,2.389-1.381,5.679,5.679,0,0,1,1.843.341,5.336,5.336,0,0,0-2.077-.483,2.5,2.5,0,0,0-2.466,1.621c-.44,1.015-.03,2.423,1.22,4.185a37.182,37.182,0,0,0,4.035,4.49c.4.4.775.772,1.093,1.1a3.737,3.737,0,0,1,.361,5.24.45.45,0,0,1-.558.158,32.977,32.977,0,0,0-5.135-1.635c-2.913-.76-5.914-1.543-7.895-3.365A11.019,11.019,0,0,0,106.5,26.433ZM95.755,22.874a10.983,10.983,0,0,0,3.591,2.335,11.577,11.577,0,0,1-1.1-1.247,10.4,10.4,0,0,1-.818-1.243.45.45,0,0,1-.563.578C96.477,23.171,96.1,23.025,95.755,22.874Zm.091-4.09a7.633,7.633,0,0,0,1.512,3.809,5.057,5.057,0,0,1-.372-.84.45.45,0,0,1,.584-.552,4.713,4.713,0,0,0,1.39.213.45.45,0,0,1,.333.163c.077.093.156.192.236.294a.45.45,0,0,1,.426-.471,19.4,19.4,0,0,0,3.4-.511,7.973,7.973,0,0,1-2.455-2.142A19.214,19.214,0,0,1,98.888,15.3a8.975,8.975,0,0,0-1.4-2.334.45.45,0,0,1-.129-.429q-.1.013-.213.017a22.5,22.5,0,0,1,.892,2.075c.763,1.945,1.629,4.149,3.578,5.312a.45.45,0,0,1-.074.808,3.407,3.407,0,0,1-1.193.212C98.69,20.963,97.072,19.845,95.845,18.784Zm20.578-2.732a.449.449,0,0,1,.2.049,1.069,1.069,0,0,1,.223.166l0-.008a.45.45,0,0,1,.049-.553,3.073,3.073,0,0,1-.247-.589,1.577,1.577,0,0,0-.068-.185.45.45,0,0,1-.046-.47l.009-.017a1.986,1.986,0,0,1-.425-.459,1.712,1.712,0,0,0-1.332-.706,1.574,1.574,0,0,0-.332.036.45.45,0,0,1-.268-.024.45.45,0,0,1-.011.123c-.314,1.368.694,2.082,1.607,2.551.078.04.139.071.188.1l.008,0a1.18,1.18,0,0,1,.137.1A.45.45,0,0,1,116.423,16.052ZM96.252,9.65a5.719,5.719,0,0,0,1.654,1.976.45.45,0,0,1,.157.549,2.8,2.8,0,0,0,.571-.13A7.905,7.905,0,0,1,96.906,10.1a.45.45,0,0,1,.071-.565,1.973,1.973,0,0,0,.32-.563,2.655,2.655,0,0,1,.455-.767,5.11,5.11,0,0,0-2.99-1.389,4.335,4.335,0,0,1,2.272,1.056.45.45,0,0,1-.3.742c-.042.084-.093.221-.131.32A2.976,2.976,0,0,1,96.252,9.65ZM93.8,4.789a.45.45,0,0,1-.12.65,2.2,2.2,0,0,0-.832,1.214c.166-.01.344-.013.529-.007a.45.45,0,0,1-.065-.385A3.15,3.15,0,0,1,94.234,4.9C94.093,4.864,93.946,4.825,93.8,4.789Zm-11.9-.015c.139.014.291.026.442.034a3.375,3.375,0,0,1,.274-1.837.45.45,0,0,1,.825.169,3.818,3.818,0,0,0,.684,1.666,3.333,3.333,0,0,1,.724-1.737A4.192,4.192,0,0,1,86.8,1.7a.45.45,0,0,1,.538.241,3.761,3.761,0,0,1,.32-.989,4.614,4.614,0,0,0-2.213.926A3.2,3.2,0,0,0,84.4,3.142a.45.45,0,0,1-.856.042,7.822,7.822,0,0,1-.364-1.331A3.329,3.329,0,0,0,81.991,4.5.45.45,0,0,1,81.895,4.774Zm9.873-.924a11.715,11.715,0,0,0-1.95.674c-.152.071-.291.141-.418.21a6.857,6.857,0,0,1,2.145-.3q.184,0,.372.007a.45.45,0,0,1-.148-.589ZM87.289,2.529a3,3,0,0,0-.066,1.023,6.134,6.134,0,0,1,3.219-1.029h.009c.153-.011.306-.017.454-.017a5.784,5.784,0,0,1,.634.034c-.126-.028-.253-.051-.38-.067a8.159,8.159,0,0,0-1.012-.065A4.118,4.118,0,0,0,88,2.855a.45.45,0,0,1-.709-.326Zm27.7,47.992a.45.45,0,0,1-.332-.146c-1.225-1.34-2.478-2.643-3.724-3.871-2.26-2.229-4.71-4.432-7.281-6.547a.45.45,0,0,1,.272-.8c.309-.01.608-.014.889-.014a12.287,12.287,0,0,1,3.981.518.45.45,0,0,1,.281.292c.091.294.188.606.292.91.61,1.754,1.244,2.459,3.569,3.968,1.873,1.225,2.191,3.229,2.5,5.167a.45.45,0,0,1-.444.521Zm-9.821-10.473c2.248,1.89,4.4,3.842,6.4,5.815.9.892,1.813,1.822,2.711,2.777a4.51,4.51,0,0,0-1.832-3.052c-2.507-1.627-3.242-2.456-3.929-4.43-.081-.241-.158-.482-.231-.714A11.449,11.449,0,0,0,105.165,40.047Z" transform="translate(-48.697 -0.296)" fill="#fff"/><path d="M124.333,56.336h-1.05c-.078-.94-.479-1.778-1.723-3.625a9.18,9.18,0,0,1-.894-6.684c.723-2.386-.382-2.377-1.594-2.649-1.359-.313-.866-.631-.774-8.587a7.057,7.057,0,0,0-2.787-6.2c1.944-3.478.543-5.68-1.106-7.081-.981-.825-7.767-5.74-6.5-8.771.861-2.036,4.538-.9,5.837.576-.484,2.105,1.667,2.935,2,3.137a1.38,1.38,0,0,1,.5,1.009,1.418,1.418,0,0,0,.189-.958,4.023,4.023,0,0,1,.811.963,2.3,2.3,0,0,0-.01-1.451.935.935,0,0,0,.682.129c-.82-.566-.774-1.235-.967-1.483a.782.782,0,0,0,.405-.291,1.64,1.64,0,0,1-.857-.64,2.1,2.1,0,0,0-2.128-.852c-1.53-1.88-6.1-3.837-7.6-.392-1.345,3.1,4.091,7.827,6.436,10.269,1.732,1.806,1.212,3.349.313,4.676-4.409-1.995-10.678-2.114-13.535-5.579a18.23,18.23,0,0,0,4.689-.88c-4.431-1.479-5.233-6.781-6.873-8.329a3.516,3.516,0,0,0,1.856-.6c-.852-.157-1.856-1.378-2.363-2.184.479-.456.525-1.557,1.23-1.521A5.482,5.482,0,0,0,93.74,6.385a3.033,3.033,0,0,1,1.506-1.631,12.429,12.429,0,0,0-3.082-.691,7.8,7.8,0,0,1,2.184-.719,8.153,8.153,0,0,0-3.133-1.317,5.51,5.51,0,0,0-3.478.461A3.081,3.081,0,0,1,88.543.451a4.736,4.736,0,0,0-4.579,2.575,6.963,6.963,0,0,1-.429-1.953A3.744,3.744,0,0,0,81.541,4.5a8.028,8.028,0,0,1-1.889-.373,4.682,4.682,0,0,0,.631,2.332,3.743,3.743,0,0,0-3.533,1.8c.286.028.7.576.811.958a4.957,4.957,0,0,0-3.128,3.1,2.471,2.471,0,0,1,1.244.022A16.7,16.7,0,0,0,73.995,22.37a10.825,10.825,0,0,1,1.46-1.778c-.64,7.1,1.322,10.734,3.52,12.761-.751,5.846,2.561,11.614,3.8,16.847-1.944.912-4.625,2.8-4.192,6.122a.077.077,0,0,0,.046.014H75.791a.36.36,0,0,0-.364.355v1.852a.361.361,0,0,0,.364.36h5.427a108.328,108.328,0,0,0,8.094,8.951,111.8,111.8,0,0,0,10.573,9.186l.4.295.387-.295A109.072,109.072,0,0,0,119.344,58.9h4.989a.36.36,0,0,0,.36-.36V56.691a.359.359,0,0,0-.36-.355m-4.625-.746q-1.3-1.61-2.631-3.169a13.021,13.021,0,0,0-.7-3.916c-1.032-3.123-2.211-3.589-3.741-4.689-.981-.7-1.373-2.432-2.322-4.962-1.059-2.819-1.741-2.976-3.672-3.764a7.724,7.724,0,0,1,1.05,1.981,10.767,10.767,0,0,0-3.768.521c.29-1.1-.461-2.566-.6-3.031a6.658,6.658,0,0,1-.272,2.944,28.183,28.183,0,0,0-1.907,3.957,26.517,26.517,0,0,0-1.161,5.1c-.055.4-1.41.378-1.41.378a4.427,4.427,0,0,1-1.013-2.621,3.3,3.3,0,0,0-.921,2.465,5.523,5.523,0,0,1-1.267-.378,15.018,15.018,0,0,1-.295-2.372,2.491,2.491,0,0,0-1.188,1.755c-.53-.276-.908-.645-.889-.894a6.086,6.086,0,0,1,.207-1.124,39.138,39.138,0,0,1,2.4-4.528c-1.963,1.741-3.879,3.644-3.861,6.15.028.2.111.253.258.387a7.375,7.375,0,0,0,8.251,1.99c.226-.244.843-2.663,1.815-5.478.207-.608.456-1.313.719-1.985,2.631,2.147,5.16,4.413,7.551,6.772a109.066,109.066,0,0,1,8.868,9.937,107.086,107.086,0,0,1-18.92,18.7A107.622,107.622,0,0,1,90.22,66.959a105.889,105.889,0,0,1-8.868-9.941,104.555,104.555,0,0,1,10.08-11.093c-.4-.355-.184-1.179-.06-1.718A107.643,107.643,0,0,0,81.416,54.9c-.548-.046-.954-.106-.954-.106.364-2.506,2.847-3.529,3.667-4.091-.954-4.9-3.639-12.254-2.769-15.677.553.3,1.073.543,1.488.741a10.412,10.412,0,0,1-.5-2.87c1.925,2.686,7.541,5.56,14.88,4.1-.958-.8-3.354-2.382-3.658-4.533a6.02,6.02,0,0,0,1.544.889,3.925,3.925,0,0,1-.908-2.289c1.032.479,6.39.5,10.8-2.211-2.787,1.074-8.435,2.4-12.844.148-.318,1.12-.525,5.528,2.6,7.389-9.214.2-12.129-5.837-13.24-8.707a7.338,7.338,0,0,0-.93,4.57c-1.083-.9-3.1-3.952-3.073-8.822-.046-5.182,1.129-7.675,1.76-8.868a10.237,10.237,0,0,0-2.128,2.4,7.853,7.853,0,0,1,1.672-5.385,2.321,2.321,0,0,0-1.2-.4,4.242,4.242,0,0,1,2.225-1.792c-.507-.318-.608-.926-.88-1.188a4.669,4.669,0,0,1,3.045-1,3.432,3.432,0,0,1-.82-2.1,6.7,6.7,0,0,0,1.737.166,2.745,2.745,0,0,1,.055-2.055,3.873,3.873,0,0,0,1.677,2.718,3.224,3.224,0,0,1,2.262-3.8,2.777,2.777,0,0,0,.106,2.262c.668-.963,2.179-1.3,3.446-1.419a6.189,6.189,0,0,1,2.087.226,14.269,14.269,0,0,0-2.939.917c-2.193,1.027-2.225,2.013-1.8,2.75.41-2.027,3.368-2.216,5.607-1.806A2.771,2.771,0,0,0,92.3,7.182c1.212-.3,3.7.179,4.39.981-.484-.134-.484,1.1-1,1.405A6.418,6.418,0,0,0,97.65,12a1.905,1.905,0,0,1-1.4-.046c1.543,2.119,1.93,6.468,5.132,8.379-2.142.8-4.519-1.188-5.878-2.46-.548,2.091,1.133,4.519,1.5,5a11.849,11.849,0,0,1-2.589-1.2c1.345,3.142,6.215,4.52,7.638,5.021a10.468,10.468,0,0,1-4.634-5.063,5.11,5.11,0,0,0,1.53.24,11.666,11.666,0,0,0,7.453,5.007c5.395,1.152,10.927,2.424,10.987,8.02.092,6.353-.479,8.919.534,9.31,1.548.59,1.272.346,1.037,2.041a14.13,14.13,0,0,0,1.349,6.818,16.085,16.085,0,0,1,1.415,2.5c-.64.014-1.322.028-2.013.032m-4.722-5.519q-1.831-2-3.741-3.888c-2.317-2.285-4.763-4.478-7.311-6.574a13.866,13.866,0,0,1,4.708.479c.1.313.194.622.3.922.659,1.893,1.373,2.658,3.75,4.2,1.7,1.115,2,2.971,2.3,4.86" transform="translate(-48.697 -0.296)" fill="#161615"/><path d="M150.387,193.645c0,.309-1.4.576-3.133.576s-3.119-.267-3.119-.576,1.4-.576,3.119-.576,3.133.253,3.133.576" transform="translate(-95.067 -127.341)" fill="#fff"/><path d="M152.63,163.063a54.42,54.42,0,0,0,2.851-7.592l-.037-.069a14.992,14.992,0,0,1-3.257.161c-.64,0-.88-.714-.88-1.617a8.676,8.676,0,0,0,2.465.147,24.507,24.507,0,0,0,3.1-.074,5.663,5.663,0,0,1-.382,1.359c-.972,2.349-2.322,6.357-2.773,7.693-.433,1.313-.93,1.566-1.7,1.566a1.2,1.2,0,0,1-.355-.074V164.5a7.656,7.656,0,0,0,.967-1.433" transform="translate(-99.797 -101.537)" fill="#fff"/><path d="M172,154.958l.064.078a4.291,4.291,0,0,0-.41,1.976c0,1.29.313,2.483,1.281,2.483.8,0,1.258-.829,1.258-1.792,0-3.234-3.612-2.391-3.612-5.464a2.715,2.715,0,0,1,2.474-2.847,2.34,2.34,0,0,1,2.455,2.626,2.646,2.646,0,0,1-1.617,2.511l-.069-.06a5.8,5.8,0,0,0,.4-2.248c0-1.437-.617-2.156-1.221-2.156-.539,0-1.078.608-1.078,1.9,0,3.257,3.635,2.34,3.635,5.2,0,1.5-.843,2.994-2.6,2.994a2.727,2.727,0,0,1-.963-5.2" transform="translate(-112.397 -98.534)" fill="#fff"/><path d="M109.721,41.826c-.3.511-.6.617-.8.59-.594-.087-1.327-.359-1.557-.037-.189.24-.309.322-.387.322s-.2-.083-.392-.322c-.226-.322-1.152.193-1.746.281-.24.028-.645-.078-1.009-1.11-.1-.3.106-.419.2-.267a2.437,2.437,0,0,0,.479.5c.571.465,1.566-.254,2.193-.456a7.129,7.129,0,0,0,.032-.769c.009-.207-.184-.286-.8-.571s-.815-.428-.82-.94c-.051-.3.2.018.318.009.262-.023.244-.147.566-.253.608-.2.419.207.972.207s.364-.41.968-.207c.322.106.313.23.567.253.124.009.378-.309.322-.009-.087.391-.346.525-.954.811s-.677.493-.659.7a5.357,5.357,0,0,0,.032.769c.627.2,1.7.94,2.271.484a.842.842,0,0,0,.147-.138c.143-.189.207-.111.046.157" transform="translate(-68.468 -25.554)" fill="#161615"/><path d="M99.564,24.128c.12.41.042.788.189,1.437a3.878,3.878,0,0,0,.355-2.5,1.732,1.732,0,0,1-.981-.41,2.4,2.4,0,0,0-2.018.484c-.2-.691-.078-1.092.3-1.341a3.011,3.011,0,0,1,1.258-.456,1.124,1.124,0,0,1,.852.115,2.715,2.715,0,0,0-1.165-1.133,1.207,1.207,0,0,1,.2.484c-2.146.479-2.63,1.336-2.884,2.032a4.555,4.555,0,0,0-.184,1.861,2.6,2.6,0,0,1,.931-.76,3.168,3.168,0,0,1,1.17-.235c.834.732,1.617.207,1.985.419" transform="translate(-62.954 -13.407)" fill="#161615"/><path d="M119.373,27.867a1.238,1.238,0,0,1-1.525.875,1.5,1.5,0,0,0-.875.065,9.306,9.306,0,0,0,.12,1.3,3.388,3.388,0,0,1-.5-2.211,4.279,4.279,0,0,0,1.258-.378c.507-.064,1.4.171,1.755.124.152-.014,0,.088,0,.088a.757.757,0,0,1-.23.133" transform="translate(-76.87 -18.145)" fill="#161615"/><path d="M103.156,28.252a1.818,1.818,0,0,0-.673.064.744.744,0,0,0,.687.636.157.157,0,0,1,.064.009.606.606,0,0,1-.152-.35.637.637,0,0,1,.074-.359" transform="translate(-67.594 -18.629)" fill="#fff"/><path d="M106.176,28.771a.068.068,0,0,0-.009-.018.98.98,0,0,0-.143-.129.2.2,0,0,0-.041-.023.136.136,0,0,0-.055-.032l-.1-.028a.546.546,0,0,1,.05.189.527.527,0,0,1-.138.433,2.226,2.226,0,0,1,.608-.014.668.668,0,0,0-.171-.378" transform="translate(-69.741 -18.825)" fill="#fff"/><path d="M104.751,28.311a.7.7,0,0,1-.143-.018.168.168,0,0,0-.041.106.158.158,0,0,0,.147.147.147.147,0,0,0,.129-.152.184.184,0,0,0-.014-.069.678.678,0,0,1-.078-.014" transform="translate(-68.969 -18.661)" fill="#fff"/><path d="M121.207,28.227c-.018,0-.051,0-.074,0a.693.693,0,0,1,.074.383.57.57,0,0,1-.147.35h.042a.757.757,0,0,0,.686-.644,2.078,2.078,0,0,0-.58-.093" transform="translate(-79.847 -18.618)" fill="#fff"/><path d="M134.9,154.967l.06.078a4.388,4.388,0,0,0-.4,1.985c0,1.286.309,2.479,1.276,2.479.8,0,1.258-.825,1.258-1.8,0-3.229-3.6-2.391-3.6-5.464a2.706,2.706,0,0,1,2.46-2.842,2.353,2.353,0,0,1,2.469,2.626,2.617,2.617,0,0,1-1.622,2.506l-.06-.055a6,6,0,0,0,.387-2.239c0-1.447-.612-2.17-1.225-2.17-.544,0-1.087.613-1.087,1.9,0,3.257,3.649,2.335,3.649,5.2,0,1.511-.866,3-2.585,3a2.728,2.728,0,0,1-.981-5.206" transform="translate(-87.923 -98.544)" fill="#fff"/><path d="M118,156.152c-.111.042-1.124.391-1.336.484-.216.111-.327.018-.364-.032-.028-.069-.111-.221-.212-.507a6.922,6.922,0,0,0,2.428-1.8h.82c-.046.461-.037.82-.037,2.05V160.7c0,1.027.037,1.529.037,1.529a3.179,3.179,0,0,0,1.212.332c.106.014.166.157.166.3s-.018.382-.018.382a7.707,7.707,0,0,0-1.258-.069h-1.423a8.988,8.988,0,0,0-1.331.069s-.014-.175-.014-.322.032-.341.221-.364a3.253,3.253,0,0,0,1.073-.3s.092-.931.092-2.142c0,0-.009-2.175-.009-2.81,0-.346-.032-1.055-.046-1.161" transform="translate(-76.569 -101.771)" fill="#fff"/><path d="M98.934,41.228l-.138-.2a11.592,11.592,0,0,0-4.017-.392,24.764,24.764,0,0,1,4.155.594" transform="translate(-62.513 -26.795)" fill="#161615"/><path d="M98.091,43.169l-.157-.189a11.584,11.584,0,0,0-4.031.134,24.094,24.094,0,0,1,4.188.055" transform="translate(-61.935 -28.274)" fill="#161615"/><path d="M98.977,44.743l-.184-.161a11.6,11.6,0,0,0-3.99.58,23.408,23.408,0,0,1,4.174-.419" transform="translate(-62.529 -29.393)" fill="#161615"/><path d="M119.511,41.228l.12-.2a11.646,11.646,0,0,1,4.022-.392,24.607,24.607,0,0,0-4.141.594" transform="translate(-78.825 -26.795)" fill="#161615"/><path d="M120.278,43.033l.152-.189a12.047,12.047,0,0,1,4.031.129,25.532,25.532,0,0,0-4.183.06" transform="translate(-79.331 -28.187)" fill="#161615"/><path d="M119.406,44.593l.18-.166a11.778,11.778,0,0,1,3.989.585,24.226,24.226,0,0,0-4.169-.419" transform="translate(-78.756 -29.293)" fill="#161615"/><path d="M117.776,21.44a10.673,10.673,0,0,1,1.958.631,3.877,3.877,0,0,0-2.815-1.212,1.864,1.864,0,0,1,.092-.6,1.35,1.35,0,0,0-1.032,1.193c.226-.092.558-.262,1.8-.009" transform="translate(-76.496 -13.36)" fill="#161615"/><path d="M89.948,50.838c0,2.23,1.847,7.044,5.053,8.923a9.852,9.852,0,0,1-4.546-3.146A12.875,12.875,0,0,0,90,61.438a13.971,13.971,0,0,1-.05-10.6" transform="translate(-58.655 -33.531)" fill="#161615"/><path d="M118.631,28.724a.911.911,0,0,1,.042-.193.664.664,0,0,0-.2.092.688.688,0,0,0-.341.534,2.291,2.291,0,0,1,.64.028.609.609,0,0,1-.138-.461" transform="translate(-77.914 -18.818)" fill="#fff"/><path d="M120.162,28.333c-.087.014-.152.037-.217.051a.106.106,0,0,0-.014.051.146.146,0,0,0,.134.157.149.149,0,0,0,.143-.152.139.139,0,0,0-.046-.106" transform="translate(-79.103 -18.687)" fill="#fff"/><path d="M104.178,53.753c-.4-.309-1.746-1.557-1.253-4.307.028-.272.147-.115.258.138.051.115.083.226.12.286.493,1.147.686,2.165,2.76,1.525a1.187,1.187,0,0,1,.907.032,1.677,1.677,0,0,0,1.585-.267c.134.806-.59,1.939-2.16,1.46a2.911,2.911,0,0,0-.111,1.58,3.09,3.09,0,0,1-1.806-1.7c-.24.217-.3.516-.3,1.258" transform="translate(-67.815 -32.518)" fill="#161615"/><path d="M46.262,250.3q-.348.811-.962,2.329a30.89,30.89,0,0,0-1.193,3.742l-.417-.093a2.55,2.55,0,0,0-.533-.046,2.9,2.9,0,0,0-.556.046l-.463.093q.51-1.112,1.123-2.467t1.275-2.8q.66-1.448,1.332-2.954t1.286-2.931q.613-1.426,1.159-2.723t.961-2.34l.266.046a1.765,1.765,0,0,0,.313.023,2.359,2.359,0,0,0,.266-.012,1.2,1.2,0,0,0,.243-.058q.44,1.229,1.124,2.885t1.46,3.452q.776,1.8,1.552,3.557t1.39,3.163q.614,1.4,1.02,2.27t.406.892l-.614-.093a5.283,5.283,0,0,0-.753-.046,6.259,6.259,0,0,0-.811.046c-.232.031-.456.062-.672.093a29.545,29.545,0,0,0-1.251-3.6q-.649-1.495-1.089-2.467Zm2.9-6.928-2.433,5.746h4.936Z" transform="translate(-27.793 -158.395)"/><path d="M107.143,256.549q0-.626-.081-1.7t-.185-2.34q-.1-1.262-.232-2.595t-.232-2.445q-.1-1.112-.185-1.876t-.1-.927q-1.252,2.271-2.445,4.541t-2.352,4.587q-.278.557-.452.95t-.313.707q-.139.313-.243.568t-.2.533a1.94,1.94,0,0,0-.324-.046.8.8,0,0,0-.139.012c-.046.008-.1.019-.162.035q-.325-.718-.545-1.228t-.544-1.112q-.6-1.182-1.251-2.41l-1.286-2.433q-.638-1.2-1.263-2.351t-1.2-2.143q-.139.88-.266,1.935t-.232,2.178q-.1,1.124-.2,2.247t-.15,2.132q-.058,1.007-.081,1.842t-.023,1.344q-.278-.069-.463-.1a2.286,2.286,0,0,0-.417-.035,4.074,4.074,0,0,0-.637.046c-.193.031-.352.062-.475.093q.046-.278.22-1.228T91.075,253q.22-1.367.475-3.024t.5-3.36q.243-1.7.452-3.313t.348-2.884a2.056,2.056,0,0,0,.394.046c.061,0,.135,0,.22-.012a2.3,2.3,0,0,0,.243-.035q.162.394.626,1.3t1.077,2.085q.614,1.182,1.332,2.537t1.413,2.618q.7,1.263,1.286,2.305t.961,1.645q.927-1.737,1.61-2.989t1.182-2.178q.5-.926.857-1.6t.66-1.24q.3-.568.579-1.1t.626-1.182q.208-.417.348-.683t.243-.5q.1-.232.22-.464t.255-.556c.077.016.147.027.208.035a1.679,1.679,0,0,0,.209.012,1.765,1.765,0,0,0,.2-.012c.069-.008.151-.019.243-.035q.209,1.831.44,3.962t.486,4.228q.255,2.1.5,4.008t.475,3.3q.023.116.046.255a3.164,3.164,0,0,0,.093.371q-.464-.069-.718-.1a4.331,4.331,0,0,0-.579-.035,5.889,5.889,0,0,0-.822.046l-.614.093" transform="translate(-59.665 -158.575)"/><path d="M164.334,240.083a10.818,10.818,0,0,1,3.394.521,7.923,7.923,0,0,1,2.769,1.552,7.347,7.347,0,0,1,1.865,2.537,8.277,8.277,0,0,1,.684,3.453,8.985,8.985,0,0,1-.626,3.371,7.891,7.891,0,0,1-1.784,2.711,8.19,8.19,0,0,1-2.815,1.8,10.14,10.14,0,0,1-3.719.649,10.4,10.4,0,0,1-3.5-.568,7.937,7.937,0,0,1-2.757-1.634,7.391,7.391,0,0,1-1.807-2.6,8.762,8.762,0,0,1-.649-3.452,9.153,9.153,0,0,1,.6-3.383,7.306,7.306,0,0,1,1.75-2.63,8.007,8.007,0,0,1,2.8-1.714,10.86,10.86,0,0,1,3.789-.614m-6.3,8.318a9.6,9.6,0,0,0,.452,3.047,6.7,6.7,0,0,0,1.263,2.294,5.442,5.442,0,0,0,1.935,1.437,6.023,6.023,0,0,0,2.468.5,6.372,6.372,0,0,0,2.514-.486,5.431,5.431,0,0,0,1.981-1.436,6.727,6.727,0,0,0,1.3-2.329,9.908,9.908,0,0,0,.464-3.163q0-.44-.046-1.008a10.45,10.45,0,0,0-.162-1.158,9.6,9.6,0,0,0-.313-1.182,5.739,5.739,0,0,0-.5-1.1,4.925,4.925,0,0,0-1.112-1.321,5.91,5.91,0,0,0-1.356-.846,6.216,6.216,0,0,0-1.413-.44,7.321,7.321,0,0,0-1.286-.128,6.59,6.59,0,0,0-2.271.405,5.319,5.319,0,0,0-1.981,1.286,6.481,6.481,0,0,0-1.4,2.271,9.387,9.387,0,0,0-.533,3.36" transform="translate(-102.49 -158.35)"/><path d="M217.443,250.288v-2.676q0-1.123-.012-1.947t-.012-1.425q0-.6-.023-1.147t-.058-1.112q-.035-.567-.081-1.286.37.046.707.093a4.752,4.752,0,0,0,.66.046,5.044,5.044,0,0,0,.719-.046q.324-.047.625-.093-.069,1.135-.116,2.444t-.069,2.468q-.023,1.159-.023,1.992v1.02q0,1.09.023,1.958a12.451,12.451,0,0,0,.128,1.552,5.674,5.674,0,0,0,.312,1.217,3.418,3.418,0,0,0,.556.95,3.721,3.721,0,0,0,1.576,1.1,5.714,5.714,0,0,0,2.131.405q.231,0,.869-.069a4.451,4.451,0,0,0,1.367-.405,4.738,4.738,0,0,0,1.39-1.008,3.859,3.859,0,0,0,.939-1.9,10.616,10.616,0,0,0,.22-1.321q.081-.741.116-1.437t.046-1.251q.011-.556.012-.765,0-.324-.023-1.24t-.058-1.993q-.035-1.077-.093-2.12a15.831,15.831,0,0,0-.15-1.6l.464.093a3.293,3.293,0,0,0,.625.046,2.924,2.924,0,0,0,.6-.046l.417-.093a35.077,35.077,0,0,0-.313,3.591q-.082,1.993-.081,4.588,0,.834-.046,1.714a12.115,12.115,0,0,1-.209,1.7,7.328,7.328,0,0,1-.5,1.576,4.7,4.7,0,0,1-.915,1.355,6.178,6.178,0,0,1-1.923,1.3,7.847,7.847,0,0,1-3.175.533,12,12,0,0,1-1.437-.093,7.1,7.1,0,0,1-2.977-1.077,4.663,4.663,0,0,1-1.24-1.17,4.034,4.034,0,0,1-.51-.9,5.543,5.543,0,0,1-.29-1,8.5,8.5,0,0,1-.139-1.158q-.035-.626-.035-1.367" transform="translate(-143.295 -158.755)"/><path d="M284.02,248.182a9.093,9.093,0,0,1-.73,3.8,7.437,7.437,0,0,1-1.947,2.63,7.979,7.979,0,0,1-2.8,1.529,11.028,11.028,0,0,1-3.325.5q-.093,0-.591-.011t-1.112-.035q-.614-.023-1.182-.035c-.378-.008-.645-.012-.8-.012h-.463c-.155,0-.324,0-.51.012s-.4.019-.649.035-.533.031-.857.046q.069-.88.116-1.691t.081-1.831q.034-1.019.057-2.386t.024-3.36q0-1.3-.012-2.178t-.035-1.6q-.024-.719-.058-1.413t-.081-1.622q1.9.07,3.8.069,1.552,0,2.78.023a16.1,16.1,0,0,1,2.236.186,8.377,8.377,0,0,1,1.854.51,6.821,6.821,0,0,1,1.657,1,6.052,6.052,0,0,1,1.251,1.309,7.009,7.009,0,0,1,.776,1.46,7.21,7.21,0,0,1,.405,1.529,10.419,10.419,0,0,1,.116,1.541m-2.572.278a11.339,11.339,0,0,0-.092-1.39,7.405,7.405,0,0,0-.348-1.483,6.04,6.04,0,0,0-.718-1.425,5.433,5.433,0,0,0-1.182-1.24,4.724,4.724,0,0,0-1.274-.706,7.753,7.753,0,0,0-1.367-.359,10.731,10.731,0,0,0-1.4-.139q-.707-.023-1.4-.023h-.684c-.178,0-.336,0-.475.011s-.274.02-.405.035-.29.031-.475.046q-.07,1.6-.093,3.313t-.023,3.313v2.572q0,.973.011,1.668t.023,1.309q.012.614.035,1.471.6.069,1.124.1t1.356.035q.37,0,.95-.012a9.222,9.222,0,0,0,1.24-.116,7.862,7.862,0,0,0,1.332-.336,5.212,5.212,0,0,0,1.275-.649,5.357,5.357,0,0,0,1.321-1.32,6.4,6.4,0,0,0,.788-1.552,8.21,8.21,0,0,0,.382-1.622,11.881,11.881,0,0,0,.1-1.506" transform="translate(-177.457 -158.664)"/><path d="M50.329,301.934a10.625,10.625,0,0,1,3.334.512,7.781,7.781,0,0,1,2.72,1.525,7.219,7.219,0,0,1,1.832,2.492,8.122,8.122,0,0,1,.672,3.391,8.842,8.842,0,0,1-.614,3.311,7.737,7.737,0,0,1-1.753,2.663,8.051,8.051,0,0,1-2.765,1.764,9.958,9.958,0,0,1-3.653.637,10.212,10.212,0,0,1-3.437-.558,7.8,7.8,0,0,1-2.708-1.6,7.257,7.257,0,0,1-1.775-2.549,8.606,8.606,0,0,1-.637-3.391,8.986,8.986,0,0,1,.592-3.323,7.176,7.176,0,0,1,1.719-2.583,7.868,7.868,0,0,1,2.754-1.684,10.668,10.668,0,0,1,3.722-.6m-6.191,8.171a9.425,9.425,0,0,0,.444,2.993,6.581,6.581,0,0,0,1.24,2.253,5.343,5.343,0,0,0,1.9,1.411,5.916,5.916,0,0,0,2.424.489,6.258,6.258,0,0,0,2.47-.478,5.339,5.339,0,0,0,1.946-1.411,6.617,6.617,0,0,0,1.274-2.287,9.742,9.742,0,0,0,.455-3.107q0-.432-.046-.99a10.215,10.215,0,0,0-.159-1.138,9.358,9.358,0,0,0-.307-1.161,5.611,5.611,0,0,0-.49-1.081,4.83,4.83,0,0,0-1.092-1.3,5.791,5.791,0,0,0-1.332-.831,6.1,6.1,0,0,0-1.388-.432,7.182,7.182,0,0,0-1.263-.125,6.474,6.474,0,0,0-2.23.4,5.223,5.223,0,0,0-1.946,1.263,6.373,6.373,0,0,0-1.377,2.231,9.228,9.228,0,0,0-.524,3.3" transform="translate(-27.4 -199.145)"/><path d="M102.5,311.959V309.33q0-1.1-.012-1.912t-.011-1.4c0-.394-.009-.77-.023-1.126s-.033-.721-.057-1.092-.05-.793-.08-1.263c.242.031.474.061.694.091a4.656,4.656,0,0,0,.649.046,4.923,4.923,0,0,0,.705-.046c.212-.03.418-.06.615-.091q-.068,1.115-.114,2.4t-.068,2.424q-.022,1.138-.023,1.957v1q0,1.07.023,1.923a12.469,12.469,0,0,0,.125,1.525,5.63,5.63,0,0,0,.307,1.195,3.367,3.367,0,0,0,.546.933,3.659,3.659,0,0,0,1.548,1.081,5.615,5.615,0,0,0,2.094.4q.227,0,.854-.068a4.376,4.376,0,0,0,1.342-.4,4.658,4.658,0,0,0,1.366-.99,3.8,3.8,0,0,0,.922-1.866,10.309,10.309,0,0,0,.216-1.3q.08-.728.114-1.411t.045-1.229q.012-.546.011-.751,0-.318-.023-1.218t-.057-1.958q-.034-1.058-.091-2.082a15.6,15.6,0,0,0-.148-1.57l.455.091a3.229,3.229,0,0,0,.615.046,2.861,2.861,0,0,0,.591-.046l.41-.091a34.268,34.268,0,0,0-.307,3.528q-.08,1.958-.08,4.507,0,.819-.046,1.684a11.743,11.743,0,0,1-.2,1.673,7.237,7.237,0,0,1-.489,1.548,4.651,4.651,0,0,1-.9,1.331,6.064,6.064,0,0,1-1.89,1.275,7.7,7.7,0,0,1-3.118.524,11.771,11.771,0,0,1-1.411-.091,6.972,6.972,0,0,1-2.925-1.058,4.584,4.584,0,0,1-1.217-1.15,3.966,3.966,0,0,1-.5-.887,5.391,5.391,0,0,1-.284-.979,8.329,8.329,0,0,1-.137-1.138q-.034-.614-.034-1.343" transform="translate(-67.484 -199.542)"/><path d="M151.964,311.969q-.341.8-.944,2.287a30.206,30.206,0,0,0-1.172,3.676l-.41-.091a2.517,2.517,0,0,0-.524-.045,2.858,2.858,0,0,0-.546.045l-.455.091q.5-1.092,1.1-2.424t1.251-2.754q.65-1.422,1.309-2.9t1.263-2.879q.6-1.4,1.138-2.674t.945-2.3l.261.046a1.741,1.741,0,0,0,.307.023,2.391,2.391,0,0,0,.262-.011,1.159,1.159,0,0,0,.239-.057q.432,1.207,1.1,2.834t1.434,3.391q.762,1.764,1.525,3.494t1.366,3.107q.6,1.377,1,2.23t.4.876l-.6-.091a5.2,5.2,0,0,0-.739-.045,6.186,6.186,0,0,0-.8.045c-.227.031-.448.061-.66.091a29.3,29.3,0,0,0-1.229-3.539q-.638-1.468-1.07-2.424Zm2.845-6.806-2.39,5.645h4.848Z" transform="translate(-97.558 -199.189)"/><path d="M200.736,316.989q.819.046,1.252.046h.865q.432,0,.99-.012t1.116-.046q.558-.034,1.092-.091t.922-.125a2.237,2.237,0,0,0-.069.33,3.326,3.326,0,0,0-.022.421,3.838,3.838,0,0,0,.022.455,1.627,1.627,0,0,0,.069.319l-1.036-.046q-.49-.023-1.047-.046t-1.229-.034q-.67-.011-1.6-.011-.751,0-1.263.011t-.922.034l-.785.046q-.376.023-.83.046.068-1.092.113-2.106t.057-2.026q.012-1.013.023-2.037t.012-2.14q0-1.161-.023-2.333t-.056-2.185q-.035-1.013-.057-1.787t-.046-1.138l.535.091a4.176,4.176,0,0,0,.694.046,5.8,5.8,0,0,0,.785-.046l.649-.091q-.046,1.456-.08,2.606T200.8,307.3q-.022,1.013-.034,1.992t-.023,2.094q-.012,1.115-.012,2.469Z" transform="translate(-130.763 -199.542)"/><path d="M232.983,309.453q1.365.023,2.7.012a24.426,24.426,0,0,0,2.674-.171,3.094,3.094,0,0,0-.068.353,3.235,3.235,0,0,0-.023.421,1.79,1.79,0,0,0,.034.353c.023.114.042.231.057.353q-.887-.113-1.844-.171t-1.684-.056q-.455,0-.933.011c-.319.008-.623.019-.91.034q-.023.729-.035,1.491t-.011,1.491c0,.3,0,.626.011.968s.015.679.023,1.013.015.637.023.91.011.486.011.637q1.093,0,2.526-.034t3.46-.239a3.163,3.163,0,0,0-.068.353,3.225,3.225,0,0,0-.023.421,2.7,2.7,0,0,0,.023.4q.022.149.068.33a12.547,12.547,0,0,0-1.582-.125q-.784-.011-1.582-.011-1.32,0-2.64.045l-2.639.091q.044-.637.091-1.3t.08-1.559q.033-.9.057-2.162t.023-3.13q0-.842-.012-1.821t-.034-1.98q-.022-1-.057-1.969t-.08-1.809q1.206.114,2.379.125t2.378.012q.864,0,1.73-.023t1.73-.114a2.969,2.969,0,0,0-.068.376,3.574,3.574,0,0,0-.023.421,2.714,2.714,0,0,0,.023.4c.015.1.038.209.068.33-.212-.046-.429-.083-.649-.114s-.466-.06-.739-.091-.589-.053-.945-.068-.785-.023-1.286-.023h-1.047q-.432,0-1.161.046c-.016.228-.027.429-.034.6s-.011.353-.011.535v3.061q0,.307.011.615t.012.763" transform="translate(-152.061 -199.586)"/><path d="M277.822,318.109q0-.615-.08-1.673t-.182-2.3q-.1-1.24-.227-2.549t-.227-2.4q-.1-1.092-.182-1.843t-.1-.91q-1.23,2.23-2.4,4.461t-2.31,4.507q-.273.546-.444.933l-.307.694q-.137.307-.239.558c-.068.167-.133.342-.194.524a1.893,1.893,0,0,0-.319-.046.8.8,0,0,0-.136.012c-.046.008-.1.019-.159.034q-.319-.705-.535-1.206t-.536-1.093q-.592-1.16-1.229-2.367l-1.263-2.39q-.627-1.183-1.24-2.31t-1.184-2.105q-.136.865-.261,1.9t-.228,2.14q-.1,1.1-.194,2.208t-.148,2.094q-.057.99-.08,1.809t-.023,1.32c-.181-.046-.334-.08-.455-.1a2.2,2.2,0,0,0-.41-.034,4.022,4.022,0,0,0-.626.045c-.19.031-.345.061-.467.091q.045-.273.216-1.206t.387-2.276q.216-1.342.467-2.97t.489-3.3q.239-1.673.444-3.255t.341-2.833a2.028,2.028,0,0,0,.387.046c.061,0,.133,0,.217-.012a2.22,2.22,0,0,0,.239-.034q.158.387.614,1.275t1.059,2.048q.6,1.161,1.308,2.492t1.389,2.572q.682,1.241,1.263,2.265t.945,1.616q.909-1.706,1.582-2.936t1.161-2.14q.489-.909.842-1.57t.649-1.217q.3-.558.569-1.081t.615-1.161q.206-.41.342-.672t.239-.489q.1-.228.216-.456c.076-.151.159-.333.251-.546q.114.023.205.034a1.6,1.6,0,0,0,.2.012,1.712,1.712,0,0,0,.194-.012q.1-.011.239-.034.2,1.8.432,3.892t.478,4.154q.25,2.06.49,3.937t.466,3.244c.015.076.03.159.045.25a3.148,3.148,0,0,0,.091.364c-.3-.046-.538-.08-.705-.1a4.2,4.2,0,0,0-.569-.034,5.8,5.8,0,0,0-.807.045l-.6.091" transform="translate(-172.433 -199.365)"/><path d="M12.175,310.935a5.652,5.652,0,0,0-3.217-.985V309.9a6.06,6.06,0,0,0,2.782-1.351A3.4,3.4,0,0,0,12.8,305.9a3.04,3.04,0,0,0-.389-1.6,2.876,2.876,0,0,0-1.053-1.019,4.679,4.679,0,0,0-1.534-.527,11.049,11.049,0,0,0-1.854-.149c-.061,0-.124,0-.185,0v0H3.121c-.073,0-.073,15.727,0,15.727H7.983v-.012a9.762,9.762,0,0,0,1.6-.206,5.648,5.648,0,0,0,1.866-.755,4.254,4.254,0,0,0,1.374-1.408,4.087,4.087,0,0,0,.527-2.152,3.359,3.359,0,0,0-1.179-2.862m-3.789-7.383a3.341,3.341,0,0,1,1.191.412,2.5,2.5,0,0,1,.87.87,2.854,2.854,0,0,1,.343,1.5,3.052,3.052,0,0,1-.378,1.591,2.924,2.924,0,0,1-1,1.007,4.316,4.316,0,0,1-1.408.538,7.952,7.952,0,0,1-1.591.16H5.181v-1.717q0-1.1.046-2.175t.092-2.175q.321-.046.733-.08t1.007-.034a8.632,8.632,0,0,1,1.328.1m2.564,11.79a3.58,3.58,0,0,1-.8,1.213,3.327,3.327,0,0,1-1.179.744,4,4,0,0,1-1.408.252q-.618,0-1.214-.034t-1.03-.08q-.046-1.167-.092-2.312t-.046-2.312v-2.335h1.03a14.214,14.214,0,0,1,2.072.138,4.882,4.882,0,0,1,1.591.492,2.492,2.492,0,0,1,1.019.984,3.267,3.267,0,0,1,.355,1.614,4.263,4.263,0,0,1-.3,1.637" transform="translate(-2.022 -199.586)"/><path d="M10.1,240.424v7.088a41.156,41.156,0,0,0-7.779,1.243v-8.33H0v16.033H2.321v-6.772a39.579,39.579,0,0,1,7.779-1.3v8.067h2.321V240.424Z" transform="translate(0 -158.575)"/></g></g><path d="M24.762,16.992a4.423,4.423,0,0,1-1.677.617,15.762,15.762,0,0,1-3.807.237,46.289,46.289,0,0,1-8.179-.962,34.523,34.523,0,0,1-8.846-3.231A7.266,7.266,0,0,1,1.272,13,2.705,2.705,0,0,1,.677,8.918,9.412,9.412,0,0,1,3.648,6.452,37.319,37.319,0,0,1,11.3,3.316a71.49,71.49,0,0,1,10.737-2.3C24.937.6,27.852.3,30.783.152A99.525,99.525,0,0,1,40.86.106c1.971.1,3.945.176,5.908.354,2.436.22,4.865.505,7.29.813,3.366.427,6.7,1.043,10.005,1.74,3.56.751,7.064,1.682,10.519,2.77l1.727.543c-2.6-.588-5.319-1.257-8.064-1.809Q62.521,3.367,56.7,2.7q-6.6-.754-13.247-1.057c-4.017-.184-8.034-.213-12.051-.029-3.024.139-6.029.454-9.021.877a71.539,71.539,0,0,0-9.088,1.826,36.052,36.052,0,0,0-8.42,3.308A8.662,8.662,0,0,0,2.326,9.708a3.5,3.5,0,0,0-.313.475A1.182,1.182,0,0,0,2.1,11.549a6.978,6.978,0,0,0,2.1,1.743A24.164,24.164,0,0,0,10.4,15.764a43.4,43.4,0,0,0,8.532,1.48,13.429,13.429,0,0,0,4.487-.308,4.224,4.224,0,0,0,.984-.416.474.474,0,0,0,.235-.7,5.032,5.032,0,0,0-.377-.691c-.1-.168-.178-.333.018-.469a.308.308,0,0,1,.474.14,6.043,6.043,0,0,1,.518,1.06.977.977,0,0,1-.512,1.13m5.025-.429c0,.006-.006.023,0,.024.173.078.35.147.519.232a6.448,6.448,0,0,0,3.805.623,4.673,4.673,0,0,0,1.358-.387,1.106,1.106,0,0,0,.629-1.387,2.08,2.08,0,0,0-.437-.716,6.817,6.817,0,0,0-2.925-1.775,1.232,1.232,0,0,0-.68-.026.643.643,0,0,0-.387.4.655.655,0,0,0,.215.48,2.193,2.193,0,0,0,.519.307c.53.294,1.073.568,1.587.887a8.413,8.413,0,0,1,.838.673l-.044.129a9.849,9.849,0,0,1-5,.54M18.677,18.871a.861.861,0,0,0-.82.849.672.672,0,0,0,.658.69.941.941,0,0,0,.885-.84.7.7,0,0,0-.723-.7m8.271-2.254a.624.624,0,0,0,.609.626.673.673,0,0,0,.7-.641.643.643,0,0,0-.626-.645.675.675,0,0,0-.685.66m62.971-3.226c0,.456-.322.822-.986.957-1.357.274-2.718.543-4.09.714-2.912.363-5.828.715-8.751.97-2.449.214-4.911.283-7.368.416l-.448.022c-.088.611-.176,1.217-.262,1.823a2.3,2.3,0,0,1-.084.566c-.057.135-.216.309-.334.312a.47.47,0,0,1-.345-.292,2.036,2.036,0,0,1,0-.69c.06-.549.138-1.1.214-1.693-.729.038-1.4.067-2.077.108-3.945.242-7.89.5-11.843.538v0a2.176,2.176,0,0,1-1.531-.412,3.772,3.772,0,0,1-.533-.378,2.379,2.379,0,0,1-1.372.365,5.991,5.991,0,0,1-1.76.01,4.6,4.6,0,0,1-.968-.272,1.448,1.448,0,0,1-.842-.918,7.339,7.339,0,0,1-1.255,1.051,2.73,2.73,0,0,1-2.448.616,16.3,16.3,0,0,1,.269,1.744A5.517,5.517,0,0,1,40.5,24.212a11.11,11.11,0,0,1-4.295,1.5,49.281,49.281,0,0,1-9.692.435c-.86-.029-1.72-.044-2.581-.068-.1,0-.2-.02-.306-.03,0-.026,0-.052,0-.079.092,0,.185-.015.277-.011a51,51,0,0,0,6.492-.188,27.887,27.887,0,0,0,7.277-1.4,13.327,13.327,0,0,0,2.131-1.015,4.368,4.368,0,0,0,2.221-4.225,10.8,10.8,0,0,0-.308-1.629c-.041-.206-.167-.25-.372-.255-.9-.019-1.8-.05-2.7-.1a2.065,2.065,0,0,1-.7-.192.736.736,0,0,1-.4-1.079,3.742,3.742,0,0,1,1.6-1.652,1.489,1.489,0,0,1,1.674.224,5.435,5.435,0,0,1,1.51,1.839.4.4,0,0,0,.314.254l0-.006a3.855,3.855,0,0,0,1.9-.61h0q.269-.152.523-.323l.02-.014c.075-.051.149-.1.221-.156l.054-.04A7.029,7.029,0,0,0,46.5,14.353a1.964,1.964,0,0,1,.766-.6,1.79,1.79,0,0,0,.335-.239,4.336,4.336,0,0,1,2.211-.813,2.2,2.2,0,0,1,1.036.2,1.431,1.431,0,0,1,.792,1.033c.084.319.14.645.216.966l.011.045c.163.673,1.03.842,1.681.871V15.8c4.66-.05,9.3-.4,13.954-.628.03-.509.045-1,.09-1.491a15.917,15.917,0,0,1,.2-1.624,2.743,2.743,0,0,1,2.451-2.376,12.192,12.192,0,0,1,3.512-.035,136.632,136.632,0,0,1,13.494,2.221,16.153,16.153,0,0,1,1.777.5c.477.162.891.432.894,1.019M41.242,16.54a4.689,4.689,0,0,0-1.172-1.321.579.579,0,0,0-.708-.044,8.043,8.043,0,0,0-.96.731c-.342.315-.3.424.143.539a1,1,0,0,0,.177.039q1.238.086,2.477.169l.043-.114m9.65-1.13c-.056-.312-.1-.6-.161-.89a3.666,3.666,0,0,0-.123-.45.463.463,0,0,0-.457-.319,2.983,2.983,0,0,0-2.049.67,1.941,1.941,0,0,0-.422.481c-.151.235-.082.379.182.463.025.008.052.007.077.014a3.98,3.98,0,0,0,1.336.138l1.617-.108m35.674-2.1a5.8,5.8,0,0,0-.651-.161c-4.17-.808-8.359-1.5-12.574-2.031a21.175,21.175,0,0,0-2.694-.136,1.787,1.787,0,0,0-1.784,1.3,12.133,12.133,0,0,0-.5,2.836,109.5,109.5,0,0,0,18.2-1.807" transform="translate(915.041 131.253)"/></g></svg>