<?xml version="1.0" encoding="utf-8"?>
<svg xmlns="http://www.w3.org/2000/svg" fill="none" height="100" viewBox="0 0 100 100" width="100">
<path d="M49.9998 0.000179966C38.4324 0.000216113 27.2228 4.011 18.281 11.3492C9.3391 18.6873 3.2182 28.8989 0.96113 40.244C-1.29594 51.5891 0.450486 63.3658 5.90282 73.5676C11.3552 83.7695 20.1761 91.7653 30.8627 96.1927C41.5493 100.62 53.4404 101.205 64.5101 97.8483C75.5797 94.4914 85.143 87.4002 91.5705 77.7829C97.998 68.1656 100.892 56.6172 99.7597 45.1053C98.6273 33.5934 93.5385 22.8303 85.3602 14.6498C80.7277 9.99101 75.2172 6.29741 69.1475 3.78279C63.0779 1.26818 56.5697 -0.0175036 49.9998 0.000179966Z" fill="#F0C900"/>
<path d="M49.9998 2.12461C38.9266 2.12655 28.1966 5.96765 19.6378 12.9935C11.0791 20.0194 5.22099 29.7954 3.06166 40.656C0.902334 51.5166 2.57533 62.79 7.79562 72.5554C13.0159 82.3209 21.4606 89.9743 31.6909 94.2119C41.9212 98.4494 53.3042 99.0089 63.9007 95.7949C74.4973 92.581 83.6517 85.7926 89.8045 76.5861C95.9572 67.3796 98.7276 56.3246 97.6437 45.3046C96.5597 34.2846 91.6886 23.9813 83.86 16.15C79.424 11.689 74.1472 8.15245 68.335 5.74497C62.5229 3.33749 56.2908 2.10695 49.9998 2.12461Z" fill="#101C2C"/>
<path d="M61.3067 34.0516C65.0405 34.6859 68.4846 36.4658 71.1618 39.1447C73.8389 41.8237 75.6165 45.269 76.2482 49.0033H81.2825C80.8078 45.2444 79.4256 41.6576 77.2551 38.5522C73.7102 33.5342 68.3239 30.1226 62.2722 29.0624C56.2205 28.0022 49.9951 29.3796 44.9555 32.8938L47.8754 37.0118C51.7865 34.2914 56.6144 33.2274 61.3067 34.0516Z" fill="#F0C900"/>
<path d="M68.0425 39.9417C65.3911 37.8011 62.1151 36.5815 58.7094 36.4671C55.3037 36.3527 51.9532 37.3496 49.1641 39.3074L50.171 40.7573C52.5034 39.1109 55.2903 38.2312 58.1452 38.2401C61.2128 38.2427 64.1939 39.2575 66.626 41.1271C69.0581 42.9967 70.8053 45.6166 71.5966 48.5804C71.5966 48.7214 71.6671 48.8623 71.6973 48.9932H73.5197C73.5197 48.8825 73.5197 48.7818 73.4492 48.671C72.6707 45.2398 70.7676 42.1672 68.0425 39.9417Z" fill="white"/>
<path d="M54.2688 58.0649C53.0123 58.0669 51.7846 58.4414 50.7409 59.1412C49.6972 59.8409 48.8845 60.8345 48.4055 61.9961C47.9265 63.1578 47.8027 64.4354 48.0498 65.6674C48.2969 66.8994 48.9037 68.0305 49.7936 68.9176C50.6836 69.8047 51.8166 70.4079 53.0493 70.6511C54.2821 70.8943 55.5593 70.7665 56.7195 70.2838C57.8796 69.8011 58.8705 68.9852 59.567 67.9393C60.2634 66.8935 60.6341 65.6645 60.6321 64.408C60.6375 63.5718 60.4764 62.7429 60.1583 61.9696C59.8402 61.1962 59.3713 60.4939 58.7791 59.9036C58.1869 59.3132 57.4831 58.8466 56.7088 58.531C55.9344 58.2153 55.105 58.0568 54.2688 58.0649ZM54.2688 69.6134C53.2361 69.6143 52.2263 69.3085 51.3675 68.7348C50.5087 68.1612 49.8395 67.3455 49.4449 66.3911C49.0502 65.4367 48.9477 64.3867 49.1505 63.374C49.3532 62.3613 49.8521 61.4317 50.5838 60.7028C51.5669 59.7373 52.8909 59.1983 54.2688 59.2026C55.6494 59.2026 56.9734 59.751 57.9496 60.7272C58.9258 61.7034 59.4742 63.0275 59.4742 64.408C59.4742 65.7886 58.9258 67.1126 57.9496 68.0888C56.9734 69.065 55.6494 69.6134 54.2688 69.6134Z" fill="#F0C900"/>
<path d="M56.3295 65.5449C56.9679 64.4174 56.5714 62.9859 55.444 62.3475C54.3166 61.7091 52.8851 62.1056 52.2467 63.233C51.6083 64.3605 52.0048 65.7919 53.1322 66.4303C54.2596 67.0687 55.6911 66.6723 56.3295 65.5449Z" fill="white"/>
<path d="M74.1641 63.9348L72.4726 58.0347H69.3614L67.68 63.8945L66.502 58.0347H61.9913L64.881 70.731H69.6031L70.922 65.0524L72.5431 70.731H76.8423L78.4331 63.7233L79.7118 58.0347H75.3824L74.1641 63.9348Z" fill="#F0C900"/>
<path d="M44.875 42.338C44.877 39.6353 44.0774 36.9927 42.5773 34.7445C41.0772 32.4964 38.944 30.7436 36.4476 29.7079C33.9513 28.6723 31.2038 28.4003 28.5528 28.9263C25.9018 29.4524 23.4664 30.7528 21.5546 32.6632C19.6428 34.5736 18.3405 37.0081 17.8125 39.6587C17.2845 42.3093 17.5545 45.057 18.5883 47.5541C19.6221 50.0513 21.3733 52.1857 23.6204 53.6875C25.8674 55.1892 28.5094 55.9908 31.2121 55.9908H80.1649L81.3127 50.9566H44.875V42.338ZM39.8408 50.9465H31.2322C29.5296 50.9465 27.8653 50.4416 26.4496 49.4957C25.0339 48.5498 23.9306 47.2053 23.279 45.6323C22.6274 44.0593 22.457 42.3284 22.7891 40.6585C23.1213 38.9887 23.9412 37.4548 25.1451 36.2508C26.349 35.0469 27.8829 34.227 29.5528 33.8949C31.2227 33.5627 32.9536 33.7332 34.5266 34.3847C36.0996 35.0363 37.4441 36.1397 38.39 37.5553C39.3359 38.971 39.8408 40.6354 39.8408 42.338V50.9465Z" fill="#F0C900"/>
<path d="M39.8206 70.731C41.1723 70.674 42.45 70.0979 43.3877 69.1227C44.3253 68.1475 44.8509 66.8483 44.8549 65.4954V58.0649H39.8206V70.731Z" fill="#DCAA02"/>
</svg>