{
  "accessors": [
    {
      "bufferView": 2,
      "componentType": 5126,
      "count": 1006,
      "max": [
        1302.9124755859375,
        1344.287841796875,
        491.7076110839844
      ],
      "min": [
        -1302.911865234375,
        -470.894287109375,
        -159.87759399414063
      ],
      "type": "VEC3"
    },
    {
      "bufferView": 2,
      "byteOffset": 12072,
      "componentType": 5126,
      "count": 1006,
      "max": [
        0.9998324513435364,
        1.0,
        0.9997753500938416
      ],
      "min": [
        -0.9998324513435364,
        -0.7770712971687317,
        -0.999971866607666
      ],
      "type": "VEC3"
    },
    {
      "bufferView": 1,
      "componentType": 5126,
      "count": 1006,
      "max": [
        0.9961000084877014,
        0.6177999973297119
      ],
      "min": [
        0.002300000051036477,
        -0.0035000001080334187
      ],
      "type": "VEC2"
    },
    {
      "bufferView": 0,
      "componentType": 5125,
      "count": 3729,
      "type": "SCALAR"
    },
    {
      "bufferView": 2,
      "byteOffset": 24144,
      "componentType": 5126,
      "count": 2745,
      "max": [
        1302.9124755859375,
        1344.287841796875,
        491.7076110839844
      ],
      "min": [
        -1302.911865234375,
        -1342.3955078125,
        -172.7805938720703
      ],
      "type": "VEC3"
    },
    {
      "bufferView": 2,
      "byteOffset": 57084,
      "componentType": 5126,
      "count": 2745,
      "max": [
        1.0,
        1.0,
        1.0
      ],
      "min": [
        -1.0,
        -1.0,
        -0.9999996423721313
      ],
      "type": "VEC3"
    },
    {
      "bufferView": 1,
      "byteOffset": 8048,
      "componentType": 5126,
      "count": 2745,
      "max": [
        0.998199999332428,
        0.9980999827384949
      ],
      "min": [
        0.0010000000474974513,
        -0.0035000001080334187
      ],
      "type": "VEC2"
    },
    {
      "bufferView": 0,
      "byteOffset": 14916,
      "componentType": 5125,
      "count": 12042,
      "type": "SCALAR"
    }
  ],
  "asset": {
    "extras": {
      "author": "jhag (https://sketchfab.com/jhag)",
      "license": "CC-BY-4.0 (http://creativecommons.org/licenses/by/4.0/)",
      "source": "https://sketchfab.com/3d-models/airbus-a350-cfa2836ead8c4278a199a7d34a87f02e",
      "title": "Airbus A350"
    },
    "generator": "Sketchfab-12.65.0",
    "version": "2.0"
  },
  "bufferViews": [
    {
      "buffer": 0,
      "byteLength": 63084,
      "name": "floatBufferViews",
      "target": 34963
    },
    {
      "buffer": 0,
      "byteLength": 30008,
      "byteOffset": 63084,
      "byteStride": 8,
      "name": "floatBufferViews",
      "target": 34962
    },
    {
      "buffer": 0,
      "byteLength": 90024,
      "byteOffset": 93092,
      "byteStride": 12,
      "name": "floatBufferViews",
      "target": 34962
    }
  ],
  "buffers": [
    {
      "byteLength": 183116,
      "uri": "scene.bin"
    }
  ],
  "images": [
    {
      "uri": "textures/07___Default_baseColor.png"
    }
  ],
  "materials": [
    {
      "name": "07___Default",
      "pbrMetallicRoughness": {
        "baseColorTexture": {
          "index": 0
        },
        "metallicFactor": 0.0,
        "roughnessFactor": 0.15314588159470777
      }
    }
  ],
  "meshes": [
    {
      "name": "Object_0",
      "primitives": [
        {
          "attributes": {
            "NORMAL": 1,
            "POSITION": 0,
            "TEXCOORD_0": 2
          },
          "indices": 3,
          "material": 0,
          "mode": 4
        }
      ]
    },
    {
      "name": "Object_1",
      "primitives": [
        {
          "attributes": {
            "NORMAL": 5,
            "POSITION": 4,
            "TEXCOORD_0": 6
          },
          "indices": 7,
          "material": 0,
          "mode": 4
        }
      ]
    }
  ],
  "nodes": [
    {
      "children": [
        1
      ],
      "matrix": [
        1.0,
        0.0,
        0.0,
        0.0,
        0.0,
        2.220446049250313e-16,
        -1.0,
        0.0,
        0.0,
        1.0,
        2.220446049250313e-16,
        0.0,
        0.0,
        0.0,
        0.0,
        1.0
      ],
      "name": "Sketchfab_model"
    },
    {
      "children": [
        2
      ],
      "name": "root"
    },
    {
      "children": [
        3
      ],
      "matrix": [
        1.0,
        0.0,
        0.0,
        0.0,
        0.0,
        2.220446049250313e-16,
        1.0,
        0.0,
        0.0,
        -1.0,
        2.220446049250313e-16,
        0.0,
        0.0,
        0.0,
        0.0,
        1.0
      ],
      "name": "GLTF_SceneRootNode"
    },
    {
      "children": [
        4
      ],
      "matrix": [
        1.0,
        0.0,
        -0.0,
        0.0,
        -0.0,
        0.0,
        -1.0,
        0.0,
        0.0,
        1.0,
        0.0,
        0.0,
        0.0,
        0.0,
        0.0,
        1.0
      ],
      "name": "RootNode (gltf orientation matrix)_0"
    },
    {
      "children": [
        5
      ],
      "name": "RootNode (model correction matrix)_1"
    },
    {
      "children": [
        6,
        8
      ],
      "name": "b54c0b09d9dd4dc4951424da5b0121b5.obj.cleaner_2"
    },
    {
      "children": [
        7
      ],
      "name": "_3"
    },
    {
      "mesh": 0,
      "name": "Object_7"
    },
    {
      "children": [
        9
      ],
      "name": "_4"
    },
    {
      "mesh": 1,
      "name": "Object_9"
    }
  ],
  "samplers": [
    {
      "magFilter": 9729,
      "minFilter": 9987,
      "wrapS": 10497,
      "wrapT": 10497
    }
  ],
  "scene": 0,
  "scenes": [
    {
      "name": "Sketchfab_Scene",
      "nodes": [
        0
      ]
    }
  ],
  "textures": [
    {
      "sampler": 0,
      "source": 0
    }
  ]
}
